<?xml version="1.0" encoding="UTF-8"?>
<svg width="24px" height="24px" viewBox="0 0 24 24" version="1.1" xmlns="http://www.w3.org/2000/svg" xmlns:xlink="http://www.w3.org/1999/xlink">
    <!-- Generator: Sketch 55.2 (78181) - https://sketchapp.com -->
    <title>AI头像</title>
    <desc>Created with Sketch.</desc>
    <defs>
        <linearGradient x1="50%" y1="0%" x2="50%" y2="100%" id="linearGradient-1">
            <stop stop-color="#C8DADB" offset="0%"></stop>
            <stop stop-color="#FCFDFC" offset="100%"></stop>
        </linearGradient>
    </defs>
    <g id="H足球单场比赛" stroke="none" stroke-width="1" fill="none" fill-rule="evenodd">
        <g id="H单场比分/聊天室备份" transform="translate(-12.000000, -343.000000)">
            <g id="AI头像" transform="translate(12.000000, 343.000000)">
                <circle id="椭圆形" fill="#243E62" cx="12" cy="12" r="12"></circle>
                <g id="形状(1)" transform="translate(4.000000, 4.000000)" fill="url(#linearGradient-1)">
                    <path d="M6.05644986,12.0549415 L6.05644986,11.2088182 C5.90265776,11.2003675 5.76029615,11.1887478 5.61897368,11.1866351 C4.86871762,11.1845225 4.11742243,11.1908605 3.36716637,11.1845225 C2.91098575,11.1802971 2.75719364,11.0281851 2.75719364,10.5781869 C2.75511538,8.40108303 2.75511538,6.22397916 2.75719364,4.04370629 C2.75719364,3.57046876 2.90267266,3.43420171 3.39522304,3.43420171 C4.85520885,3.43208904 6.31519467,3.43420171 7.8364895,3.43420171 C7.8364895,2.79828879 7.84272432,2.69054274 7.82609814,2.0757565 C7.82401988,2.00920748 7.6941279,1.92998244 7.61099703,1.88139109 C7.14754246,1.62153298 6.94491097,1.20428115 7.07064641,0.740550632 C7.17885155,0.302946729 7.56720322,-0.0028433991 8.01106433,1.9939591e-05 C8.4540827,0.00620475455 8.83677116,0.316553065 8.94109088,0.754282971 C9.05539581,1.2275205 8.84756865,1.63632166 8.38515322,1.89089809 C8.28747445,1.94582745 8.15758247,2.06413683 8.1555042,2.15498153 C8.13368235,2.7327961 8.14511284,2.80357046 8.14511284,3.42997637 L12.5552052,3.42997637 C13.104908,3.42997637 13.2410349,3.55990543 13.2431132,4.12293132 C13.2472696,6.23348616 13.2472696,8.34298468 13.2431132,10.4535395 C13.2431132,11.0556498 13.1090646,11.1792408 12.4990919,11.1813535 C11.6948007,11.1834661 10.8915488,11.1855788 10.0872577,11.1898041 C10.0488096,11.1898041 10.0114008,11.2077618 9.94281779,11.2267758 L9.94281779,12.1172652 C10.2306584,12.1172652 10.518499,12.1151525 10.8063397,12.1172652 C11.1482153,12.1193779 11.3300641,12.2926166 11.3321424,12.6422631 C11.3342207,13.4123303 11.3321424,13.6753574 11.3342207,14.4475375 C11.3342207,14.8193669 11.1357457,14.996831 10.7865961,14.996831 C8.92238643,15.0010563 7.06129418,15.0010563 5.19708453,14.996831 C4.84273923,14.996831 4.65673391,14.8183105 4.66089046,14.4422557 C4.66920355,13.6838082 4.65881219,13.4355697 4.665047,12.6771221 C4.66920355,12.2640956 4.81052602,12.1299412 5.22929774,12.1183215 C5.48284689,12.1119835 5.73743516,12.1098709 5.99306257,12.1045892 C5.99825825,12.1056455 6.00864961,12.0908568 6.05644986,12.0549415 L6.05644986,12.0549415 Z M4.65673391,7.32573526 C4.65942498,7.58628421 4.76492799,7.83482136 4.94956129,8.01555893 C5.13419458,8.1962965 5.38249116,8.29409387 5.63871725,8.28699898 C6.17259778,8.27210931 6.59756474,7.82745828 6.59680254,7.28453824 C6.58640912,6.7447517 6.15101121,6.32749987 5.60026923,6.33383787 C5.34360915,6.33127294 5.09719266,6.43605283 4.91876914,6.62362168 C4.74034562,6.81119052 4.64559903,7.06506043 4.65673391,7.32573526 L4.65673391,7.32573526 Z M10.395881,6.3380632 C10.1396373,6.33125945 9.89139751,6.42912013 9.70666312,6.6097655 C9.52192873,6.79041089 9.41610734,7.03877443 9.41285854,7.29932692 C9.40870199,7.8274938 9.85656953,8.28488632 10.3823722,8.2891168 C10.9160431,8.29033635 11.3516753,7.85549471 11.360199,7.31305926 C11.3645013,7.05223655 11.2641138,6.8008833 11.0821719,6.61692681 C10.9002301,6.4329703 10.6524303,6.33228073 10.395881,6.3380632 L10.395881,6.3380632 Z M14.1398874,9.157418 L14.1398874,5.46341885 C15.1114794,5.37996848 15.9895491,6.25250017 15.9999404,7.28136925 C16.0082535,8.33559033 15.1457708,9.22079802 14.1398874,9.157418 L14.1398874,9.157418 Z M1.83859758,9.17009401 C0.836713721,9.18008827 0.0151869522,8.36526483 0.00036633451,7.34686194 C-0.0193772459,6.28841552 0.76101375,5.46764419 1.83859758,5.43912318 L1.83859758,9.17009401 L1.83859758,9.17009401 Z" id="形状"></path>
                </g>
            </g>
        </g>
    </g>
</svg>