<?xml version="1.0" standalone="no"?><!DOCTYPE svg PUBLIC "-//W3C//DTD SVG 1.1//EN" "http://www.w3.org/Graphics/SVG/1.1/DTD/svg11.dtd"><svg t="1704435001406" class="icon" viewBox="0 0 1024 1024" version="1.1" xmlns="http://www.w3.org/2000/svg" p-id="1874" xmlns:xlink="http://www.w3.org/1999/xlink" width="200" height="200"><path d="M621.77 694.3h-51.69c-5.98 0-10.82 4.84-10.82 10.82s4.84 10.82 10.82 10.82h51.69c5.98 0 10.82-4.84 10.82-10.82s-4.84-10.82-10.82-10.82zM553.33 610.02c-4.23-4.23-11.08-4.23-15.3 0l-10.63 10.63-10.63-10.63c-4.23-4.23-11.08-4.23-15.3 0-4.23 4.23-4.23 11.08 0 15.3l10.63 10.63-10.63 10.63c-4.23 4.23-4.23 11.08 0 15.3 4.23 4.23 11.08 4.23 15.3 0l10.63-10.63 10.63 10.63c4.23 4.23 11.08 4.23 15.3 0 4.23-4.23 4.23-11.08 0-15.3l-10.63-10.63 10.63-10.63c4.23-4.23 4.23-11.08 0-15.3zM676.78 635.94l10.63-10.63c4.23-4.23 4.23-11.08 0-15.3-4.23-4.23-11.08-4.23-15.3 0l-10.63 10.63-10.63-10.63c-4.23-4.23-11.08-4.23-15.3 0-4.23 4.23-4.23 11.08 0 15.3l10.63 10.63-10.63 10.63c-4.23 4.23-4.23 11.08 0 15.3 4.23 4.23 11.08 4.23 15.3 0l10.63-10.63 10.63 10.63c4.23 4.23 11.08 4.23 15.3 0 4.23-4.23 4.23-11.08 0-15.3l-10.63-10.63z" p-id="1875"></path><path d="M421.25 869.19H306.89c-52.01 0-94.32-42.31-94.32-94.32V247.16c0-52.01 42.31-94.32 94.32-94.32h308.03c4.15 0 8.13 1.65 11.07 4.58l175.4 175.4c2.93 2.93 4.58 6.92 4.58 11.07v119.28c0 8.64-7.01 15.65-15.65 15.65s-15.65-7.01-15.65-15.65v-112.8L608.44 184.14H306.89c-34.75 0-63.02 28.27-63.02 63.02v527.71c0 34.75 28.27 63.02 63.02 63.02h114.36c8.64 0 15.65 7.01 15.65 15.65s-7.01 15.65-15.65 15.65z" p-id="1876"></path><path d="M703.846998 793.431923m15.987684-15.987684l0.007071-0.007071q15.987684-15.987684 31.975369 0l77.08171 77.08171q15.987684 15.987684 0 31.975369l-0.007071 0.007071q-15.987684 15.987684-31.975368 0l-77.081711-77.081711q-15.987684-15.987684 0-31.975368Z" p-id="1877"></path><path d="M590.73 863.54h-0.03c-118.18 0-214.33-96.15-214.33-214.33s96.15-214.33 214.33-214.33 214.33 96.15 214.33 214.33c-0.13 118.06-96.27 214.2-214.3 214.33z m-0.03-393.45c-98.77 0-179.12 80.35-179.12 179.12s80.35 179.12 179.12 179.12h0.01c98.64-0.11 179-80.47 179.11-179.14 0-98.75-80.35-179.1-179.12-179.1z" p-id="1878"></path><path d="M304.13 243.63m26.67 0l185.67 0q26.67 0 26.67 26.67l0 0q0 26.67-26.67 26.67l-185.67 0q-26.67 0-26.67-26.67l0 0q0-26.67 26.67-26.67Z" p-id="1879"></path><path d="M304.13 347.82m26.67 0l185.67 0q26.67 0 26.67 26.67l0 0q0 26.67-26.67 26.67l-185.67 0q-26.67 0-26.67-26.67l0 0q0-26.67 26.67-26.67Z" p-id="1880"></path><path d="M608.8 184.5v120.8c0 24.69 20.01 44.7 44.7 44.7h120.8L608.8 184.5z" p-id="1881"></path></svg>