<?xml version="1.0" standalone="no"?><!DOCTYPE svg PUBLIC "-//W3C//DTD SVG 1.1//EN" "http://www.w3.org/Graphics/SVG/1.1/DTD/svg11.dtd"><svg t="1704256827871" class="icon" viewBox="0 0 1066 1024" version="1.1" xmlns="http://www.w3.org/2000/svg" p-id="1071" xmlns:xlink="http://www.w3.org/1999/xlink" width="208.203125" height="200"><path d="M929.706667 41.386667H103.253333V250.453333h313.429334v307.370667h199.509333V250.496h313.429333z" p-id="1072"></path><path d="M516.48 587.008c-254.037333 0-459.946667-38.826667-459.946667-86.741333 0-47.872 205.909333-86.698667 459.946667-86.698667s459.989333 38.826667 459.989333 86.698667c0 47.914667-205.952 86.741333-459.946666 86.741333m516.48-72.277333c0-61.738667-231.253333-111.786667-516.522667-111.786667C231.253333 402.901333 0 452.949333 0 514.688c0 54.4 179.328 99.712 416.938667 109.738667v398.250666h195.413333v-398.08c239.445333-9.728 420.650667-55.253333 420.650667-109.909333" p-id="1073"></path></svg>