<?xml version="1.0" standalone="no"?><!DOCTYPE svg PUBLIC "-//W3C//DTD SVG 1.1//EN" "http://www.w3.org/Graphics/SVG/1.1/DTD/svg11.dtd"><svg class="icon" width="200px" height="200.00px" viewBox="0 0 1024 1024" version="1.1" xmlns="http://www.w3.org/2000/svg"><path d="M346.866526 38.4l-250.475789 578.829474c31.717053-5.470316 72.596211 6.952421 109.029052 33.118315L506.556632 201.620211c45.056-46.672842 44.624842-119.242105-0.997053-163.301053-45.594947-44.032-118.137263-41.930105-158.72 0.080842z m40.151579 872.394105l565.948632-266.617263c44.651789-46.241684 43.897263-118.460632-1.724632-162.492631-45.621895-44.058947-117.813895-42.307368-162.492631 3.934315L349.776842 803.301053c27.486316 35.462737 41.445053 75.749053 37.268211 107.466105z m165.618527-680.690526L252.712421 676.405895l77.527579 74.913684 435.631158-315.365053c54.487579-56.400842 51.442526-150.231579-11.587369-211.051789-48.747789-56.185263-142.605474-55.969684-201.647157 5.146947z m-214.042948 715.129263c32.768-33.953684 2.155789-110.322526-69.847579-179.846737s-149.396211-97.441684-182.16421-63.514947c-70.170947 72.704-72.515368 192.188632-5.012211 257.347368 67.503158 65.212632 186.826105 58.691368 257.024-14.012631z" /></svg>