<?xml version="1.0" standalone="no"?><!DOCTYPE svg PUBLIC "-//W3C//DTD SVG 1.1//EN" "http://www.w3.org/Graphics/SVG/1.1/DTD/svg11.dtd"><svg class="icon" width="200px" height="200.00px" viewBox="0 0 1024 1024" version="1.1" xmlns="http://www.w3.org/2000/svg"><path d="M588.746105 135.033263c20.857263 58.556632 35.435789 128.188632 42.792421 204.368842 60.685474 2.236632 118.029474 9.162105 171.924211 20.749474a243.307789 243.307789 0 0 1 9.701052-40.528842c11.344842-34.061474 29.857684-63.676632 53.598316-85.773474 16.114526-14.982737 33.899789-25.869474 52.466527-32.175158a513.805474 513.805474 0 0 0-45.190737-51.658105 509.952 509.952 0 0 0-162.762106-109.675789A507.499789 507.499789 0 0 0 513.562947 0c30.019368 33.792 55.242105 78.955789 75.183158 135.033263z m364.867369 123.418948c-32.390737 2.613895-65.482105 35.947789-80.464842 81.003789-3.314526 9.970526-6.332632 22.150737-8.084211 36.217263a703.380211 703.380211 0 0 1 154.138947 65.751579 505.263158 505.263158 0 0 0-35.462736-128.727579 529.92 529.92 0 0 0-27.082106-54.703158 39.262316 39.262316 0 0 1-3.045052 0.431158zM266.752 213.153684c49.044211 27.270737 83.968 70.009263 101.133474 123.715369 1.859368 5.928421 3.503158 11.883789 4.904421 17.92a1587.738947 1587.738947 0 0 1 156.618105-15.090527c12.988632-0.538947 25.869474-0.916211 38.588632-1.024-7.033263-68.230737-20.210526-130.317474-38.804211-182.433684-25.330526-71.087158-60.254316-121.909895-100.971789-146.863158a25.276632 25.276632 0 0 1-2.991158-2.101895A511.002947 511.002947 0 0 0 122.826105 179.334737c55.161263 0.053895 103.477895 11.371789 143.925895 33.845895z m756.547368 305.421474c-48.181895-32.902737-100.540632-57.856-155.755789-76.045474 2.344421 13.123368 5.982316 27.001263 11.102316 41.741474 21.018947 59.957895 62.517895 119.215158 123.472842 176.316631 13.877895-45.702737 21.234526-93.130105 21.881263-141.581473a4.311579 4.311579 0 0 1-0.700632-0.431158zM573.305263 416.067368l-0.565895-14.336c-64.080842 0.754526-128.889263 6.602105-193.024 16.006737a314.529684 314.529684 0 0 1-3.125894 41.148632c-6.090105 43.196632-20.884211 86.851368-43.843369 129.859368-48.208842 90.031158-128.080842 169.148632-231.370105 229.187369a511.191579 511.191579 0 0 0 48.64 56.104421 509.952 509.952 0 0 0 162.762105 109.702737 507.850105 507.850105 0 0 0 136.623158 36.486736c84.884211-168.070737 131.206737-393.916632 123.904-604.16z m-263.087158-51.011368a143.198316 143.198316 0 0 0-2.56-8.973474c-26.516211-82.997895-108.544-123.634526-225.226105-111.400421-2.425263 0.269474-4.796632 0.269474-7.168-0.080842a506.071579 506.071579 0 0 0-35.031579 68.096A508.335158 508.335158 0 0 0 4.581053 443.203368c106.496-34.492632 208.626526-60.631579 305.664-78.147368z m665.519158 356.917895c-77.608421-68.608-130.371368-141.635368-156.672-216.818527-10.24-29.372632-15.629474-56.454737-17.596631-80.949894-53.490526-12.234105-108.975158-19.078737-165.456843-21.530948 0.161684 3.718737 0.350316 7.437474 0.458106 11.156211 3.664842 104.96-5.497263 216.683789-26.543158 323.314526-20.668632 104.717474-51.658105 201.027368-92.106105 286.854737a509.925053 509.925053 0 0 0 193.536-40.205474 511.002947 511.002947 0 0 0 162.762105-109.675789 510.356211 510.356211 0 0 0 104.124631-150.096842 19.321263 19.321263 0 0 1-2.506105-2.048z m-698.745263-163.058527c23.498105-43.924211 36.729263-88.953263 39.046737-130.694736-108.220632 19.914105-212.884211 48.909474-306.580211 79.872a32.660211 32.660211 0 0 1-9.458526 1.616842V512a508.954947 508.954947 0 0 0 66.748632 252.928c119.161263-68.473263 180.089263-149.638737 210.243368-206.012632z" /></svg>