<?xml version="1.0" standalone="no"?><!DOCTYPE svg PUBLIC "-//W3C//DTD SVG 1.1//EN" "http://www.w3.org/Graphics/SVG/1.1/DTD/svg11.dtd"><svg class="icon" width="200px" height="200.00px" viewBox="0 0 1024 1024" version="1.1" xmlns="http://www.w3.org/2000/svg"><path d="M812.382316 0a161.684211 161.684211 0 0 1 161.68421 161.684211v700.631578a161.684211 161.684211 0 0 1-161.68421 161.684211H202.105263a161.684211 161.684211 0 0 1-161.68421-161.684211V161.684211a161.684211 161.684211 0 0 1 161.68421-161.684211h610.277053z m-77.446737 597.342316H279.552a26.947368 26.947368 0 0 0-26.947368 26.947368v31.420632a26.947368 26.947368 0 0 0 26.947368 26.947368h455.383579a26.947368 26.947368 0 0 0 26.947368-26.947368v-31.420632a26.947368 26.947368 0 0 0-26.947368-26.947368z m0-256H279.552a26.947368 26.947368 0 0 0-26.947368 26.947368v31.420632a26.947368 26.947368 0 0 0 26.947368 26.947368h455.383579a26.947368 26.947368 0 0 0 26.947368-26.947368v-31.420632a26.947368 26.947368 0 0 0-26.947368-26.947368z" /></svg>