<?xml version="1.0" standalone="no"?><!DOCTYPE svg PUBLIC "-//W3C//DTD SVG 1.1//EN" "http://www.w3.org/Graphics/SVG/1.1/DTD/svg11.dtd"><svg class="icon" width="200px" height="200.00px" viewBox="0 0 1024 1024" version="1.1" xmlns="http://www.w3.org/2000/svg"><path d="M788.536889 0a170.666667 170.666667 0 0 1 170.666667 170.666667v550.599111a187.022222 187.022222 0 0 0-124.842667-47.587556c-103.822222 0-188.017778 84.48-188.017778 188.643556A188.643556 188.643556 0 0 0 737.479111 1024L199.111111 1024a170.666667 170.666667 0 0 1-170.666667-170.666667V170.666667a170.666667 170.666667 0 0 1 170.666667-170.666667h589.425778z m-69.319111 597.333333H268.430222a28.444444 28.444444 0 0 0-28.444444 28.444445v28.444444a28.444444 28.444444 0 0 0 28.444444 28.444445h450.787556a28.444444 28.444444 0 0 0 28.444444-28.444445v-28.444444a28.444444 28.444444 0 0 0-28.444444-28.444445z m0-256H268.430222a28.444444 28.444444 0 0 0-28.444444 28.444445v28.444444a28.444444 28.444444 0 0 0 28.444444 28.444445h450.787556a28.444444 28.444444 0 0 0 28.444444-28.444445v-28.444444a28.444444 28.444444 0 0 0-28.444444-28.444445zM834.360889 700.643556c89.031111 0 161.194667 72.362667 161.194667 161.678222S923.392 1024 834.360889 1024s-161.166222-72.391111-161.166222-161.678222c0-89.315556 72.163556-161.678222 161.166222-161.678222z m0 53.873777a26.851556 26.851556 0 0 0-26.851556 26.88v53.959111h-53.646222a26.936889 26.936889 0 1 0 0 53.902223h53.646222v53.987555a26.851556 26.851556 0 1 0 53.731556 0v-54.016l53.646222 0.028445a26.936889 26.936889 0 0 0 0-53.902223h-53.646222v-53.959111a26.851556 26.851556 0 0 0-26.88-26.88z" /></svg>