<?xml version="1.0" standalone="no"?><!DOCTYPE svg PUBLIC "-//W3C//DTD SVG 1.1//EN" "http://www.w3.org/Graphics/SVG/1.1/DTD/svg11.dtd"><svg class="icon" width="200px" height="200.00px" viewBox="0 0 1024 1024" version="1.1" xmlns="http://www.w3.org/2000/svg"><path d="M511.891125 0c68.908994 0 135.4387 13.311965 198.414534 39.544366a505.553485 505.553485 0 0 1 163.929919 110.139944 513.203347 513.203347 0 0 1 109.92912 163.809448A515.582635 515.582635 0 0 1 1024.01024 514.317697a509.83018 509.83018 0 0 1-40.899656 199.498766 507.782185 507.782185 0 0 1-110.380885 162.183101 502.662199 502.662199 0 0 1-162.966157 108.784653A507.48101 507.48101 0 0 1 512.493476 1023.997289h-2.409405a511.516764 511.516764 0 0 1-228.592336-54.813972H107.532666a52.796096 52.796096 0 0 1-52.645508-52.705743v-173.477188A512.661231 512.661231 0 0 1 0.012951 514.709226a512.390173 512.390173 0 0 1 39.092602-199.95053 508.625477 508.625477 0 0 1 108.754536-163.327567 510.553001 510.553001 0 0 1 162.333688-110.380885A506.48713 506.48713 0 0 1 509.511837 0z m-221.966471 438.752721a73.215806 73.215806 0 1 0 0 146.371377 73.215806 73.215806 0 1 0 0-146.371377z m221.966471 0a73.215806 73.215806 0 1 0 0 146.371377 73.215806 73.215806 0 0 0 0-146.371377z m222.237529 0a73.215806 73.215806 0 1 0 0 146.371377 73.366394 73.366394 0 0 0 73.336277-73.185688c0-40.447893-32.798031-73.185689-73.336277-73.185689z" /></svg>