<?xml version="1.0" standalone="no"?><!DOCTYPE svg PUBLIC "-//W3C//DTD SVG 1.1//EN" "http://www.w3.org/Graphics/SVG/1.1/DTD/svg11.dtd"><svg t="1705024607696" class="icon" viewBox="0 0 1024 1024" version="1.1" xmlns="http://www.w3.org/2000/svg" p-id="979" xmlns:xlink="http://www.w3.org/1999/xlink" width="200" height="200"><path d="M414.170537 8.316878c45.155902 0 86.490537 17.80761 118.634146 47.553561 0.499512 0 0.824195-0.124878 1.298732-0.124878 71.979707 0 130.497561 64.037463 130.497561 142.985366v119.208585h-1.173854c0 1.398634 0 2.922146-0.099902 4.320781 0.79922 0.39961 1.623415 0.499512 2.422634 1.024 24.850732 15.235122 27.523122 59.61678 6.044097 99.278048-11.388878 20.979512-27.173463 36.089756-43.307707 43.707318A377.581268 377.581268 0 0 1 581.931707 546.466341c0.249756-0.249756 0.574439-0.249756 0.699317-0.499512a30.120585 30.120585 0 0 0-6.393756 18.681756c0 13.611707 8.841366 24.925659 20.430049 27.847805 0.099902 0 0.199805 0 0.274732 0.049951a271.559805 271.559805 0 0 0-77.474342 190.014439c0 86.465561 40.535415 163.590244 103.898537 213.966049a1441.292488 1441.292488 0 0 1-176.327805 10.814439c-121.331512 0-239.39122-15.235122-352.930341-43.582439C46.954146 948.124098 12.487805 900.32078 12.487805 843.37639v-25.400195c0-77.299512 42.38361-143.260098 102.649756-172.481561a867.527805 867.527805 0 0 1 182.247024-53.397854c11.613659-2.922146 20.430049-14.11122 20.430049-27.822829a30.220488 30.220488 0 0 0-6.393756-18.681756c0.124878 0.249756 0.499512 0.374634 0.699317 0.499512a377.581268 377.581268 0 0 1-46.554536-80.196683c-16.134244-7.617561-31.918829-22.75278-43.282732-43.707317-21.379122-39.53639-18.706732-84.042927 6.019122-99.278048 0.824195-0.499512 1.623415-0.649366 2.44761-1.024 0-1.398634 0-2.922146-0.124879-4.320781h-1.148878V198.481171h0.574439C235.74478 92.459707 315.841561 8.316878 414.170537 8.316878z m447.488 549.463415a149.853659 149.853659 0 0 1 149.853658 149.853658v149.853659a149.853659 149.853659 0 0 1-149.853658 149.853658h-116.311415a149.853659 149.853659 0 0 1-149.853659-149.853658v-149.853659a149.853659 149.853659 0 0 1 149.853659-149.853658H861.658537z m36.564292 262.243902H708.807805a18.731707 18.731707 0 0 0 0 37.463415h189.44a18.731707 18.731707 0 1 0 0-37.463415z m0-112.390244H708.807805a18.731707 18.731707 0 0 0 0 37.463415h189.44a18.731707 18.731707 0 1 0 0-37.463415z" p-id="980"></path></svg>