<?xml version="1.0" standalone="no"?><!DOCTYPE svg PUBLIC "-//W3C//DTD SVG 1.1//EN" "http://www.w3.org/Graphics/SVG/1.1/DTD/svg11.dtd"><svg class="icon" width="200px" height="200.00px" viewBox="0 0 1024 1024" version="1.1" xmlns="http://www.w3.org/2000/svg"><path d="M625.777778 137.329778V312.888889a85.333333 85.333333 0 0 0 85.333333 85.333333h175.559111a56.888889 56.888889 0 0 0 40.220445-97.109333l-204.003556-204.003556A56.888889 56.888889 0 0 0 625.777778 137.329778zM483.555556 1024C216.490667 1024 0 807.509333 0 540.444444S216.490667 56.888889 483.555556 56.888889a73.614222 73.614222 0 0 1 73.614222 73.614222v250.993778a85.333333 85.333333 0 0 0 85.333333 85.333333h250.993778A73.614222 73.614222 0 0 1 967.111111 540.444444c-0.398222 266.894222-216.661333 483.157333-483.555555 483.555556zM409.941333 214.385778a336.355556 336.355556 0 1 0 399.644445 399.644444h-314.311111a85.333333 85.333333 0 0 1-85.333334-85.333333V214.414222z" /></svg>