<?xml version="1.0" standalone="no"?><!DOCTYPE svg PUBLIC "-//W3C//DTD SVG 1.1//EN" "http://www.w3.org/Graphics/SVG/1.1/DTD/svg11.dtd"><svg class="icon" width="200px" height="200.00px" viewBox="0 0 1024 1024" version="1.1" xmlns="http://www.w3.org/2000/svg"><path d="M512 1024c282.731789 0 512-229.268211 512-512S794.731789 0 512 0 0 229.268211 0 512s229.268211 512 512 512z m180.331789-953.074526a478.234947 478.234947 0 0 1 184.481685 134.844631l-12.826948-2.371368a27.378526 27.378526 0 0 0-32.983579 19.34821l-37.160421 176.505264c-2.856421 16.869053 4.742737 40.394105 16.976842 52.277894l133.793685 120.724211c11.398737 9.350737 28.375579 7.464421 38.103579-3.934316l2.236631-2.371368a472.953263 472.953263 0 0 1-76.314947 208.680421l-6.521263-42.496c-1.562947-14.821053-14.497684-26.112-29.103158-24.926316l-179.011369 22.312421c-16.842105 2.748632-36.567579 17.704421-43.789473 33.010526l-70.656 165.726316c-5.093053 13.743158 2.155789 29.210947 16.033684 34.762105l25.411368 11.641263a475.944421 475.944421 0 0 1-108.867368 12.476632c-40.232421 0-79.306105-4.985263-116.574316-14.362947l23.875368-10.913685c13.877895-5.578105 21.126737-21.018947 16.006737-34.789052l-70.602105-165.726316c-7.275789-15.306105-26.947368-30.261895-43.816421-33.010526L141.877895 706.021053c-14.605474-1.185684-27.540211 10.105263-29.103158 24.926315l-4.850526 31.717053a474.273684 474.273684 0 0 1-70.036211-210.970947l11.290947 11.856842c9.701053 11.317895 26.677895 13.204211 38.103579 3.934316l133.766737-120.724211c12.126316-11.856842 19.833263-35.381895 16.976842-52.224L200.757895 218.112c-3.664842-14.228211-18.512842-22.770526-33.010527-19.348211l-17.192421 3.098948a477.157053 477.157053 0 0 1 181.032421-130.964211l-11.398736 21.153685c-7.706947 12.826947-4.149895 29.561263 8.192 37.402947l156.348631 89.977263c15.171368 7.949474 39.882105 7.814737 54.972632 0l156.079158-89.869474c12.341895-7.949474 15.791158-24.683789 8.08421-37.402947l-11.533474-21.234526z m-158.854736 272.491789c-12.018526-8.784842-31.043368-8.569263-42.846316 0l-131.934316 95.878737c-12.018526 8.677053-17.812211 26.812632-13.258105 40.744421l50.445473 155.082105c4.581053 14.147368 20.021895 25.168842 34.627369 25.168842h162.977684c14.821053 0 30.073263-11.264 34.627369-25.168842l50.445473-155.082105c4.581053-14.147368-1.455158-32.175158-13.258105-40.744421z" /></svg>