<?xml version="1.0" standalone="no"?><!DOCTYPE svg PUBLIC "-//W3C//DTD SVG 1.1//EN" "http://www.w3.org/Graphics/SVG/1.1/DTD/svg11.dtd"><svg class="icon" width="200px" height="200.00px" viewBox="0 0 1024 1024" version="1.1" xmlns="http://www.w3.org/2000/svg"><path d="M223.971556 0H256a223.971556 223.971556 0 0 1 224.028444 223.971556v142.222222a113.777778 113.777778 0 0 1-113.777777 113.777778h-142.222223A223.971556 223.971556 0 0 1 0 256V223.971556A223.971556 223.971556 0 0 1 223.971556 0z m256 657.749333v142.222223A223.971556 223.971556 0 0 1 256 1024H223.971556A223.971556 223.971556 0 0 1 0 800.028444V768a223.971556 223.971556 0 0 1 223.971556-224.028444h142.222222a113.777778 113.777778 0 0 1 113.777778 113.777777zM768 0h32.028444A223.971556 223.971556 0 0 1 1024 223.971556V256a223.971556 223.971556 0 0 1-223.971556 224.028444h-142.222222a113.777778 113.777778 0 0 1-113.777778-113.777777v-142.222223A223.971556 223.971556 0 0 1 768 0H768z m31.971556 543.971556A223.971556 223.971556 0 0 1 1024 768v32.028444A223.971556 223.971556 0 0 1 800.028444 1024H768a223.971556 223.971556 0 0 1-224.028444-223.971556v-142.279111a113.777778 113.777778 0 0 1 113.777777-113.777777h142.222223z" /></svg>