<?xml version="1.0" standalone="no"?><!DOCTYPE svg PUBLIC "-//W3C//DTD SVG 1.1//EN" "http://www.w3.org/Graphics/SVG/1.1/DTD/svg11.dtd"><svg t="1702978407248" class="icon" viewBox="0 0 1024 1024" version="1.1" xmlns="http://www.w3.org/2000/svg" p-id="700" xmlns:xlink="http://www.w3.org/1999/xlink" width="200" height="200"><path d="M556.718888 514.533053c-23.066947 0-41.229474 8.542316-54.487579 25.626947-13.231158 17.111579-19.860211 39.235368-19.86021 66.425263 0 26.812632 6.467368 48.774737 19.429053 65.778526 12.934737 17.030737 30.72 25.546105 53.328842 25.546106 23.04 0 40.986947-8.138105 53.840842-24.468211 12.826947-16.330105 19.240421-38.265263 19.240421-65.805473 0-28.698947-6.224842-51.415579-18.701474-68.096-12.476632-16.680421-30.073263-25.007158-52.789895-25.007158z m370.445474-141.608421c48.747789-53.140211 16.384-208.761263 8.272842-187.49979-8.165053 21.396211-41.849263 24.441263-41.849263 24.441263s14.282105-11.210105 5.12-93.722947C889.518888 33.630316 859.903731 0 859.903731 0s-20.372211 31.582316-62.221474 72.326737c-41.822316 40.744421-110.187789 44.840421-110.18779 44.840421s3.072-11.210105 6.117053-30.073263c3.072-18.836211-4.069053-40.232421-4.069053-40.232421s-9.162105 13.258105-58.152421 44.840421c-25.6 16.491789-39.208421 21.854316-46.349473 23.228631A462.093474 462.093474 0 0 0 512.013204 109.136842c-253.008842 0-458.105263 204.8-458.105263 457.431579C53.907941 819.2 259.004362 1024 512.013204 1024s458.105263-204.8 458.105263-457.431579a455.141053 455.141053 0 0 0-42.954105-193.643789zM373.234257 744.016842H314.381204v-113.771789H196.728994v113.771789H137.848994V468.237474H196.728994v111.292631h117.679158v-111.292631h58.853052v275.806315z m279.174737-35.354947c-25.061053 26.758737-57.829053 40.151579-98.357895 40.151579-39.612632 0-71.760842-12.961684-96.471579-38.912-24.737684-25.923368-37.079579-59.311158-37.079579-100.136421 0-43.223579 12.611368-78.389895 37.888-105.498948 25.249684-27.136 58.637474-40.690526 100.109474-40.690526 39.477895 0 71.248842 13.123368 95.312842 39.343158 24.064 26.246737 36.109474 59.957895 36.109474 101.133474 0 42.981053-12.503579 77.850947-37.537685 104.609684z m258.96421-192.404211h-78.794105v227.759158h-59.014737V516.311579h-78.659368v-48.074105h216.46821v48.074105z" p-id="701"></path></svg>