<svg width="30" height="30" viewBox="0 0 30 30" xmlns="http://www.w3.org/2000/svg">
    <path d="M23.074 19.284c.622 0 1.21-.397 1.417-1.02a9.748 9.748 0 0 0 .535-3.229 9.94 9.94 0 0 0-.725-3.765 1.522 1.522 0 0 0-1.97-.829 1.508 1.508 0 0 0-.828 1.952c.345.846.518 1.727.518 2.642 0 .777-.121 1.537-.38 2.263-.26.794.155 1.64.95 1.9.155.051.31.086.483.086zM30 15.018c0-2.867-.674-5.544-1.934-7.79a1.52 1.52 0 0 0-2.056-.57 1.52 1.52 0 0 0-.57 2.056c1.002 1.744 1.555 3.99 1.555 6.304 0 2.003-.397 3.938-1.157 5.561a1.494 1.494 0 0 0 1.347 2.142c.57 0 1.122-.328 1.364-.864C29.5 19.82 30 17.453 30 15.017zm-16.045 13.35c.57.329 1.21.484 1.848.484.708 0 1.382-.19 2.02-.553 1.262-.76 2.022-2.124 2.022-3.644V5.191c0-1.52-.76-2.885-2.021-3.645-1.21-.708-2.643-.742-3.973-.017L6.667 6.14h-2.47A4.201 4.201 0 0 0 0 10.337v9.102a4.201 4.201 0 0 0 4.197 4.197h2.47l7.288 4.732zM7.927 20.89a1.49 1.49 0 0 0-.811-.242h-2.92a1.194 1.194 0 0 1-1.19-1.192v-9.101c0-.657.535-1.192 1.19-1.192h2.92c.293 0 .57-.086.811-.242l7.496-4.836a.892.892 0 0 1 .864.052c.362.207.57.605.57 1.054v19.464c0 .466-.208.864-.57 1.07a.892.892 0 0 1-.864.053L7.927 20.89z" fill="#FFF" fill-rule="nonzero"/>
</svg>
