<?xml version="1.0" standalone="no"?><!DOCTYPE svg PUBLIC "-//W3C//DTD SVG 1.1//EN" "http://www.w3.org/Graphics/SVG/1.1/DTD/svg11.dtd"><svg t="1705024599705" class="icon" viewBox="0 0 1024 1024" version="1.1" xmlns="http://www.w3.org/2000/svg" p-id="840" xmlns:xlink="http://www.w3.org/1999/xlink" width="200" height="200"><path d="M539.385496 15.193946l438.797838 217.392432a57.454703 57.454703 0 0 1 0 103.008865L539.413172 552.96a57.399351 57.399351 0 0 1-50.923243 0L49.636739 335.595243a57.454703 57.454703 0 0 1 0-103.008865L488.462253 15.221622a57.344 57.344 0 0 1 50.923243 0z m364.876108 399.747459l70.01946 34.677622a57.454703 57.454703 0 0 1 0 102.953514L535.510902 769.992649c-16.051892 7.942919-34.871351 7.942919-50.923244 0L45.762145 552.600216a57.454703 57.454703 0 0 1 0-102.953513l70.019459-34.705298 368.778379 182.65946c16.051892 7.970595 34.871351 7.970595 50.923243 0l368.778378-182.65946z m0 229.625081l70.01946 34.649946a57.454703 57.454703 0 0 1 0 103.008865L535.510902 999.590054c-16.051892 7.942919-34.871351 7.942919-50.923244 0L45.762145 782.225297a57.454703 57.454703 0 0 1 0-102.953513l70.019459-34.705298 368.778379 182.65946c16.051892 7.970595 34.871351 7.970595 50.923243 0l368.778378-182.65946z" p-id="841"></path></svg>