<?xml version="1.0" standalone="no"?><!DOCTYPE svg PUBLIC "-//W3C//DTD SVG 1.1//EN" "http://www.w3.org/Graphics/SVG/1.1/DTD/svg11.dtd"><svg class="icon" width="200px" height="200.00px" viewBox="0 0 1024 1024" version="1.1" xmlns="http://www.w3.org/2000/svg"><path d="M971.829895 464.087579c17.434947 0.107789 34.842947 1.131789 52.170105 3.018105C1003.008 226.465684 819.173053 32.525474 581.200842 0v30.369684c0 295.936-237.864421 536.171789-532.048842 537.357474A453.093053 453.093053 0 0 1 0 564.709053C24.198737 801.145263 205.419789 990.585263 439.349895 1024v-22.986105c0-296.043789 238.214737-536.225684 532.48-536.926316zM512 30.046316V0C234.603789 0.134737 7.68 220.779789 0 497.825684c13.743158 0 27.486316 2.155789 42.954105 2.15579 258.775579-1.886316 467.887158-211.375158 469.045895-469.962106z m512 499.550316a421.726316 421.726316 0 0 0-46.807579-3.018106c-262.629053 0-475.513263 212.722526-475.513263 475.082106V1024H512c276.102737-0.080842 502.514526-218.704842 512-494.403368z" /></svg>