<svg width="42" height="42" viewBox="0 0 42 42" xmlns="http://www.w3.org/2000/svg">
    <g fill="#FFF" fill-rule="nonzero">
        <path d="M19.537 39.716c.798.46 1.693.677 2.587.677.992 0 1.935-.266 2.83-.774 1.764-1.064 2.828-2.974 2.828-5.102V7.267c0-2.128-1.064-4.038-2.829-5.102-1.692-.992-3.7-1.04-5.561-.024L9.333 8.597H5.875A5.882 5.882 0 0 0 0 14.472v12.743a5.882 5.882 0 0 0 5.875 5.876h3.458l10.204 6.625zm-8.439-10.47a2.087 2.087 0 0 0-1.136-.339H5.875c-.918 0-1.668-.75-1.668-1.668V14.496c0-.918.75-1.668 1.668-1.668h4.087c.41 0 .798-.12 1.136-.339l10.494-6.77a1.249 1.249 0 0 1 1.21.073c.507.29.797.846.797 1.475v27.25c0 .653-.29 1.21-.798 1.5a1.249 1.249 0 0 1-1.209.072l-10.494-6.843zM37.236 20.996l4.309 4.31a1.524 1.524 0 1 1-2.154 2.154l-4.31-4.308-4.309 4.309a1.524 1.524 0 0 1-2.154-2.155l4.31-4.309-4.31-4.31a1.523 1.523 0 1 1 2.154-2.154l4.31 4.31 4.309-4.31a1.523 1.523 0 1 1 2.154 2.155l-4.31 4.309z"/>
    </g>
</svg>
