<?xml version="1.0" encoding="UTF-8"?>
<svg width="34px" height="34px" viewBox="0 0 34 34" version="1.1" xmlns="http://www.w3.org/2000/svg" xmlns:xlink="http://www.w3.org/1999/xlink">
    <title>icon_bac_dz</title>
    <g id="控件" stroke="none" stroke-width="1" fill="none" fill-rule="evenodd">
        <g id="icon/桌台备份" transform="translate(0, -1)" fill="#FFFFFF" fill-rule="nonzero">
            <g id="icon_bac_dz" transform="translate(-0.01, 1)">
                <path d="M6.52081872,11.3850333 C6.9311561,11.1273387 7.60645613,11.14369 8.07880766,11.2517074 L11.165,11.9326214 L11.1115854,12.038653 C11.0068993,12.2615055 10.9362969,12.4706977 10.8680906,12.7347228 L10.81689,12.944093 C10.8115501,12.9669826 10.8061235,12.9904999 10.79986,13.0178423 C10.7963359,13.0332372 10.7941666,13.0427312 10.7914263,13.0547352 L10.7382334,13.2549046 C8.82326482,20.4171013 7.33883988,25.2583762 6.30500849,27.7328985 L6.28966946,27.7696132 L6.27642823,27.8071355 C5.74991506,29.0822872 4.56309888,30.0258303 2.7159797,30.6377646 C1.34405231,30.482246 0.449793512,30.3243965 0.0305780126,30.1636826 L0,30.1516214 L0.0576335951,30.170835 C0.693944035,30.3447438 1.74366938,29.6613898 2.41616673,27.935843 L2.49820698,27.7147082 C3.57437808,25.1388438 4.7052695,20.1091876 5.89088123,12.6257397 C5.99873484,12.1533497 6.11048134,11.6427279 6.52081872,11.3850333 Z" id="形状结合"></path>
                <path d="M14.3448083,12.0261569 L19.4048469,13.5221773 C19.2108053,13.732367 19.0644373,13.9508821 18.9557957,14.1740073 L18.9343828,14.185289 C18.6981194,14.3112314 18.437875,14.4607254 18.1738001,14.6294254 C17.947564,14.7739525 17.7384059,14.9213173 17.5489558,15.0726905 C16.6969277,15.7533997 16.2759766,16.4961888 15.8355532,17.8745698 C15.4586791,19.0520555 15.5469879,20.0283013 16.1314011,20.8843935 C16.9760378,22.1260508 18.609499,22.1381383 19.9065256,21.308684 C19.997585,21.2505008 20.0875768,21.1900806 20.1768402,21.1273976 C20.3496223,21.0060658 20.51396,20.8805661 20.690985,20.7372656 C20.7563244,20.6843738 20.819699,20.6321169 20.9030873,20.5626165 C20.9286091,20.5413027 21.0458584,20.4434752 21.0774681,20.4173076 C21.6116436,19.9735338 21.8253159,19.8977981 22.9722411,19.6346974 C23.2986142,19.5598286 23.5230788,19.4902325 23.7586514,19.3675008 C23.8410564,19.3248557 23.9225139,19.2791107 24.0005365,19.2315208 C24.3470078,19.0201905 24.5853931,18.8057282 24.8589337,18.495459 C25.2776365,18.0205364 25.2140509,18.0893148 25.3894879,17.9401456 C25.5422146,17.8104479 25.6897046,17.6665777 25.8531472,17.4927527 C25.9249845,17.416352 25.9960884,17.3383797 26.0898622,17.2338676 L26.1025798,17.2196341 C26.1446791,17.1725866 26.2688861,17.0338958 26.3073114,16.9914099 C26.5171632,16.7593814 26.6634611,16.611172 26.8044136,16.4917094 C26.8200927,16.4783713 26.8200927,16.4783713 26.8335876,16.4669207 C26.8833401,16.424734 27.1738133,16.1941287 27.5131738,15.9190952 L32.5819971,17.4174195 C33.0543857,17.5252748 33.4645633,17.8164086 33.7222581,18.2267483 C33.9799528,18.6370879 34.064046,19.133005 33.9560303,19.605358 C32.1756124,24.482048 30.9809039,27.7383816 30.3719046,29.3743588 L30.2732423,29.6389392 C30.0873928,30.1363542 29.970394,30.4432946 29.9222459,30.5597604 C29.6273391,31.2731138 28.8932393,32.2561852 28.1379675,32.7410803 C27.3826957,33.2259755 26.0693513,33.3846613 25.3035504,33.3137138 C22.9787887,33.0983369 20.8462235,32.8921595 18.9059727,32.6955889 C18.4329783,31.3212045 18.7666556,29.5229117 18.7666556,29.5229117 C19.5976017,31.176642 22.1023868,31.6966518 23.3071099,29.9162964 C24.4904544,28.1685788 23.7124715,26.9747687 22.3783355,25.5070804 C21.4805222,24.5189385 20.1620093,21.4291786 20.1620093,21.4291786 C20.1620093,21.4291786 17.591446,23.5919772 16.3434826,24.0677237 C14.490116,24.7747825 13.2570622,25.4884435 13.5235999,27.5819525 C13.7969402,29.714148 16.2640249,30.381157 17.7510599,29.2808683 C17.7510599,29.2808683 17.1077175,31.4752163 15.8014304,32.3729746 C12.9117281,32.0603867 10.564924,31.7770033 8.7590342,31.5231672 L8.26234268,31.4521124 C5.77073715,31.0890894 4.43599601,30.7896404 4.25985691,30.5597604 C4.83567991,31.1089794 6.83130742,30.466082 7.60426503,28.2757153 C8.68043613,25.6998509 10.1979751,20.7413422 12.1568819,13.4001892 C12.2647355,12.9277992 12.376482,12.4171774 12.7868194,12.1594828 C13.1971568,11.9017882 13.8724568,11.9181395 14.3448083,12.0261569 Z M20.7884886,13.9318692 L26.0408569,15.4830709 L25.9880725,15.5285185 C25.544995,15.9040437 25.1752581,16.3899551 24.7988806,16.7669098 L24.5716173,16.9782531 C23.9229567,17.5297913 23.8670836,17.8897008 23.1752739,18.2477598 C22.6415254,18.5258391 21.4984797,18.4260859 20.2723336,19.4447297 C19.9893333,19.6790074 19.6563523,19.9702048 19.2262924,20.244996 C18.4817494,20.7211346 17.5818076,20.7717526 17.1741878,20.172533 C16.8463692,19.6923198 16.7585767,19.1326451 17.038247,18.2588572 C17.3760823,17.2015437 17.6686943,16.5930951 18.3370998,16.0590872 C19.0224506,15.5114828 20.0009425,15.0645494 20.0009425,15.0645494 C20.0009425,15.0645494 20.01242,14.6705185 20.4332151,14.2777035 C20.5092546,14.2064532 20.6473447,14.0717181 20.7884886,13.9318692 Z" id="形状结合"></path>
                <path d="M27.9340127,20.6133485 C26.5227161,20.1616991 25.1853381,20.8581615 23.5157888,20.4156979 C20.5506604,19.6326786 17.654087,19.3529716 16.521696,18.5136657 C16.3071532,18.3546698 15.7252986,17.5889126 15.0326585,16.8307383 C14.563747,16.3150959 13.9396619,15.9105473 13.5343734,15.465741 C12.9605333,14.8367239 12.5988932,14.7934455 12.2169085,14.1145534 C11.920371,13.5908349 11.9801717,12.4450041 10.9193565,11.2551551 C10.675345,10.9805034 10.3727041,10.6578878 10.0830715,10.23768 C9.58123877,9.51020756 9.49924399,8.61258052 10.0838729,8.18429652 C10.5523529,7.83991846 11.1086227,7.73264709 11.9916386,7.98165229 C13.0600984,8.282382 13.6783883,8.55358127 14.235398,9.20294292 C14.8065872,9.86876517 15.2873971,10.8310633 15.2873971,10.8310633 C15.2873971,10.8310633 15.6815886,10.8287822 16.0888498,11.235612 C16.243222,11.3892443 16.6842059,11.8040885 16.8604022,11.9604335 C17.2940498,12.3435279 17.1768527,12.2511758 17.3836892,12.4680613 C17.5736951,12.6646021 17.5744966,12.8316126 17.5744966,12.8316126 L18.06104,12.883707 C18.06104,12.883707 18.1024073,12.6293382 18.2813162,12.4454356 C18.460595,12.2611632 18.6444976,12.1680714 18.6444976,12.1680714 C18.6444976,12.1680714 18.5119496,11.956981 18.4728634,11.6424417 C18.4199675,11.2229737 18.5190279,10.0635635 18.1723071,9.32382268 C18.1197265,9.21150303 19.2162191,6.44187258 19.6476848,4.34831087 C19.7005316,4.09188722 19.0524485,2.97924227 19.1045073,2.72992727 C19.3984202,1.32234796 19.4353215,0.726585317 19.5180537,0.396929467 C20.3085751,0.798908839 20.7650571,1.08239797 20.7650571,1.08239797 C20.7650571,1.08239797 26.7014451,8.16604877 28.2317061,8.71418107 C31.3668004,9.98634445 29.7213828,20.8655319 27.9340127,20.6133485 Z" id="路径" transform="translate(19.8361, 10.5073) rotate(-88) translate(-19.8361, -10.5073)"></path>
            </g>
        </g>
    </g>
</svg>