<?xml version="1.0" encoding="UTF-8"?>
<svg width="71px" height="63px" viewBox="0 0 71 63" version="1.1" xmlns="http://www.w3.org/2000/svg" xmlns:xlink="http://www.w3.org/1999/xlink">
    <title>ai-logo@2x</title>
    <g id="ai-logo" stroke="none" stroke-width="1" fill="none" fill-rule="evenodd">
        <path d="M26.5151011,19.3606973 C28.7959241,20.1335231 30.6969463,21.055734 32.2181678,22.1273301 C35.2075294,20.7005379 37.4210516,19.9871418 38.8587345,19.9871418 C41.0152588,19.9871418 41.5974409,20.4329278 42.4656869,21.6783515 C43.0445175,22.5086339 43.1523803,23.8758365 42.7892753,25.7799593 L37.3370242,52.0203156 C37.232111,54.331926 37.8334352,55.4877312 39.1409968,55.4877312 C40.4485583,55.4877312 42.4381805,54.5965255 45.1098634,52.8141141 L51.4027424,26.6732307 C50.4968772,25.8535654 50.0439446,25.0103684 50.0439446,24.1436398 C50.0439446,22.8435469 52.7644422,19.7900104 56.9806205,19.7900104 C61.1967988,19.7900104 63.8319379,23.1919647 63.8319379,24.1436398 C63.8319379,24.1908861 63.8206404,24.2876114 63.7980455,24.4338156 L63.7627698,24.6490565 C63.3754288,26.9124344 61.3612554,36.3007869 57.7202498,52.8141141 C57.7484047,54.5965255 58.3390915,55.4877312 59.4923102,55.4877312 C60.6455289,55.4877312 62.8603394,54.331926 66.1367416,52.0203156 C67.3920804,50.9956757 68.2760174,50.7395157 68.7885527,51.2518357 C69.3010879,51.7641556 68.8818579,53.3482702 67.5308628,56.0041795 C64.3291176,60.3758224 60.386039,62.5616438 55.7016271,62.5616438 C51.0172151,62.5616438 47.9943578,60.6318217 46.6330553,56.7721773 C42.1703082,60.9240591 38.2876362,63 34.9850393,63 C31.6824424,63 29.5185991,62.3780075 28.4935094,61.1340224 C24.4570583,62.3780075 21.0650253,63 18.3174106,63 C14.1959886,63 5.8588543,61.2649592 2.25940852,54.4797276 C-0.140221997,49.9562398 -0.628436352,44.1446818 0.794765459,37.0450535 C2.77662343,30.7682452 6.19252878,25.9980958 11.0424815,22.7346055 C15.8924343,19.4711151 21.0499741,18.3464791 26.5151011,19.3606973 Z M22.7479413,26.7402331 C20.2823885,28.481609 17.2822762,30.9863006 13.7476044,34.2543077 C13.3604673,34.6373482 12.9945699,35.0007236 12.6499122,35.344434 L12.1488554,35.8452508 C10.1274928,37.8705341 8.93580529,39.1276514 8.57379293,39.6166024 C7.90044995,40.5260514 7.48494385,41.0431165 7.81866397,42.262216 C8.04114406,43.074949 8.75080551,43.5811458 9.94764832,43.7808063 L14.1446743,44.0106098 C15.2716527,51.9520407 16.2803214,56.647663 17.1706806,58.0974767 C20.046791,50.9298698 22.5899981,46.3499113 24.8003019,44.3576012 C28.0348928,41.4420254 28.6257329,39.6093318 28.6526302,39.5216665 C28.6536226,39.5183739 28.6622344,39.4836525 28.6712452,39.4248932 L28.6840338,39.3200612 C28.7208159,38.9194296 28.6649093,38.0513944 27.4896993,38.0513944 C26.4711839,38.0513944 24.7367675,37.9702339 22.2864501,37.8079129 L24.8003019,30.5479783 L26.4462705,24.5116138 C26.4462705,24.255984 25.2134941,24.9988571 22.7479413,26.7402331 Z M62,18 C66.9700893,18 71,13.9700893 71,9 C71,4.02991071 66.9700893,0 62,0 C57.0299107,0 53,4.02991071 53,9 C53,13.9700893 57.0299107,18 62,18 Z M61.6142857,5.96450893 C61.8272321,5.80982143 62.1707589,5.80580357 62.3877232,5.96450893 L64.7662946,7.69419643 C64.9792411,7.84888393 65.0877232,8.17433036 65.0053571,8.42946429 L64.0953125,11.2279018 C64.0129464,11.4790179 63.7377232,11.6819196 63.4705357,11.6819196 L60.5294643,11.6819196 C60.2662946,11.6819196 59.9870536,11.4830357 59.9046875,11.2279018 L58.9946429,8.42946429 C58.9122768,8.17834821 59.0167411,7.85089286 59.2337054,7.69419643 L61.6142857,5.96450893 L61.6142857,5.96450893 Z M55.8828125,3.76272321 C56.7084821,2.80044643 57.7551339,2.03504464 58.9464286,1.546875 L58.7535714,1.90446429 C58.6229911,2.12142857 58.6832589,2.4046875 58.8921875,2.53727679 L61.5379464,4.06004464 C61.7950893,4.19464286 62.2129464,4.19263393 62.4680804,4.06004464 L65.1098214,2.53928571 C65.31875,2.4046875 65.3770089,2.12142857 65.2464286,1.90647321 L65.0515625,1.546875 C66.2709821,2.04709821 67.3397321,2.83660714 68.1734375,3.82901786 L67.9564732,3.78883929 C67.709375,3.73058036 67.4602679,3.87522321 67.3979911,4.11629464 L66.7691964,7.10357143 C66.7209821,7.38883929 66.8495536,7.78660714 67.0564732,7.9875 L69.3205357,10.0305804 C69.5133929,10.1892857 69.8006696,10.1571429 69.9654018,9.96428571 L70.0035714,9.92410714 C69.8549107,11.2198661 69.4008929,12.4212054 68.7118304,13.4558036 L68.6013393,12.7366071 C68.5752232,12.4854911 68.35625,12.2946429 68.1091518,12.3147321 L65.0796875,12.6924107 C64.7944196,12.7386161 64.4609375,12.9917411 64.3383929,13.2508929 L63.1430804,16.0553571 C63.0566964,16.2883929 63.1792411,16.5495536 63.4142857,16.6439732 L63.8441964,16.8408482 C63.2535714,16.9794643 62.6368304,17.0517857 62.0020089,17.0517857 C61.3209821,17.0517857 60.6600446,16.9674107 60.0292411,16.8087054 L60.4330357,16.6238839 C60.6680804,16.5294643 60.790625,16.2683036 60.7042411,16.0352679 L59.5089286,13.2308036 C59.3863839,12.9716518 59.0529018,12.7185268 58.7676339,12.6723214 L55.7361607,12.2946429 C55.4890625,12.2745536 55.2700893,12.4654018 55.2439732,12.7165179 L55.1616071,13.2529018 C54.5066964,12.2002232 54.0868304,10.9868304 53.9763393,9.68303571 L54.1671875,9.88392857 C54.3319196,10.0747768 54.6191964,10.1069196 54.8120536,9.95022321 L57.0761161,7.90714286 C57.2810268,7.70625 57.4116071,7.30848214 57.3633929,7.02321429 L56.7325893,4.03794643 C56.6703125,3.796875 56.4191964,3.65223214 56.1741071,3.71049107 L55.8828125,3.76272321 Z" fill="#FFFFFF"></path>
    </g>
</svg>