<svg width="30" height="34" viewBox="0 0 30 34" xmlns="http://www.w3.org/2000/svg">
    <path d="M28.484 4.449H1.541C.689 4.449 0 5.132 0 5.977v3.33c0 .845.689 1.528 1.54 1.528h1.473v15.976C3.013 30.78 6.258 34 10.26 34h9.34c4.002 0 7.248-3.219 7.248-7.19V10.84h1.61c.852 0 1.54-.684 1.54-1.529v-3.33c.026-.85-.667-1.532-1.515-1.532zm-17.38 21.7c0 1.05-.852 1.917-1.932 1.917-1.059 0-1.933-.867-1.933-1.917v-10.84c0-1.05.874-1.916 1.933-1.916 1.059 0 1.932.845 1.932 1.916v10.84zm5.828 0c0 1.05-.852 1.917-1.932 1.917a1.922 1.922 0 0 1-1.933-1.917v-10.84c0-1.05.874-1.916 1.933-1.916 1.058 0 1.932.845 1.932 1.916v10.84zm5.828 0c0 1.05-.852 1.917-1.933 1.917a1.922 1.922 0 0 1-1.932-1.917v-10.84c0-1.05.874-1.916 1.932-1.916 1.06 0 1.933.845 1.933 1.916v10.84zM16.842 0h-3.68a3.27 3.27 0 0 0-3.267 3.082h10.214C20.039 1.366 18.615 0 16.842 0z" fill="#88A6BB" fill-rule="nonzero"/>
</svg>
