<?xml version="1.0" encoding="UTF-8"?>
<svg width="1024px" height="1024px" viewBox="0 0 1024 1024" version="1.1" xmlns="http://www.w3.org/2000/svg" xmlns:xlink="http://www.w3.org/1999/xlink">
    <title>beach volleyball@2x</title>
    <g id="beach-volleyball" stroke="none" stroke-width="1" fill="none" fill-rule="evenodd">
        <rect id="矩形备份" fill-opacity="0" fill="#D8D8D8" x="0" y="0" width="1029" height="1024"></rect>
        <path d="M297.384615,707 C334.335508,707 366.112637,719.900446 394.536401,746.49375 C409.738324,760.725446 421.90625,776.827232 433.690934,792.390179 C461.060783,828.555804 478.210852,849.031696 512.383242,849.031696 C522.379464,849.031696 531.098214,847.288393 539.082418,843.706696 C559.042926,834.8 574.691964,814.070536 591.26717,792.136607 C619.914492,754.227679 655.587912,707.031696 726.998626,707.031696 C798.473214,707.031696 835.136676,755.685714 861.867788,791.217411 C890.163805,828.555804 907.34581,849.031696 941.230769,849.031696 C960.999657,849.031696 977,864.911607 977,884.531696 C977,904.151786 960.999657,920 941.230769,920 C869.979739,920 834.242445,872.867411 805.563187,834.990179 C778.57658,799.141518 760.915522,778 726.998626,778 C693.017857,778 675.867788,798.507589 648.49794,834.704911 C628.218063,861.551786 605.191621,891.980357 568.560096,908.335714 C551.473901,916.037946 532.535371,920 512.383242,920 C440.84478,920 405.17136,872.867411 376.492102,835.021875 C366.048764,821.233929 356.212225,808.206696 345.449519,798.158929 C330.343407,784.054018 315.971841,778.031696 297.384615,778.031696 C263.116415,778.031696 245.455357,799.204911 219.426854,833.722321 C189.757555,872.867411 154.020261,920 82.7692308,920 C63.0003434,920 47,904.120089 47,884.5 C47,864.879911 63.0003434,849 82.7692308,849 C116.65419,849 133.836195,828.524107 161.269918,792.326786 C188.895261,755.654018 225.526786,707 297.384615,707 Z M797.649878,315.482581 C817.452638,315.482581 836.744359,317.357187 855.71668,320.153208 C861.242289,320.979305 866.065219,324.537878 868.396834,329.58978 C882.194886,359.297506 892.319846,390.784519 898.548133,424.050818 C888.550933,423.00231 878.873133,422.271532 869.227273,422.271532 C672.828612,422.271532 512.585958,580.977514 511.5,776 C505.048133,769.58186 495.402273,756.078348 490.387703,749.660208 C477.483969,732.566351 462.855479,712.994202 443.148539,694.851836 C434.013718,686.304907 424.655317,678.83826 414.913636,672.261255 C409.707427,668.766228 406.673133,662.729364 407.471631,656.533635 C432.161201,464.30717 597.642005,315.482581 797.649878,315.482581 Z M147.097281,400.125772 C230.268872,421.794937 304.082062,470.375807 356.974594,538.687692 C360.360227,543.040588 361.126786,548.855042 359.24233,554.034036 C349.37289,581.422335 342.186404,609.954462 337.618994,639.376232 C324.36392,637.247443 310.789448,635.817659 296.831696,635.817659 C248.602394,635.817659 210.817451,650.59209 181.177192,670.60906 C173.192208,676.010465 161.981291,673.119125 157.733279,664.476877 C132.213271,612.71871 118,554.669495 118,493.442983 C118,465.705181 121.193994,438.666384 126.975122,412.390138 C128.923458,403.52548 138.249919,397.838118 147.097281,400.125772 Z M869.227273,493.442983 C881.045049,493.442983 892.830885,494.523264 905,495.921275 C904.680601,556.162825 890.43539,613.195305 865.170901,664.222694 C860.92289,672.801395 849.775852,675.692736 841.790869,670.354877 C812.246429,650.560317 774.717005,635.785886 726.487703,635.785886 C696.048945,635.785886 669.890138,641.473248 647.340544,650.687409 C632.360714,656.787819 618.339083,640.933107 626.898985,627.27073 C677.459903,546.821572 767.17918,493.442983 869.227273,493.442983 Z M216.34306,245.836232 C312.162865,252.317918 400.668425,292.447179 467.710349,359.456371 C474.002516,365.747419 473.619237,375.946542 467.35901,382.301136 C445.001055,404.828171 424.942776,429.611088 407.567451,456.300382 C401.786323,465.16504 389.681088,466.308867 382.334903,458.651582 C325.385998,399.394994 253.585024,356.120209 174.310106,333.65672 C164.408726,330.828926 159.106696,319.994343 163.897687,310.939047 C174.821144,290.223071 187.469359,270.555603 201.84233,252.254372 C205.259903,247.901476 210.817451,245.454957 216.34306,245.836232 Z M511.5,102 C633.829951,102 743.320049,157.888653 815.536242,245.296092 C809.563474,245.041908 803.718466,244.342903 797.681818,244.342903 C704.672727,244.342903 618.083563,271.762976 545.356331,318.723424 C538.840584,322.949229 530.472321,321.932494 525.106412,316.340452 C466.017532,254.669118 391.948823,211.267242 310.246469,189.598077 C296.544237,185.975958 294.052922,167.579409 306.126218,160.144534 C365.917776,123.414981 436.185633,102 511.5,102 Z" id="形状结合" fill="#000000"></path>
    </g>
</svg>