<?xml version="1.0" encoding="UTF-8"?>
<svg width="1024px" height="1024px" viewBox="0 0 1024 1024" version="1.1" xmlns="http://www.w3.org/2000/svg" xmlns:xlink="http://www.w3.org/1999/xlink">
    <title>beach volleyball@2x</title>
    <g id="beach-volleyball" stroke="currentColor" stroke-width="1" fill="#000" fill-rule="evenodd">
        <path d="M297.384615,731 C334.335508,731 366.112637,743.900446 394.536401,770.49375 C409.738324,784.725446 421.90625,800.827232 433.690934,816.390179 C461.060783,852.555804 478.210852,873.031696 512.383242,873.031696 C522.379464,873.031696 531.098214,871.288393 539.082418,867.706696 C559.042926,858.8 574.691964,838.070536 591.26717,816.136607 C619.914492,778.227679 655.587912,731.031696 726.998626,731.031696 C798.473214,731.031696 835.136676,779.685714 861.867788,815.217411 C890.163805,852.555804 907.34581,873.031696 941.230769,873.031696 C960.999657,873.031696 977,888.911607 977,908.531696 C977,928.151786 960.999657,944 941.230769,944 C869.979739,944 834.242445,896.867411 805.563187,858.990179 C778.57658,823.141518 760.915522,802 726.998626,802 C693.017857,802 675.867788,822.507589 648.49794,858.704911 C628.218063,885.551786 605.191621,915.980357 568.560096,932.335714 C551.473901,940.037946 532.535371,944 512.383242,944 C440.84478,944 405.17136,896.867411 376.492102,859.021875 C366.048764,845.233929 356.212225,832.206696 345.449519,822.158929 C330.343407,808.054018 315.971841,802.031696 297.384615,802.031696 C263.116415,802.031696 245.455357,823.204911 219.426854,857.722321 C189.757555,896.867411 154.020261,944 82.7692308,944 C63.0003434,944 47,928.120089 47,908.5 C47,888.879911 63.0003434,873 82.7692308,873 C116.65419,873 133.836195,852.524107 161.269918,816.326786 C188.895261,779.654018 225.526786,731 297.384615,731 Z M303.869,610.424027 C318.24525,624.198262 360.771125,662.320895 425.788875,698.263766 C470.061323,722.733965 516.171324,741.357038 562.929937,753.657381 L562.274728,754.41919 C538.598001,788.742719 521.890424,805.904484 512.151999,805.904484 C497.544361,805.904484 479.34492,775.29894 448.982272,737.55177 C428.740506,712.386989 405.693289,691.734414 379.84062,675.594045 C345.675883,658.055653 314.060585,648.556308 284.994725,647.09601 C282.415614,646.966433 279.812917,646.8963 277.186633,646.885609 C285.914586,634.445898 294.850271,622.268865 303.869,610.424027 Z M406.265,490.583536 C406.8215,491.000938 407.47075,491.418339 408.073625,491.83574 C410.80975,493.412588 475.224625,531.256954 563.0125,565.251953 C614.767,585.287205 663.9245,599.803488 709.001,608.290643 C741.046125,614.31977 771.1435,617.334333 799.107625,617.334333 C815.19975,617.334333 830.549875,616.31402 845.111625,614.366148 C837.365632,630.159353 828.539801,645.330534 818.66769,659.816301 C794.506688,651.335769 772.487666,647.09601 752.610279,647.09601 C700.198798,647.09601 652.251764,671.02422 633.525347,682.155906 C627.762927,685.581305 619.600295,692.557541 609.037449,703.084616 L608.0556,704.066431 C603.112268,709.025933 597.657649,714.741826 591.691741,721.214111 C532.736164,708.042642 482.922298,686.129261 445.359125,665.474592 C378.44,628.696919 336.05325,588.580036 327.566625,580.232015 C355.206125,546.097881 382.61375,515.581224 406.265,490.583536 Z M446.472125,273.859616 C458.11225,302.382024 469.706,333.269704 480.140375,365.548722 C463.816375,380.018626 428.3395,412.344022 385.489,457.052316 C339.663579,504.895502 277.908749,575.049181 226.743502,653.263996 C219.658762,654.993908 212.433018,657.075717 205.067669,659.509358 C191.400748,639.423634 179.742862,618.001887 170.169875,595.397587 L169.196,593.032315 C221.04325,458.768298 296.217125,378.117132 350.70775,333.826239 C391.9815,300.295018 427.783,282.068504 446.472125,273.859616 Z M505.832125,393.746484 C524.0575,401.027814 563.569,416.193387 616.0655,433.028564 C681.871625,454.130508 780.928625,481.725358 880.49575,494.015501 C877.295875,521.471217 871.128,548.370398 861.899375,574.434777 C859.302375,573.785487 856.519875,573.692731 853.691,574.249266 C783.525625,587.977124 687.94675,572.626039 577.296,529.865617 C507.316125,502.780924 451.43425,472.449778 433.5335,462.385774 C466.227875,429.457466 492.847125,405.248203 505.832125,393.746484 Z M367.4955,109.171698 C376.3995,124.893806 402.926,173.219576 431.58575,238.658791 C410.717,247.748859 372.504,267.227577 328.308625,302.845803 C290.142,333.640728 255.268,370.23289 224.56775,411.694731 C196.4645,449.67823 171.88575,491.83574 151.10975,537.51797 C144.385375,509.366585 141,480.426777 141,450.976811 C141,400.888681 150.8315,352.284643 170.21625,306.556035 C188.905375,262.357897 215.617375,222.704794 249.703,188.617039 C283.74225,154.575661 323.3465,127.861991 367.4955,109.171698 Z M729.545125,150.40165 C745.464936,161.935286 760.444681,174.713838 774.343375,188.617039 C808.382625,222.704794 835.141,262.357897 853.830125,306.556035 C873.1685,352.284643 883,400.888681 883,450.976811 C883,452.600038 883,454.223264 882.953625,455.84649 C849.378125,451.626102 815.75625,445.643353 783.201,438.64029 C785.287875,295.703606 755.83975,203.689856 729.545125,150.40165 Z M552.856375,82.1797612 C588.51875,86.0755047 623.20725,95.0728171 656.41175,109.078942 C657.15375,109.403588 657.942125,109.728233 658.684125,110.052878 C659.611625,112.835552 661.188375,115.432715 663.414375,117.658854 C663.599875,117.890743 684.004875,138.760798 704.27075,186.993812 C723.423625,232.629664 745.82275,311.425714 745.1735,429.828489 C709.46475,421.109444 675.657375,411.509219 645.420875,402.140884 C650.707625,335.263954 623.76375,248.351772 606.88325,201.788362 C590.234625,155.874242 570.293375,112.093506 552.856375,82.1797612 Z M505.832125,80 C520.857625,98.736671 548.311625,152.16401 570.989,214.774173 C596.30975,284.665667 609.155625,346.116382 607.857125,390.08263 C564.264625,375.612726 531.894875,363.044315 517.611375,357.339834 C477.728875,233.047065 422.820875,129.856241 403.8535,95.9539971 C436.77975,85.8899931 470.91175,80.5565348 505.832125,80 Z" id="形状结合" fill="#000000" fill-rule="nonzero"></path>
    </g>
</svg>