<?xml version="1.0" encoding="UTF-8"?>
<svg width="1024px" height="1024px" viewBox="0 0 1024 1024" version="1.1" xmlns="http://www.w3.org/2000/svg" xmlns:xlink="http://www.w3.org/1999/xlink">
    <title>beach volleyball@2x</title>
    <g id="beach-volleyball" stroke="currentColor" stroke-width="1" fill="none" fill-rule="evenodd">
        <rect id="矩形备份" fill-opacity="0" fill="#D8D8D8" x="0" y="0" width="1029" height="1024"></rect>
        <g id="编组" transform="translate(47.000000, 102.000000)" fill="#88a6bb">
            <g transform="translate(71.000000, 0.000000)" id="路径">
                <path d="M407.106412,214.340452 C412.472321,219.932494 420.840584,220.949229 427.356331,216.723424 C500.083563,169.762976 586.672727,142.342903 679.681818,142.342903 C685.718466,142.342903 691.563474,143.041908 697.536242,143.296092 C625.320049,55.8886532 515.829951,0 393.5,0 C318.185633,0 247.917776,21.4149814 188.126218,58.144534 C176.052922,65.5794089 178.544237,83.9759581 192.246469,87.5980767 C273.948823,109.267242 348.017532,152.669118 407.106412,214.340452 Z"></path>
                <path d="M238.974594,436.687692 C242.360227,441.040588 243.126786,446.855042 241.24233,452.034036 C231.37289,479.422335 224.186404,507.954462 219.618994,537.376232 C206.36392,535.247443 192.789448,533.817659 178.831696,533.817659 C130.602394,533.817659 92.8174513,548.59209 63.1771916,568.60906 C55.1922078,574.010465 43.9812906,571.119125 39.7332792,562.476877 C14.2132711,510.71871 0,452.669495 0,391.442983 C0,363.705181 3.19399351,336.666384 8.97512175,310.390138 C10.9234578,301.52548 20.2499188,295.838118 29.0972808,298.125772 C112.268872,319.794937 186.082062,368.375807 238.974594,436.687692 Z"></path>
                <path d="M349.710349,257.456371 C282.668425,190.447179 194.162865,150.317918 98.3430601,143.836232 C92.8174513,143.454957 87.2599026,145.901476 83.8423295,150.254372 C69.4693588,168.555603 56.8211445,188.223071 45.8976867,208.939047 C41.1066964,217.994343 46.4087256,228.828926 56.3101055,231.65672 C135.585024,254.120209 207.385998,297.394994 264.334903,356.651582 C271.681088,364.308867 283.786323,363.16504 289.567451,354.300382 C306.942776,327.611088 327.001055,302.828171 349.35901,280.301136 C355.619237,273.946542 356.002516,263.747419 349.710349,257.456371 Z"></path>
                <path d="M780.548133,322.050818 C770.550933,321.00231 760.873133,320.271532 751.227273,320.271532 C554.828612,320.271532 394.585958,478.977514 393.5,674 C387.048133,667.58186 377.402273,654.078348 372.387703,647.660208 C359.483969,630.566351 344.855479,610.994202 325.148539,592.851836 C316.013718,584.304907 306.655317,576.83826 296.913636,570.261255 C291.707427,566.766228 288.673133,560.729364 289.471631,554.533635 C314.161201,362.30717 479.642005,213.482581 679.649878,213.482581 C699.452638,213.482581 718.744359,215.357187 737.71668,218.153208 C743.242289,218.979305 748.065219,222.537878 750.396834,227.58978 C764.194886,257.297506 774.319846,288.784519 780.548133,322.050818 Z"></path>
                <path d="M787,393.921275 C786.680601,454.162825 772.43539,511.195305 747.170901,562.222694 C742.92289,570.801395 731.775852,573.692736 723.790869,568.354877 C694.246429,548.560317 656.717005,533.785886 608.487703,533.785886 C578.048945,533.785886 551.890138,539.473248 529.340544,548.687409 C514.360714,554.787819 500.339083,538.933107 508.898985,525.27073 C559.459903,444.821572 649.17918,391.442983 751.227273,391.442983 C763.045049,391.442983 774.830885,392.523264 787,393.921275 Z"></path>
            </g>
            <path d="M894.230769,818 C822.979739,818 787.242445,770.867411 758.563187,732.990179 C731.57658,697.141518 713.915522,676 679.998626,676 C646.017857,676 628.867788,696.507589 601.49794,732.704911 C581.218063,759.551786 558.191621,789.980357 521.560096,806.335714 C504.473901,814.037946 485.535371,818 465.383242,818 C393.84478,818 358.17136,770.867411 329.492102,733.021875 C319.048764,719.233929 309.212225,706.206696 298.449519,696.158929 C283.343407,682.054018 268.971841,676.031696 250.384615,676.031696 C216.116415,676.031696 198.455357,697.204911 172.426854,731.722321 C142.757555,770.867411 107.020261,818 35.7692308,818 C16.0003434,818 0,802.120089 0,782.5 C0,762.879911 16.0003434,747 35.7692308,747 C69.6541896,747 86.8361951,726.524107 114.269918,690.326786 C141.895261,653.654018 178.526786,605 250.384615,605 C287.335508,605 319.112637,617.900446 347.536401,644.49375 C362.738324,658.725446 374.90625,674.827232 386.690934,690.390179 C414.060783,726.555804 431.210852,747.031696 465.383242,747.031696 C475.379464,747.031696 484.098214,745.288393 492.082418,741.706696 C512.042926,732.8 527.691964,712.070536 544.26717,690.136607 C572.914492,652.227679 608.587912,605.031696 679.998626,605.031696 C751.473214,605.031696 788.136676,653.685714 814.867788,689.217411 C843.163805,726.555804 860.34581,747.031696 894.230769,747.031696 C913.999657,747.031696 930,762.911607 930,782.531696 C930,802.151786 913.999657,818 894.230769,818 Z" id="路径"></path>
        </g>
    </g>
</svg>