<?xml version="1.0" encoding="UTF-8"?>
<svg width="1024px" height="1024px" viewBox="0 0 1024 1024" version="1.1" xmlns="http://www.w3.org/2000/svg" xmlns:xlink="http://www.w3.org/1999/xlink">
    <title>beach volleyball@2x</title>
    <g id="beach-volleyball" stroke="none" stroke-width="1" fill="none" fill-rule="evenodd">
        <rect id="矩形" fill-opacity="0" fill="#D8D8D8" x="0" y="0" width="1024" height="1024"></rect>
        <path d="M297.384615,707 C334.335508,707 366.112637,719.900446 394.536401,746.49375 C409.738324,760.725446 421.90625,776.827232 433.690934,792.390179 C461.060783,828.555804 478.210852,849.031696 512.383242,849.031696 C522.379464,849.031696 531.098214,847.288393 539.082418,843.706696 C559.042926,834.8 574.691964,814.070536 591.26717,792.136607 C619.914492,754.227679 655.587912,707.031696 726.998626,707.031696 C798.473214,707.031696 835.136676,755.685714 861.867788,791.217411 C890.163805,828.555804 907.34581,849.031696 941.230769,849.031696 C960.999657,849.031696 977,864.911607 977,884.531696 C977,904.151786 960.999657,920 941.230769,920 C869.979739,920 834.242445,872.867411 805.563187,834.990179 C778.57658,799.141518 760.915522,778 726.998626,778 C693.017857,778 675.867788,798.507589 648.49794,834.704911 C628.218063,861.551786 605.191621,891.980357 568.560096,908.335714 C551.473901,916.037946 532.535371,920 512.383242,920 C440.84478,920 405.17136,872.867411 376.492102,835.021875 C366.048764,821.233929 356.212225,808.206696 345.449519,798.158929 C330.343407,784.054018 315.971841,778.031696 297.384615,778.031696 C263.116415,778.031696 245.455357,799.204911 219.426854,833.722321 C189.757555,872.867411 154.020261,920 82.7692308,920 C63.0003434,920 47,904.120089 47,884.5 C47,864.879911 63.0003434,849 82.7692308,849 C116.65419,849 133.836195,828.524107 161.269918,792.326786 C188.895261,755.654018 225.526786,707 297.384615,707 Z M800.649878,310.482581 C820.452638,310.482581 839.744359,312.357187 858.71668,315.153208 C864.242289,315.979305 869.065219,319.537878 871.396834,324.58978 C885.194886,354.297506 895.319846,385.784519 901.548133,419.050818 C891.550933,418.00231 881.873133,417.271532 872.227273,417.271532 C675.828612,417.271532 515.585958,575.977514 514.5,771 C508.048133,764.58186 498.402273,751.078348 493.387703,744.660208 C480.483969,727.566351 465.855479,707.994202 446.148539,689.851836 C437.013718,681.304907 427.655317,673.83826 417.913636,667.261255 C412.707427,663.766228 409.673133,657.729364 410.471631,651.533635 C435.161201,459.30717 600.642005,310.482581 800.649878,310.482581 Z M150.097281,395.125772 C233.268872,416.794937 307.082062,465.375807 359.974594,533.687692 C363.360227,538.040588 364.126786,543.855042 362.24233,549.034036 C352.37289,576.422335 345.186404,604.954462 340.618994,634.376232 C327.36392,632.247443 313.789448,630.817659 299.831696,630.817659 C251.602394,630.817659 213.817451,645.59209 184.177192,665.60906 C176.192208,671.010465 164.981291,668.119125 160.733279,659.476877 C135.213271,607.71871 121,549.669495 121,488.442983 C121,460.705181 124.193994,433.666384 129.975122,407.390138 C131.923458,398.52548 141.249919,392.838118 150.097281,395.125772 Z M872.227273,488.442983 C884.045049,488.442983 895.830885,489.523264 908,490.921275 C907.680601,551.162825 893.43539,608.195305 868.170901,659.222694 C863.92289,667.801395 852.775852,670.692736 844.790869,665.354877 C815.246429,645.560317 777.717005,630.785886 729.487703,630.785886 C699.048945,630.785886 672.890138,636.473248 650.340544,645.687409 C635.360714,651.787819 621.339083,635.933107 629.898985,622.27073 C680.459903,541.821572 770.17918,488.442983 872.227273,488.442983 Z M219.34306,240.836232 C315.162865,247.317918 403.668425,287.447179 470.710349,354.456371 C477.002516,360.747419 476.619237,370.946542 470.35901,377.301136 C448.001055,399.828171 427.942776,424.611088 410.567451,451.300382 C404.786323,460.16504 392.681088,461.308867 385.334903,453.651582 C328.385998,394.394994 256.585024,351.120209 177.310106,328.65672 C167.408726,325.828926 162.106696,314.994343 166.897687,305.939047 C177.821144,285.223071 190.469359,265.555603 204.84233,247.254372 C208.259903,242.901476 213.817451,240.454957 219.34306,240.836232 Z M514.5,97 C636.829951,97 746.320049,152.888653 818.536242,240.296092 C812.563474,240.041908 806.718466,239.342903 800.681818,239.342903 C707.672727,239.342903 621.083563,266.762976 548.356331,313.723424 C541.840584,317.949229 533.472321,316.932494 528.106412,311.340452 C469.017532,249.669118 394.948823,206.267242 313.246469,184.598077 C299.544237,180.975958 297.052922,162.579409 309.126218,155.144534 C368.917776,118.414981 439.185633,97 514.5,97 Z" id="形状结合" fill="#000000"></path>
    </g>
</svg>