<svg width="48" height="49" viewBox="0 0 48 49" xmlns="http://www.w3.org/2000/svg">
    <path d="m45.764 13.778-.056-.121a7.277 7.277 0 0 0-5.4-4.04 7.467 7.467 0 0 0-1.92-.074 7.472 7.472 0 0 0-.07-1.922 7.279 7.279 0 0 0-4.039-5.4l-.117-.057A7.358 7.358 0 0 0 23.585 8.56l-.317 10.276v.034a2.83 2.83 0 0 0-.396.27L8.148 30.937l-.144.126a6.267 6.267 0 0 0-.982 7.562L2.01 43.639a1.74 1.74 0 0 0 2.46 2.46l5.06-5.06a6.272 6.272 0 0 0 7.33-1.123l.07-.07 11.845-14.814c.102-.12.194-.248.274-.383h.035l10.281-.304a7.36 7.36 0 0 0 6.4-10.567zm-16.771-3.741a2.472 2.472 0 0 1 3.55-2.151l.076.036a2.472 2.472 0 0 1 .667 3.97l-4.5 4.471.207-6.326zm-2.456 8.803.1.1-.1-.1zM14.763 35.899l-2.74-2.74.988-.79 2.548 2.548-.796.982zm-4.012 1.305a2.066 2.066 0 0 1-.239-2.58l2.82 2.819a2.064 2.064 0 0 1-2.581-.23v-.009zm6.6-4.212-2.434-2.433 8.17-6.529.8.8-6.537 8.162zm20.553-14.047-6.37.209 4.505-4.507a2.455 2.455 0 0 1 2.169-.693 2.459 2.459 0 0 1 1.824 1.362l.036.078a2.488 2.488 0 0 1-2.16 3.559l-.004-.008z" fill="#000" fill-rule="nonzero"/>
</svg>
