<?xml version="1.0" encoding="UTF-8"?>
<svg width="1024px" height="1024px" viewBox="0 0 1024 1024" version="1.1" xmlns="http://www.w3.org/2000/svg" xmlns:xlink="http://www.w3.org/1999/xlink">
    <title>虚拟篮球@2x</title>
    <g id="虚拟篮球" stroke="currentColor" stroke-width="1" fill="#000" fill-rule="evenodd">
        <rect id="矩形备份" fill-opacity="0" fill="#D8D8D8" x="0" y="0" width="1024" height="1024"></rect>
        <path d="M840.691142,488 C850.997327,513.167074 859.216182,539.246944 866,565.848411 C835.130808,575.970995 805.65942,589.140083 777.948101,605.012711 C773.639894,604.959732 769.294606,605.064277 764.922218,605.332976 C680.290994,610.548562 614.585543,675.486279 614.771545,753.720066 C544.974035,756.643733 490.955753,811.209045 494.133299,875.588473 C495.862432,910.9752 514.508219,941.956253 542.538985,962.204678 L542.33363,963.95762 C542.203172,964.870416 542.072714,966.565607 542.072714,967.869601 C539.202638,968 536.332561,968 533.332026,968 C361.388344,968 211.622527,872.808476 134,732.237979 C386.697202,716.459658 632.34967,630.526487 840.691142,488 Z M982.729343,587.594942 C974.378426,637.886742 957.715398,685.411104 934.259618,728.758855 C933.136169,722.562291 931.602427,716.512738 929.690003,710.629625 L929.69004,712.729833 C929.69004,673.323434 925.901519,634.699943 918.977669,597.12033 C938.834748,592.553363 961.827155,589.291244 982.729343,587.594942 Z M110.54915,340 C200.23112,432.69294 324.637112,486.405304 453.220431,486.405304 C572.79639,486.405304 685.714736,440.906238 771.872087,363.336197 C790.670054,389.54053 807.640442,416.918192 822,445.729922 C615.875066,588.484871 372.806904,673.877101 121.775714,687.696302 C119.55651,687.826672 115.770808,688.348151 112.898896,689 C89.7930612,634.505417 77,574.665671 77,511.697049 C77,450.944714 89.0098125,392.930146 110.54915,340 Z M875.607612,609.605711 C877.444687,619.910721 879.037235,630.301327 880.362801,640.770042 C870.271781,632.782907 859.11603,625.950901 847.150971,620.462541 C856.468971,616.51601 865.960388,612.893123 875.607612,609.605711 Z M971.755695,387.170339 C982.990621,426.837708 989,468.723319 989,511.783292 C989,521.961104 988.608084,532.138916 987.954891,542.186243 C986.779142,542.055758 985.08084,542.055758 984.297008,542.055758 C958.561188,543.75206 933.478562,547.666603 909.049129,553.277448 C900.949531,521.830619 890.629075,491.166699 878.087762,461.677141 C909.702322,438.581337 941.970076,413.006323 971.755695,387.170339 Z M327.06609,106 C495.998616,131.963092 645.755017,210.504708 744.114187,328.186665 C665.844291,399.813487 562.919377,442.34599 453.602422,442.34599 C332.544983,442.34599 220.358131,393.159629 137.522491,303.919654 C136.348443,302.745443 133.608997,300.397023 131,298.440006 C174.961592,215.853888 243.578201,148.402035 327.06609,106 Z M881.223091,217.931596 C912.576373,254.98927 938.181554,297.005365 956.470969,342.805518 C953.988834,343.979881 950.853506,346.067637 949.155203,347.50297 C920.153417,373.077984 890.106521,397.478636 859.145154,420.443955 C843.207235,389.258095 824.656543,359.507568 803.884993,331.583828 C834.193167,298.571182 860.843457,259.164783 881.223091,217.931596 Z M532.548459,56 C655.610094,56 767.175525,104.670818 849.216615,183.614102 C847.518312,185.571374 845.68937,188.703008 844.644261,190.921249 C826.746762,229.675225 803.2318,264.906112 775.667039,295.961487 C683.436132,186.876221 551.752345,106.36712 404,74.2678674 C444.759268,62.3937536 487.870031,56 532.548459,56 Z" id="形状结合" fill="#000000" fill-rule="nonzero"></path>
        <g id="云1" transform="translate(553.000000, 653.000000)" fill="#000000" fill-rule="nonzero">
            <path d="M327.775008,314.90005 L103.328649,314.90005 C48.7915262,317.298811 2.56274633,276.229102 0.104154863,223.129238 C-2.3786588,170.04149 39.8291743,125.046534 94.3662971,122.635657 C94.2209618,58.123502 145.560705,4.57538512 211.688328,0.274574723 C277.815952,-4.01412048 336.010683,42.4104009 344.670253,106.377382 C400.406392,114.736704 440.095078,163.535757 435.662347,218.259025 C431.229616,272.994408 384.18938,315.142349 327.787119,314.90005 L327.775008,314.90005 Z" id="路径"></path>
        </g>
    </g>
</svg>