<?xml version="1.0" encoding="UTF-8"?>
<svg width="1024px" height="1024px" viewBox="0 0 1024 1024" version="1.1" xmlns="http://www.w3.org/2000/svg" xmlns:xlink="http://www.w3.org/1999/xlink">
    <title>虚拟足球@2x</title>
    <g id="虚拟足球" stroke="currentColor" stroke-width="1" fill="#000" fill-rule="evenodd">
        <rect id="矩形备份" fill-opacity="0" fill="#D8D8D8" x="0" y="0" width="1024" height="1024"></rect>
        <path d="M512,56 C763.837337,56 968,260.162663 968,512 C968,579.846544 953.181933,644.232874 926.605676,702.099114 C922.275736,691.228179 916.625922,681.000268 909.850394,671.558413 C932.002145,626.820011 942.930322,578.09962 942.266468,523.70971 C929.844734,539.007886 917.366757,549.549486 912.328965,565.996633 L909.630962,574.814792 L906.936069,583.634999 C900.51583,604.64481 894.069753,625.652731 887.224076,646.520664 C880.4631,640.514063 873.142552,635.062243 865.35289,630.228996 C874.48183,601.580706 883.735631,572.96809 892.923847,544.336185 C893.567469,542.331339 894.368234,540.377003 894.789689,539.367266 L894.894824,539.115974 C894.973928,538.927201 895.03092,538.791417 895.059503,538.719119 C896.188423,533.795772 894.51272,531.38083 892.829232,529.244929 L892.460657,528.779681 C892.175594,528.419949 891.89627,528.063596 891.636603,527.699527 C867.364245,493.724077 842.896851,459.875402 818.839034,425.734171 C813.914349,418.751845 808.86289,419.083408 801.685528,421.404349 C765.184349,433.223593 728.644162,444.95507 691.840676,455.769872 C683.044506,458.354113 679.338803,462.752198 676.764314,470.992512 C661.52217,519.810279 645.909457,568.520776 630.004187,617.124002 C628.044065,623.111639 628.161088,627.431709 631.983813,632.473416 C638.604645,641.198544 645.213505,649.931902 651.809979,658.674321 C645.146981,666.080953 639.255422,674.089159 634.241399,682.593637 C626.928459,672.788933 619.64441,662.959745 612.376679,653.119338 C607.632231,646.692944 602.566949,644.067942 594.439165,644.204053 C542.716902,645.079053 490.994639,645.565165 439.272377,645.779054 C431.339037,645.808221 425.865422,648.054056 420.829307,654.383227 C396.650121,684.813807 372.208435,715.020775 347.445916,744.965243 C342.380634,751.090248 341.5348,755.319418 346.658415,761.969423 C371.735941,794.504682 396.496391,827.28311 420.936251,860.300055 C426.098755,867.280616 431.591815,870.275063 440.361266,870.100063 C458.237563,869.747591 476.118408,869.790896 494.000691,869.853448 C493.994612,871.755947 494.038503,873.667843 494.133299,875.588473 C494.371878,880.471002 494.932508,885.269657 495.795403,889.967821 C481.175141,889.846994 466.557071,889.555242 451.952758,889.062408 C424.035431,888.12401 399.861495,897.844585 371.179171,908.513757 C419.091695,923.501376 465.989461,931.098101 512.58109,931.231166 C521.895287,945.245147 534.316384,957.267968 548.917838,966.524055 C536.741653,967.50272 524.428887,968 512,968 C260.162663,968 56,763.837337 56,512 C56,260.162663 260.162663,56 512,56 Z M214.215691,419.88576 C211.403157,420.057804 209.640992,422.23925 207.975121,424.626505 L207.631519,425.122764 C207.231523,425.70378 206.833303,426.289539 206.423443,426.854677 C181.772493,460.826921 157.22936,494.877577 132.480394,528.771408 C128.236314,534.583739 126.83469,539.562937 129.402701,547.139551 C145.153825,593.657805 160.199236,640.411297 175.195639,687.184392 C177.440199,694.202317 180.919756,698.534611 188.300339,700.52433 C227.153765,710.982606 265.977786,721.568302 304.63518,732.693084 C311.055209,734.545581 314.779806,733.937884 318.92587,728.752853 C344.792215,696.397869 370.834988,664.180106 397.034586,632.089764 C401.072834,627.139971 401.102238,623.042914 399.004702,617.054154 C382.028382,568.546182 365.444124,519.891185 349.026494,471.187181 C346.144832,462.640211 342.037974,457.533593 332.471641,454.975383 C302.792485,447.055714 273.49559,437.724619 244.051672,428.922808 C234.42653,426.041146 224.820991,423.100675 214.215691,419.88576 Z M84.4013527,523.585438 C73.2922604,580.474287 110.91516,690.672299 155.826139,732.75975 C143.421924,659.138887 123.802029,587.987605 84.4013527,523.585438 Z M679.390326,165.484792 C672.508306,160.287778 666.307862,159.113954 658.45081,161.897054 C619.809261,175.566431 581.129846,189.150611 542.374701,202.488667 C534.404053,205.233902 530.617522,208.812174 530.835248,218.420496 C531.611486,253.578437 531.507357,288.764776 530.85418,323.932183 C530.683786,332.868397 534.157928,337.563695 541.030482,342.050734 C581.707292,368.61325 622.242107,395.39349 662.701191,422.296793 C668.541915,426.187454 673.634799,427.153019 680.687213,424.852702 C716.072346,413.322715 751.599473,402.228179 787.287528,391.663757 C795.5327,389.221445 798.49566,385.633707 798.221137,377.047747 C797.615292,358.124559 798.03181,339.172971 798.03181,320.230849 L798.240069,320.230849 C798.240069,316.550341 798.223787,312.869454 798.202431,309.188567 L798.156275,301.826906 C798.079142,289.557844 798.028655,277.291587 798.41993,265.042159 C798.684987,256.512998 795.740959,251.486378 788.783208,246.459758 C752.015992,219.87831 715.589563,192.833013 679.390326,165.484792 Z M371.176131,161.623777 C363.790303,158.784525 358.470244,160.095675 352.254075,164.708279 C312.089512,194.534571 271.736295,224.134476 231.166124,253.404236 C225.129177,257.762157 223.355824,262.459657 223.440719,269.48704 C223.884057,305.59553 224.138741,341.713451 223.902923,377.82194 C223.846326,386.245368 226.478058,390.037325 234.816591,392.376642 C271.519342,402.686616 308.061737,413.590851 344.528669,424.730905 C350.886329,426.674047 355.574396,425.95716 360.969917,422.306694 C401.077884,395.16873 441.18585,368.021334 481.727722,341.543662 C489.717244,336.327363 491.839608,330.47907 491.575492,321.73493 C491.075557,305.038998 491.434001,288.314769 491.434001,271.609405 L491.547194,271.609405 C491.547194,254.366375 491.094423,237.095047 491.726416,219.870882 C492.065994,210.485316 489.198444,205.523701 479.907205,202.222245 C443.478003,189.195646 407.294053,175.471024 371.176131,161.623777 Z M681.319584,116.463756 C682.467534,118.692333 683.532625,120.958706 684.590217,123.215821 L685.118738,124.343389 C688.906991,132.415643 692.760245,140.26833 700.145967,145.736486 C735.027253,171.548966 769.965937,197.279449 804.699629,223.280521 C817.204087,232.644514 832.09464,234.046654 849.568082,239.876601 C803.707472,180.371783 749.056844,139.676949 681.319584,116.463756 Z M349.790775,112.541867 C278.807922,135.095722 222.73224,175.391429 177.786731,235.954711 C200.587752,230.980504 220.07521,226.330703 236.92881,212.636187 C252.342328,200.106267 268.56956,188.572299 284.813116,177.06737 L289.685875,173.615795 C293.745586,170.738597 297.801335,167.857172 301.840661,164.956409 C320.81834,151.331409 340.159043,138.138948 349.790775,112.541867 Z" id="形状结合" fill="#000000" fill-rule="nonzero"></path>
        <g id="云1" transform="translate(553.000000, 653.000000)" fill="#000000" fill-rule="nonzero">
            <path d="M327.775008,314.90005 L103.328649,314.90005 C48.7915262,317.298811 2.56274633,276.229102 0.104154863,223.129238 C-2.3786588,170.04149 39.8291743,125.046534 94.3662971,122.635657 C94.2209618,58.123502 145.560705,4.57538512 211.688328,0.274574723 C277.815952,-4.01412048 336.010683,42.4104009 344.670253,106.377382 C400.406392,114.736704 440.095078,163.535757 435.662347,218.259025 C431.229616,272.994408 384.18938,315.142349 327.787119,314.90005 L327.775008,314.90005 Z" id="路径"></path>
        </g>
    </g>
</svg>