<?xml version="1.0" encoding="UTF-8"?>
<svg width="24px" height="30px" viewBox="0 0 24 30" version="1.1" xmlns="http://www.w3.org/2000/svg" xmlns:xlink="http://www.w3.org/1999/xlink">
    <title>3B7479D3-72E0-4FDB-B390-B266A643D2F4</title>
    <defs>
        <linearGradient x1="78.7271591%" y1="94.1901712%" x2="20.9347963%" y2="8.12463199%" id="linearGradient-1">
            <stop stop-color="#00C8FF" offset="0%"></stop>
            <stop stop-color="#006BFF" offset="100%"></stop>
        </linearGradient>
    </defs>
    <g id="1.3直播调整" stroke="none" stroke-width="1" fill="none" fill-rule="evenodd">
        <g id="1.0直播新增视频" transform="translate(-41.000000, -1381.000000)">
            <rect fill="#F4F5FA" x="0" y="0" width="750" height="2995"></rect>
            <path d="M49.5766915,1381 L56.4402639,1381 L56.4402639,1384.42522 L49.5766915,1384.42522 L49.5766915,1381 Z M61.9536254,1391.00188 L63.7285902,1388.96437 L61.1406858,1386.71402 L59.3282151,1388.81435 C57.5326221,1387.67604 55.3460304,1387.00094 53.0019142,1387.00094 C50.6577979,1387.00094 48.4712062,1387.67604 46.6268556,1388.84341 L46.6756132,1388.81435 L44.8631425,1386.73933 L42.2752381,1388.98969 L44.050203,1391.00281 C42.0811804,1393.1999 40.994711,1396.04783 41.0000194,1398.99812 C41.0000194,1405.62635 46.373691,1411 53.0019142,1411 C59.6301373,1411 65.0038021,1405.62635 65.0038021,1398.99812 C65.0080872,1396.04277 63.9178247,1393.19052 61.9433112,1390.99156 L61.9536254,1391.00188 Z M53.0019142,1399.00281 L47.4885527,1404.49086 C46.0344968,1403.03485 45.2188686,1401.06054 45.2213179,1399.00281 C45.2213179,1394.70839 48.7028049,1391.22691 52.9972259,1391.22691 L53.0019142,1391.22691 L53.0019142,1399.00281 L53.0019142,1399.00281 Z" id="形状" fill="url(#linearGradient-1)"></path>
        </g>
    </g>
</svg>