<svg width="49" height="49" viewBox="0 0 49 49" xmlns="http://www.w3.org/2000/svg">
    <g fill="none" fill-rule="evenodd" fill="#000">
        <path fill="none" d="M0 .016h48.234v48H0z"/>
        <path d="M24 2.078c12.116 0 21.938 9.822 21.938 21.938a21.938 21.938 0 1 1-43.875 0C2.063 11.9 11.884 2.078 24 2.078zm8.974 22.952H15.026c0 4.954 4.018 8.97 8.974 8.97s8.974-4.016 8.974-8.97zm-16.951-9.967a2.99 2.99 0 1 0-.002 5.981 2.99 2.99 0 0 0 .002-5.981zm15.954 0a2.99 2.99 0 1 0-.001 5.981 2.99 2.99 0 0 0 .001-5.981z" fill="#000"/>
    </g>
</svg>
