<svg width="28" height="28" viewBox="0 0 28 28" xmlns="http://www.w3.org/2000/svg">
    <g fill="none" fill-rule="evenodd">
        <path fill="#F4F5FA" d="M-41-375h750v2995H-41z"/>
        <path d="M19.422.412c.206-.412.826-.515 1.24-.31.413.31.413.927.206 1.34l-1.653 2.47h4.236c2.582 0 4.649 2.264 4.545 4.94V23.06c0 2.676-2.066 4.941-4.649 4.941H4.65C2.066 28 0 25.735 0 23.059V8.853c0-2.677 2.066-4.941 4.649-4.941h4.235L7.232 1.544c-.31-.515-.104-1.03.206-1.338.413-.309.93-.206 1.24.206l2.48 3.5h5.888zm3.925 5.97c-27.893-.103-27.79 19.147 0 19.147 1.343 0 2.377-1.132 2.377-2.47V8.853c0-1.338-1.137-2.47-2.377-2.47zm-12.21 4.423c.318-.195.742-.097 1.272.194l5.621 3.79c.425.292.637.68.637 1.167 0 .486-.212.874-.637 1.166l-5.62 3.79c-.213.195-.531.292-.85.292-.212 0-.424 0-.53-.097-.318-.195-.53-.68-.53-1.167v-7.969c0-.486.318-.972.636-1.166z" fill="#F7602D" fill-rule="nonzero"/>
    </g>
</svg>
