<?xml version="1.0" encoding="UTF-8"?>
<svg width="450px" height="691px" viewBox="0 0 450 691" version="1.1" xmlns="http://www.w3.org/2000/svg" xmlns:xlink="http://www.w3.org/1999/xlink">
    <!-- Generator: Sketch 55.2 (78181) - https://sketchapp.com -->
    <title>足球场</title>
    <desc>Created with Sketch.</desc>
    <g id="Y第三方数据" stroke="none" stroke-width="1" fill="none" fill-rule="evenodd">
        <g id="Y第三方数据/03阵容-PC端" transform="translate(-40.000000, -190.000000)">
            <g id="编组-3" transform="translate(0.000000, 75.000000)">
                <g id="编组" transform="translate(40.000000, 115.000000)">
                    <g id="足球场">
                        <rect id="矩形" opacity="0.800000012" x="0" y="0" width="450" height="345" rx="10"></rect>
                        <rect id="矩形" fill="#155614" opacity="0.800000012" x="0" y="0" width="450" height="691" rx="10"></rect>
                        <path d="M10,0 L440,0 C445.522847,-1.01453063e-15 450,4.4771525 450,10 L450,115 L0,115 L0,10 C-6.76353751e-16,4.4771525 4.4771525,1.01453063e-15 10,0 Z" id="矩形" fill="#155614" opacity="0.800000012"></path>
                        <rect id="矩形备份-3" fill="#155614" opacity="0.800000012" x="0" y="230" width="450" height="115"></rect>
                        <rect id="矩形备份-5" fill="#155614" opacity="0.800000012" x="0" y="460" width="450" height="115"></rect>
                        <path d="M273.284313,582.183044 L346.256024,582.183044 L346.256024,675.71869 L436.075301,675.71869 L436.075301,345.78131 L285.303851,345.78131 C284.959807,378.39183 258.379881,404.72158 225.641566,404.72158 C192.903251,404.72158 166.323325,378.39183 165.979282,345.78131 L13.9246988,345.78131 L13.9246988,675.71869 L105.027108,675.71869 L105.027108,582.183044 L177.99882,582.183044 L178.299116,581.792732 C189.524738,567.202177 206.860699,558.478805 225.641566,558.478805 C244.422434,558.478805 261.758394,567.202177 272.984016,581.792732 L273.284313,582.183044 Z M273.284313,106.816956 L272.984016,107.207268 C261.758394,121.797823 244.422434,130.521195 225.641566,130.521195 C206.860699,130.521195 189.524738,121.797823 178.299116,107.207268 L177.99882,106.816956 L105.027108,106.816956 L105.027108,13.2813102 L13.9246988,13.2813102 L13.9246988,344.5 L165.979282,344.5 C166.323325,311.88948 192.903251,285.55973 225.641566,285.55973 C258.379881,285.55973 284.959807,311.88948 285.303851,344.5 L436.075301,344.5 L436.075301,13.2813102 L346.256024,13.2813102 L346.256024,106.816956 L273.284313,106.816956 Z M284.020644,344.5 C283.676659,312.597143 257.671221,286.84104 225.641566,286.84104 C193.611912,286.84104 167.606473,312.597143 167.262489,344.5 L284.020644,344.5 Z M284.020644,345.78131 L167.262489,345.78131 C167.606473,377.684167 193.611912,403.44027 225.641566,403.44027 C257.671221,403.44027 283.676659,377.684167 284.020644,345.78131 Z M437.358434,344.5 L438,344.5 L438,345.78131 L437.358434,345.78131 L437.358434,677 L12.6415663,677 L12.6415663,345.78131 L12,345.78131 L12,344.5 L12.6415663,344.5 L12.6415663,12 L437.358434,12 L437.358434,344.5 Z M166.61747,13.2813102 L106.310241,13.2813102 L106.310241,105.535645 L344.972892,105.535645 L344.972892,13.2813102 L284.665663,13.2813102 L284.665663,36.344894 L166.61747,36.344894 L166.61747,13.2813102 Z M284.665663,675.71869 L344.972892,675.71869 L344.972892,583.464355 L106.310241,583.464355 L106.310241,675.71869 L166.61747,675.71869 L166.61747,652.655106 L284.665663,652.655106 L284.665663,675.71869 Z M167.900602,653.936416 L167.900602,675.71869 L283.38253,675.71869 L283.38253,653.936416 L167.900602,653.936416 Z M167.900602,13.2813102 L167.900602,35.0635838 L283.38253,35.0635838 L283.38253,13.2813102 L167.900602,13.2813102 Z M225.641566,129.239884 C243.57277,129.239884 260.155804,121.114703 271.154917,107.457611 L180.128216,107.457611 C191.127329,121.114703 207.710363,129.239884 225.641566,129.239884 Z M225.641566,559.760116 C207.710363,559.760116 191.127329,567.885297 180.128216,581.542389 L271.154917,581.542389 C260.155804,567.885297 243.57277,559.760116 225.641566,559.760116 Z" id="形状结合" fill="#FFFFFF" fill-rule="nonzero" opacity="0.200000003"></path>
                    </g>
                </g>
            </g>
        </g>
    </g>
</svg>