<?xml version="1.0" encoding="UTF-8"?>
<svg width="38px" height="38px" viewBox="0 0 38 38" version="1.1" xmlns="http://www.w3.org/2000/svg" xmlns:xlink="http://www.w3.org/1999/xlink">
    <title>足球-w-icon-2@2x</title>
    <g id="足球-w-icon-2" stroke="none" stroke-width="1" fill="none" fill-rule="evenodd">
        <path d="M19,38 C29.4924107,38 38,29.4924107 38,19 C38,8.50758929 29.4924107,0 19,0 C8.50758929,0 0,8.50758929 0,19 C0,29.4924107 8.50758929,38 19,38 Z M25.692451,2.63191964 C28.3664598,3.72883594 30.7100722,5.46011348 32.538266,7.63632493 L32.0624951,7.5482192 C31.5206449,7.4204659 30.9743894,7.73764652 30.8378255,8.26628088 L29.4589709,14.8169417 C29.353244,15.4424923 29.6351823,16.314739 30.0889268,16.7552677 L35.0536845,21.2354439 C35.476592,21.5834615 36.1065479,21.5129769 36.4677814,21.0900694 L36.5514819,21.0019637 C36.2254907,23.8433734 35.229896,26.4777346 33.7188827,28.7464571 L33.476592,27.1693646 C33.4193233,26.6187038 32.9391471,26.2002016 32.3972968,26.2442544 L25.754125,27.0724483 C25.1285744,27.1737699 24.3972968,27.7288359 24.1285744,28.2971179 L21.507429,34.4468976 C21.3180017,34.9579108 21.5867242,35.5305981 22.1021427,35.7376465 L23.0448739,36.1693646 C21.7497198,36.4733293 20.3972968,36.6319196 19.0052264,36.6319196 C17.5118343,36.6319196 16.0624951,36.4468976 14.6792352,36.09888 L15.5646977,35.6935937 C16.0801162,35.4865452 16.3488387,34.913858 16.1594114,34.4028448 L13.538266,28.253065 C13.2695435,27.6847831 12.538266,27.129717 11.9127153,27.0283954 L5.26513826,26.2002016 C4.72328803,26.1561487 4.24311182,26.5746509 4.1858431,27.1253117 L4.00522636,28.3015232 C2.56910301,25.9931531 1.64839817,23.3323602 1.40610742,20.4733293 L1.82460962,20.913858 C2.1858431,21.3323602 2.81579905,21.4028448 3.23870654,21.0592324 L8.20346425,16.5790562 C8.65280345,16.1385276 8.93914707,15.2662809 8.83342019,14.6407302 L7.45016028,8.09447471 C7.3135964,7.56584035 6.76293561,7.24865973 6.22549068,7.37641303 L5.58672416,7.49095048 C7.39729685,5.38081832 9.69245103,3.70240422 12.3047858,2.63191964 L11.8818783,3.41606061 C11.5955347,3.89183154 11.7276933,4.51297691 12.1858431,4.80372581 L17.9876052,8.14293286 C18.5514819,8.43808704 19.4677814,8.43368176 20.0272528,8.14293286 L25.8202043,4.8081311 C26.2783541,4.51297691 26.4061074,3.89183154 26.1197638,3.4204659 L25.692451,2.63191964 Z M19.7973694,12.7444329 C19.3511656,12.4180431 18.6446763,12.4263062 18.2067355,12.7444329 L13.3108883,16.3016688 C12.8646845,16.6239271 12.6498456,17.2973643 12.8192378,17.8138038 L14.6908148,23.5690065 C14.860207,24.0937091 15.4344878,24.5027293 15.9757165,24.5027293 L22.0242569,24.5027293 C22.5737486,24.5027293 23.1397664,24.0854461 23.3091585,23.5690065 L25.1807356,17.8138038 C25.3501278,17.2891012 25.1270259,16.6197955 24.6890851,16.3016688 Z" id="形状" fill="#96A5AA" fill-rule="nonzero"></path>
    </g>
</svg>