<?xml version="1.0" encoding="UTF-8"?>
<svg width="38px" height="38px" viewBox="0 0 38 38" version="1.1" xmlns="http://www.w3.org/2000/svg" xmlns:xlink="http://www.w3.org/1999/xlink">
    <title>篮球-w-icon-2@2x</title>
    <g id="篮球-w-icon-2" stroke="none" stroke-width="1" fill="none" fill-rule="evenodd">
        <path d="M21.847625,5.01125 C22.621875,7.184375 23.163375,9.768375 23.4365,12.594625 C25.688,12.67775 27.816,12.93425 29.81575,13.364125 C29.903625,12.789375 30.03425,12.285875 30.17675,11.86075 C30.597125,10.59725 31.2835,9.497625 32.164625,8.67825 C32.763125,8.1225 33.423375,7.71875 34.112125,7.483625 C33.5965449,6.80809745 33.0363792,6.16779469 32.435375,5.567 C30.68975,3.821375 28.659125,2.453375 26.39575,1.49625 C24.070625,0.510625 21.603,0.007125 19.057,0 C20.170875,1.254 21.106625,2.93075 21.847625,5.01125 Z M35.3875,9.59025 C34.18575,9.687625 32.957875,10.925 32.402125,12.597 C32.278625,12.9675 32.167,13.41875 32.102875,13.94125 C34.16675,14.551625 36.073875,15.36625 37.821875,16.380375 C37.5964739,14.7371446 37.1540295,13.1310872 36.506125,11.60425 C36.2105518,10.9086311 35.8751203,10.2306312 35.5015,9.573625 C35.465875,9.58075 35.427875,9.5855 35.3875,9.59025 L35.3875,9.59025 Z M9.899,7.911125 C11.71825,8.922875 13.015,10.509375 13.6515,12.502 C13.720772,12.7212961 13.7817735,12.9431195 13.834375,13.167 C15.8365,12.87725 17.776875,12.689625 19.646,12.6065 C20.128125,12.5875 20.6055,12.57325 21.078125,12.5685 C20.816875,10.03675 20.327625,7.733 19.638875,5.79975 C18.698375,3.161125 17.401625,1.275375 15.891125,0.349125 C15.85075,0.325375 15.815125,0.29925 15.7795,0.27075 C14.34975,0.515375 12.95325,0.923875 11.60425,1.493875 C9.340875,2.451 7.31025,3.821375 5.564625,5.564625 C5.21483875,5.9146982 4.87891403,6.27835256 4.557625,6.65475 C6.604875,6.657125 8.398,7.0775 9.899,7.911125 L9.899,7.911125 Z M37.973875,19.244625 C36.1855,18.023875 34.24275,17.097625 32.193125,16.423125 C32.281,16.91 32.416375,17.425375 32.606375,17.971625 C33.385375,20.197 34.92675,22.39625 37.18775,24.51475 C37.703125,22.819 37.97625,21.059125 38,19.26125 C37.9907739,19.2565674 37.9820244,19.2509996 37.973875,19.244625 L37.973875,19.244625 Z M21.27525,15.439875 C21.268125,15.26175 21.261,15.083625 21.253875,14.907875 C18.8765,14.936375 16.470625,15.1525 14.090875,15.501625 C14.086125,16.000375 14.048125,16.508625 13.9745,17.02875 C13.748875,18.631875 13.20025,20.251625 12.347625,21.847625 C10.55925,25.18925 7.59525,28.12475 3.762,30.3525 C4.310625,31.086375 4.9115,31.78225 5.567,32.435375 C7.312625,34.181 9.34325,35.549 11.606625,36.506125 C13.2335,37.194875 14.931625,37.646125 16.67725,37.859875 C19.8265,31.623125 21.546,23.24175 21.27525,15.439875 L21.27525,15.439875 Z M11.511625,13.547 C11.483125,13.435375 11.45225,13.32375 11.416625,13.2145 C10.433375,10.134125 7.388625,8.626 3.059,9.079625 C2.96875,9.089125 2.880875,9.089125 2.793,9.07725 C2.29676883,9.88556986 1.8624846,10.7303202 1.493875,11.60425 C0.836,13.16225 0.391875,14.782 0.168625,16.446875 C4.120625,15.16675 7.911125,14.19775 11.511625,13.547 L11.511625,13.547 Z M36.20925,26.792375 C33.328375,24.246375 31.371375,21.5365 30.39525,18.745875 C30.01525,17.65575 29.81575,16.651125 29.742125,15.7415 C27.756625,15.287875 25.6975,15.03375 23.60275,14.9435 C23.6075,15.08125 23.614625,15.219 23.619375,15.35675 C23.75475,19.25175 23.415125,23.3985 22.63375,27.35525 C21.866625,31.24075 20.717125,34.815125 19.216125,38 C21.705125,37.9715 24.1205,37.470375 26.398125,36.5085 C28.6615,35.551375 30.692125,34.181 32.43775,32.43775 C34.059875,30.815625 35.359,28.94175 36.301875,26.868375 C36.268625,26.844625 36.23775,26.820875 36.20925,26.792375 Z M10.279,20.740875 C11.150625,19.111625 11.64225,17.439625 11.72775,15.891125 C7.711625,16.62975 3.8285,17.705625 0.3515,18.855125 C0.237899287,18.8921294 0.119452345,18.9121373 0,18.9145 L0,19 C0,21.565 0.5035,24.054 1.493875,26.39575 C1.783625,27.07975 2.111375,27.74475 2.477125,28.386 C6.899375,25.84475 9.160375,22.83325 10.279,20.740875 L10.279,20.740875 Z" id="形状" fill="#96A5AA" fill-rule="nonzero"></path>
    </g>
</svg>