<?xml version="1.0" encoding="UTF-8"?>
<svg width="38px" height="38px" viewBox="0 0 38 38" version="1.1" xmlns="http://www.w3.org/2000/svg" xmlns:xlink="http://www.w3.org/1999/xlink">
    <title>羽毛球-w-icon-2@2x</title>
    <g id="羽毛球-w-icon-2" stroke="none" stroke-width="1" fill="none" fill-rule="evenodd">
        <path d="M-0.579018192,8.83661575 L7.65627593,30.7440232 C8.36215828,29.7810602 9.77392298,29.058838 11.4209818,28.8180972 L7.89157004,9.07735649 C7.89157004,6.66994908 6.0092171,4.74402316 3.65627593,4.74402316 C1.30333475,4.74402316 -0.579018192,6.66994908 -0.579018192,8.83661575 L-0.579018192,8.83661575 Z M22.9816621,31.0895632 L31.2169562,9.38314116 C31.2169562,6.99782005 29.3346033,5.08956317 26.9816621,5.08956317 C24.6287209,5.08956317 22.746368,6.99782005 22.746368,9.38314116 L19.2169562,29.1813063 C20.864015,29.4198384 22.2757797,30.1354347 22.9816621,31.0895632 Z M9.85599115,8.64875427 L13.3559911,28.2957959 L17.3559911,28.2957959 L20.8559911,8.64875427 C20.8559911,5.73808143 18.3559911,3.31252073 15.1059911,3.31252073 C12.3559911,3.06996466 9.85599115,5.49552536 9.85599115,8.64875427 L9.85599115,8.64875427 Z M22.5771201,33.2567818 C22.5771201,31.5067818 19.7914058,30.2567818 16.0771201,30.2567818 C12.3628344,30.2567818 9.57712012,31.5067818 9.57712012,33.2567818 C9.57712012,37.0067818 12.5949773,40.2567818 16.0771201,40.2567818 C19.559263,40.2567818 22.5771201,37.0067818 22.5771201,33.2567818 Z" fill="#96A5AA" fill-rule="nonzero" transform="translate(15.318969, 21.776289) rotate(44.000000) translate(-15.318969, -21.776289) "></path>
    </g>
</svg>