<?xml version="1.0" encoding="UTF-8"?>
<svg width="40px" height="40px" viewBox="0 0 40 40" version="1.1" xmlns="http://www.w3.org/2000/svg" xmlns:xlink="http://www.w3.org/1999/xlink">
    <title>brazil</title>
    <g id="icon" stroke="none" stroke-width="1" fill="none" fill-rule="evenodd">
        <g id="icon-48" transform="translate(-127, -698)" fill-rule="nonzero">
            <g id="brazil" transform="translate(127, 698)">
                <g id="编组" fill="#699635">
                    <path d="M39.3939394,16.5333333 C37.7914741,7.13333333 29.5788392,0 19.6969697,0 C9.81510015,0 1.60246533,7.13333333 0,16.5333333 L19.6969697,6.66666667 L39.3939394,16.5333333 Z" id="路径"></path>
                    <path d="M0,23.4666667 C1.60246533,32.8666667 9.81510015,40 19.6969697,40 C29.5788392,40 37.7914741,32.8666667 39.3939394,23.4666667 L19.6969697,33.3333333 L0,23.4666667 Z" id="路径"></path>
                </g>
                <path d="M20,6.66666667 L0.333333333,16.5333333 C0.133333333,17.6666667 0,18.8 0,20 C0,21.2 0.133333333,22.3333333 0.333333333,23.4666667 L20,33.3333333 L39.6666667,23.4666667 C39.8666667,22.3333333 40,21.2 40,20 C40,18.8 39.8666667,17.6666667 39.6666667,16.5333333 L20,6.66666667" id="路径" fill="#FFE62E"></path>
                <g id="编组" transform="translate(9.697, 10.303)" fill="#428BC1">
                    <path d="M6,7.6 C3.86666667,7.6 1.86666667,8.06666667 0.0666666667,8.86666667 C0,9.26666667 0,9.6 0,10 C0,15.5333333 4.46666667,20 10,20 C13.7333333,20 17,17.9333333 18.7333333,14.9333333 C16.2666667,10.6 11.4666667,7.6 6,7.6" id="路径"></path>
                    <path d="M19.8666667,11.6 C19.9333333,11.0666667 20,10.5333333 20,10 C20,4.46666667 15.5333333,0 10,0 C6.06666667,0 2.66666667,2.26666667 1,5.6 C2.6,5.13333333 4.26666667,4.86666667 6,4.86666667 C11.6666667,4.86666667 16.6666667,7.53333333 19.8666667,11.6" id="路径"></path>
                </g>
                <g id="编组" transform="translate(9.697, 14.5455)" fill="#FFFFFF">
                    <path d="M5.99326599,0 C4.24242424,0 2.55892256,0.272241128 0.942760943,0.748663102 C0.471380471,1.76956733 0.134680135,2.85853184 0,4.08361692 C1.81818182,3.26689353 3.83838384,2.79047156 5.99326599,2.79047156 C11.5151515,2.79047156 16.3636364,5.78512397 18.8552189,10.2090423 C19.4612795,9.18813807 19.7979798,8.03111327 20,6.87408848 C16.7676768,2.72241128 11.7171717,0 5.99326599,0" id="路径"></path>
                    <ellipse id="椭圆形" cx="3.2996633" cy="5.24064171" rx="1" ry="1"></ellipse>
                    <ellipse id="椭圆形" cx="5.99326599" cy="9.32425863" rx="1" ry="1"></ellipse>
                    <ellipse id="椭圆形" cx="10.03367" cy="9.32425863" rx="1" ry="1"></ellipse>
                    <ellipse id="椭圆形" cx="10.03367" cy="12.0466699" rx="1" ry="1"></ellipse>
                    <ellipse id="椭圆形" cx="15.4208754" cy="9.32425863" rx="1" ry="1"></ellipse>
                    <ellipse id="椭圆形" cx="15.4208754" cy="12.0466699" rx="1" ry="1"></ellipse>
                    <ellipse id="椭圆形" cx="12.7272727" cy="10.6854643" rx="1" ry="1"></ellipse>
                    <ellipse id="椭圆形" cx="3.2996633" cy="7.96305299" rx="1" ry="1"></ellipse>
                </g>
            </g>
        </g>
    </g>
</svg>