<?xml version="1.0" encoding="UTF-8"?>
<svg width="20px" height="20px" viewBox="0 0 20 20" version="1.1" xmlns="http://www.w3.org/2000/svg" xmlns:xlink="http://www.w3.org/1999/xlink">
    <title>brazil-real</title>
    <g id="icon" stroke="none" stroke-width="1" fill="none" fill-rule="evenodd">
        <g id="icon-48" transform="translate(-137, -782)" fill="#000000" fill-rule="nonzero">
            <g id="brazil-real" transform="translate(137, 782)">
                <path d="M15.1198162,0 C15.8086224,0 16.3685852,0.539458961 16.3685852,1.20213256 L16.3685852,2.99690647 C18.4002626,3.3626012 19.4950213,4.57947739 19.6244119,6.61831106 L19.6402779,6.7478444 C19.6424664,6.76416771 19.6435606,6.78022774 19.6430135,6.79655104 C19.6359011,7.47949714 19.0682788,8.01448035 18.3512966,8.01448035 C17.6641317,8.01448035 17.1060838,7.4976634 17.0803698,6.83762259 L17.0770872,6.78207069 L17.0739755,6.76373988 L17.0718897,6.74521161 C17.0262064,6.15651945 16.799431,5.75633515 16.3680381,5.51701441 L16.3680381,8.60896465 C16.8322574,8.7548213 17.2469636,8.90199434 17.603403,9.04837754 C18.1242477,9.26242348 18.5668563,9.52807214 18.9189189,9.83847825 C19.2805559,10.1575726 19.5554765,10.5572303 19.7352008,11.0263937 C19.9110953,11.4847627 20,12.0466004 20,12.6966366 C20,13.3092872 19.8900317,13.8890278 19.6728307,14.419272 C19.4545355,14.9532021 19.1347522,15.4263148 18.7222344,15.8251826 C18.3113579,16.2232607 17.8085677,16.5426183 17.228362,16.7740407 C16.9679396,16.8782992 16.6796148,16.9599158 16.3680381,17.0183637 L16.3680381,18.7981307 C16.3685852,19.4608043 15.8080753,20 15.1198162,20 C14.4304629,20 13.8705001,19.460541 13.8705001,18.7978674 L13.8705001,17.0099388 C11.5882482,16.6123873 10.3673816,15.1422366 10.2399059,12.6350293 C10.2467447,11.9165405 10.8023307,11.3931416 11.5308021,11.3931416 C12.233833,11.3931416 12.8055586,11.9407622 12.8055586,12.613967 L12.8061057,12.7208583 C12.8408469,13.6115316 13.1822409,14.1823208 13.8710472,14.475877 L13.8710472,10.8110314 C13.4347303,10.6757059 13.0490207,10.539064 12.7215779,10.403212 C12.2228909,10.1970644 11.801893,9.94036727 11.4700733,9.64128217 C11.1281322,9.33324557 10.8731809,8.95254393 10.7139731,8.50918186 C10.5602363,8.0795103 10.4814531,7.54163101 10.4814531,6.91055091 C10.4814531,6.32949385 10.5854032,5.78871849 10.7897472,5.30375831 C10.9957326,4.81642862 11.297735,4.38702034 11.6889156,4.02685447 C12.0768137,3.66958468 12.5508808,3.38497992 13.0988073,3.18172843 C13.3357041,3.09352992 13.5944852,3.02402422 13.8705001,2.97373791 L13.8705001,1.20213256 C13.8702265,0.539195682 14.4307364,0 15.1198162,0 Z M3.9410767,2.61962746 C5.96235912,2.61962746 7.29127913,2.99243072 8.25172338,3.82886856 C9.06198709,4.51681696 9.5103403,5.54597512 9.5103403,6.72335944 C9.5103403,8.30882643 9.01630375,9.37747647 7.76397855,10.4561311 L9.95376956,16.0897782 C10.0216107,16.2667018 9.99589671,16.463108 9.88592844,16.616863 C9.77267754,16.7729876 9.58967064,16.864872 9.39517453,16.864872 L7.59136667,16.864872 C7.34106576,16.864872 7.11593172,16.7126966 7.03058321,16.4862766 L5.05361637,11.2325413 L2.93631688,11.2325413 L2.93631688,16.2909235 C2.93631688,16.607385 2.66878214,16.8653985 2.33997155,16.8653985 L0.596618886,16.8653985 C0.267808294,16.8653985 0,16.6076483 0,16.2909235 L0,3.20437043 C0,2.88869874 0.266987635,2.63094846 0.594704016,2.63015863 L3.9410767,2.61962746 Z M16.3685852,11.6177187 L16.3685852,14.5472257 C16.592625,14.4687685 16.7780939,14.362667 16.9222563,14.2297111 C17.2658387,13.9143026 17.4398184,13.4664648 17.4398184,12.8990983 C17.4398184,12.6597775 17.4064449,12.4588955 17.3407922,12.3025077 C17.2836197,12.1663924 17.1627093,12.0376489 16.9813437,11.9194366 C16.8273334,11.8193905 16.6221687,11.7182913 16.3685852,11.6177187 Z M4.06143998,5.05969855 L2.93686399,5.06101494 L2.93686399,8.81116304 L4.12435715,8.81116304 C5.6354634,8.81116304 6.57429697,8.08503916 6.57429697,6.91634305 C6.57429697,6.46376621 6.57429697,5.08734286 4.06143998,5.05969855 Z M13.8699529,5.46620154 C13.7717475,5.51069572 13.6792866,5.56150859 13.5947587,5.61890344 C13.4229675,5.73448299 13.2867382,5.88481538 13.1888062,6.06542487 C13.0911478,6.24603436 13.0413612,6.46218653 13.0413612,6.70808925 C13.0413612,7.00322517 13.071452,7.17935892 13.0968924,7.27492924 C13.1231535,7.37128941 13.2063136,7.4710722 13.3441843,7.56927532 C13.4653682,7.65615744 13.6418098,7.74488251 13.8699529,7.83413414 L13.8699529,5.46620154 Z" id="形状"></path>
            </g>
        </g>
    </g>
</svg>