<?xml version="1.0" encoding="UTF-8"?>
<svg width="351px" height="539px" viewBox="0 0 351 539" version="1.1" xmlns="http://www.w3.org/2000/svg" xmlns:xlink="http://www.w3.org/1999/xlink">
    <!-- Generator: Sketch 55.2 (78181) - https://sketchapp.com -->
    <title>篮球场</title>
    <desc>Created with Sketch.</desc>
    <defs>
        <rect id="path-1" x="0" y="0" width="351" height="539" rx="10"></rect>
    </defs>
    <g id="Y第三方数据" stroke="none" stroke-width="1" fill="none" fill-rule="evenodd">
        <g id="Y第三方数据/02阵容-空数据备份" transform="translate(-12.000000, -106.000000)">
            <g id="篮球场" transform="translate(12.000000, 106.000000)">
                <mask id="mask-2" fill="white">
                    <use xlink:href="#path-1"></use>
                </mask>
                <use id="矩形" fill="#F5C678" xlink:href="#path-1"></use>
                <g id="编组-25" opacity="0.5" mask="url(#mask-2)">
                    <g transform="translate(-1.000000, 1.000000)">
                        <rect id="矩形" fill="#E7B056" x="0" y="496" width="18" height="42"></rect>
                        <rect id="矩形" fill="#F1BD71" transform="translate(9.000000, 369.500000) scale(1, -1) translate(-9.000000, -369.500000) " x="0" y="243" width="18" height="253"></rect>
                        <rect id="矩形备份-47" fill="#E7B056" x="18" y="279" width="18" height="204"></rect>
                        <rect id="矩形备份-50" fill="#E7B056" x="72" y="39" width="18" height="141"></rect>
                        <rect id="矩形备份-48" fill="#F1BD71" x="36" y="0" width="18" height="317"></rect>
                        <rect id="矩形备份-49" fill="#F1BD71" x="54" y="136.5" width="18" height="141"></rect>
                    </g>
                </g>
                <g id="编组-25备份" opacity="0.5" mask="url(#mask-2)">
                    <g transform="translate(89.000000, 1.000000)">
                        <rect id="矩形" fill="#E7B056" x="0" y="496" width="18" height="42"></rect>
                        <rect id="矩形" fill="#F1BD71" transform="translate(9.000000, 369.500000) scale(1, -1) translate(-9.000000, -369.500000) " x="0" y="243" width="18" height="253"></rect>
                        <rect id="矩形备份-47" fill="#E7B056" x="18" y="337" width="18" height="146"></rect>
                        <rect id="矩形备份-50" fill="#E7B056" x="72" y="39" width="18" height="108"></rect>
                        <rect id="矩形备份-48" fill="#F1BD71" x="36" y="0" width="18" height="317"></rect>
                        <rect id="矩形备份-49" fill="#F1BD71" x="54" y="136.5" width="18" height="141"></rect>
                    </g>
                </g>
                <g id="编组-25备份-2" opacity="0.5" mask="url(#mask-2)">
                    <g transform="translate(179.000000, 1.000000)">
                        <rect id="矩形" fill="#E7B056" x="0" y="496" width="18" height="42"></rect>
                        <rect id="矩形" fill="#F1BD71" transform="translate(9.000000, 369.500000) scale(1, -1) translate(-9.000000, -369.500000) " x="0" y="243" width="18" height="253"></rect>
                        <rect id="矩形备份-47" fill="#E7B056" x="18" y="279" width="18" height="152"></rect>
                        <rect id="矩形备份-50" fill="#E7B056" x="72" y="39" width="18" height="204"></rect>
                        <rect id="矩形备份-48" fill="#F1BD71" x="36" y="0" width="18" height="317"></rect>
                        <rect id="矩形备份-49" fill="#F1BD71" x="54" y="136.5" width="18" height="141"></rect>
                    </g>
                </g>
                <g id="编组-25备份-3" opacity="0.5" mask="url(#mask-2)">
                    <g transform="translate(269.000000, 1.000000)">
                        <rect id="矩形" fill="#E7B056" x="0" y="496" width="18" height="42"></rect>
                        <rect id="矩形" fill="#F1BD71" transform="translate(9.000000, 369.500000) scale(1, -1) translate(-9.000000, -369.500000) " x="0" y="243" width="18" height="253"></rect>
                        <rect id="矩形备份-47" fill="#E7B056" x="18" y="330" width="18" height="153"></rect>
                        <rect id="矩形备份-50" fill="#E7B056" x="72" y="39" width="18" height="204"></rect>
                        <rect id="矩形备份-48" fill="#F1BD71" x="36" y="0" width="18" height="317"></rect>
                        <rect id="矩形备份-49" fill="#F1BD71" x="54" y="136.5" width="18" height="141"></rect>
                    </g>
                </g>
                <rect id="矩形" fill="#C08946" opacity="0.5" mask="url(#mask-2)" x="136" y="13" width="81" height="109"></rect>
                <polygon id="矩形备份" fill="#C08946" opacity="0.5" mask="url(#mask-2)" points="135.996982 417 216.996982 417 217 526 136 526"></polygon>
                <path d="M102.0148,268 C102.813715,227.547176 135.855957,195 176.5,195 C217.144043,195 250.186285,227.547176 250.9852,268 L339,268 L339,13 L297,13 L297,49 C297,115.27417 243.27417,169 177,169 C176.895937,169 176.791905,168.999868 176.687904,168.999603 L176.687893,168.999603 C176.625293,168.999868 176.562662,169 176.5,169 C176.247487,169 175.995476,168.997848 175.743985,168.993563 C110.048359,168.319878 57,114.854993 57,49 L57,13 L11,13 L11,268 L102.0148,268 Z M105.015422,268 L247.984578,268 C247.186155,229.204157 215.487138,198 176.5,198 C137.512862,198 105.813845,229.204157 105.015422,268 Z M102.0148,271 L11,271 L11,526 L57,526 L57,490 C57,424.145007 110.048359,370.680122 175.743985,370.006437 C175.995476,370.002152 176.247487,370 176.5,370 C176.562662,370 176.625293,370.000132 176.687893,370.000397 L176.687904,370.000397 C176.791905,370.000132 176.895937,370 177,370 C243.27417,370 297,423.72583 297,490 L297,526 L339,526 L339,271 L250.9852,271 C250.186285,311.452824 217.144043,344 176.5,344 C135.855957,344 102.813715,311.452824 102.0148,271 Z M105.015422,271 C105.813845,309.795843 137.512862,341 176.5,341 C215.487138,341 247.186155,309.795843 247.984578,271 L105.015422,271 Z M216.996982,125 L136.003018,125 C136.001007,125.166533 136,125.333202 136,125.5 C136,147.629004 153.747799,165.612788 175.785877,165.993831 C176.085385,165.996876 176.385162,165.998795 176.685204,165.999586 C198.967532,165.899829 217,147.805769 217,125.5 C217,125.333202 216.998993,125.166533 216.996982,125 Z M217,105.593601 L217,13 L136,13 L136,105.593601 C142.350509,89.4369869 158.089629,78 176.5,78 C194.910371,78 210.649491,89.4369869 217,105.593601 Z M156.706952,164.246448 C142.63319,157.042662 133,142.396307 133,125.5 C133,125.333112 133.00094,125.166444 133.002814,125 L133,13 L60,13 L60,49 C60,106.696159 101.762235,154.638226 156.706952,164.246448 Z M195.791947,164.498861 C251.475325,155.508725 294,107.220447 294,49 L294,13 L220,13 L220,125 C219.99906,125.166444 220,125.333112 220,125.5 C220,142.596098 210.137647,157.38872 195.791947,164.498861 Z M136,121.5 C136,121.666798 136.001007,121.833467 136.003018,122 L216.996982,122 C216.998993,121.833467 217,121.666798 217,121.5 C217,99.1324676 198.867532,81 176.5,81 C154.132468,81 136,99.1324676 136,121.5 Z M216.996982,414 C216.998993,413.833467 217,413.666798 217,413.5 C217,391.194231 198.967532,373.100171 176.685204,373.000414 C176.385162,373.001205 176.085385,373.003124 175.785877,373.006169 C153.747799,373.387212 136,391.370996 136,413.5 C136,413.666798 136.001007,413.833467 136.003018,414 L216.996982,414 Z M217,433.406399 C210.649491,449.563013 194.910371,461 176.5,461 C158.089629,461 142.350509,449.563013 136,433.406399 L136,526 L217,526 L217,433.406399 Z M156.706952,374.753552 C101.762235,384.361774 60,432.303841 60,490 L60,526 L133,526 L133.002814,414 C133.00094,413.833556 133,413.666888 133,413.5 C133,396.603693 142.63319,381.957338 156.706952,374.753552 Z M195.791947,374.501139 C210.137647,381.61128 220,396.403902 220,413.5 C220,413.666888 219.99906,413.833556 220,414 L220,526 L294,526 L294,490 C294,431.779553 251.475325,383.491275 195.791947,374.501139 Z M136,417.5 C136,439.867532 154.132468,458 176.5,458 C198.867532,458 217,439.867532 217,417.5 C217,417.333202 216.998993,417.166533 216.996982,417 L136.003018,417 C136.001007,417.166533 136,417.333202 136,417.5 Z M8,10 L342,10 L342,529 L8,529 L8,10 Z" id="形状结合" fill="#FFFFFF" fill-rule="nonzero" opacity="0.5" mask="url(#mask-2)"></path>
            </g>
        </g>
    </g>
</svg>