<?xml version="1.0" encoding="UTF-8"?>
<svg width="41px" height="40px" viewBox="0 0 41 40" version="1.1" xmlns="http://www.w3.org/2000/svg" xmlns:xlink="http://www.w3.org/1999/xlink">
    <title>noun-real-3452238备份@2x</title>
    <g id="页面-1" stroke="none" stroke-width="1" fill="none" fill-rule="evenodd">
        <g id="noun-real-3452238备份" transform="translate(0.860410, 0.000000)">
            <circle id="椭圆形" fill="#006CD7" cx="20" cy="20" r="20"></circle>
            <path d="M18.9021569,28.1404458 L16.6612344,22.5898197 C16.4571097,22.1019171 16.1840214,21.6450073 15.8501029,21.2326984 C17.4371396,20.5071085 18.5716091,19.0697254 18.8962337,17.3732227 C19.2208584,15.6767201 18.695688,13.9298804 17.4861139,12.6828343 C16.4467207,11.6065296 15.0055638,10.9982344 13.4991964,10.9999962 L10.7495982,10.9999962 C9.23103706,10.9999962 8,12.2152116 8,13.7142464 L8,28.6425807 C8,29.392098 8.61551853,29.9997019 9.37479911,29.9997019 C10.1340797,29.9997019 10.7495982,29.392098 10.7495982,28.6425807 L10.7495982,21.8569742 L11.3270138,21.8569742 C12.5202167,21.8297483 13.6096558,22.523401 14.0766121,23.6076607 L16.3175346,29.1447155 C16.5296119,29.6707316 17.0501989,30.0115239 17.6235938,29.9997019 C17.7977167,29.9999962 17.9703352,29.9678825 18.1322694,29.9047035 C18.4715804,29.7717936 18.7434119,29.5111275 18.8878337,29.1801736 C19.0322555,28.8492198 19.0374086,28.475154 18.9021569,28.1404458 L18.9021569,28.1404458 Z M11,13.9999971 L13.4981072,13.9999971 C14.1851536,13.9989623 14.8423006,14.281096 15.3149446,14.7800279 C15.7875887,15.2789598 16.0340028,15.950642 15.9962145,16.6370515 C15.8412407,18.0083732 14.6645854,19.033803 13.2857681,18.9991471 L11,18.9991471 L11,13.9999971 Z" id="形状" fill="#FFFFFF" fill-rule="nonzero"></path>
            <path d="M27.3333333,18.6666667 L26,18.6666667 C24.8954305,18.6666667 24,17.7712362 24,16.6666667 C24,15.5620972 24.8954305,14.6666667 26,14.6666667 L30.6666667,14.6666667 C31.4030463,14.6666667 32,14.069713 32,13.3333333 C32,12.5969537 31.4030463,12 30.6666667,12 L29.3333333,12 L29.3333333,9.33333333 C29.3333333,8.59695367 28.7363797,8 28,8 C27.2636203,8 26.6666667,8.59695367 26.6666667,9.33333333 L26.6666667,12 L26,12 C23.4226712,12 21.3333333,14.0893378 21.3333333,16.6666667 C21.3333333,19.2439955 23.4226712,21.3333333 26,21.3333333 L27.3333333,21.3333333 C28.4379028,21.3333333 29.3333333,22.2287638 29.3333333,23.3333333 C29.3333333,24.4379028 28.4379028,25.3333333 27.3333333,25.3333333 L22.6666667,25.3333333 C21.930287,25.3333333 21.3333333,25.930287 21.3333333,26.6666667 C21.3333333,27.4030463 21.930287,28 22.6666667,28 L24,28 L24,30.6666667 C24,31.4030463 24.5969537,32 25.3333333,32 C26.069713,32 26.6666667,31.4030463 26.6666667,30.6666667 L26.6666667,28 L27.3333333,28 C29.9106622,28 32,25.9106622 32,23.3333333 C32,20.7560045 29.9106622,18.6666667 27.3333333,18.6666667 Z" id="路径" fill="#FFFFFF" fill-rule="nonzero"></path>
        </g>
    </g>
</svg>