<?xml version="1.0" encoding="UTF-8"?>
<svg width="81px" height="80px" viewBox="0 0 81 80" version="1.1" xmlns="http://www.w3.org/2000/svg" xmlns:xlink="http://www.w3.org/1999/xlink">
    <title>80*80_rmb</title>
    <g id="Page-1" stroke="none" stroke-width="1" fill="none" fill-rule="evenodd">
        <g id="不用管" transform="translate(-250.000000, -1250.000000)" fill="#FD3A3A" fill-rule="nonzero">
            <g id="80*80_rmb" transform="translate(250.500000, 1250.000000)">
                <path d="M40.0034819,1.27249042e-15 C17.9062436,1.27249042e-15 0,17.9137574 0,40.0036652 C0,62.1010867 17.9062437,80 40.0034819,80 C62.0860594,80 79.9998167,62.1010867 79.9998167,40.0036652 C79.9998167,17.9137574 62.0860594,1.27249042e-15 40.0034819,1.27249042e-15 Z M58.3811645,14.7168619 L44.319827,39.5027214 L55.6523173,39.5027214 C56.027819,39.5027214 56.3262594,39.7974967 56.3262594,40.1804205 L56.3262594,44.2831749 C56.3262594,44.6588598 56.0277273,44.9607822 55.6523173,44.9607822 L43.1966207,44.9607822 L43.1966207,49.0340315 L55.6523174,49.0340315 C56.0278191,49.0340315 56.3262595,49.3361373 56.3262595,49.7117305 L56.3262595,53.8218154 C56.3262595,54.2048308 56.0277274,54.4994228 55.6523174,54.4994228 L43.1966207,54.4994228 L43.1966207,66.0121503 C43.1966207,66.3880185 42.8984552,66.6898493 42.5190134,66.6898493 L37.4697162,66.6898493 C37.093848,66.6898493 36.7957741,66.3879269 36.7957741,66.0121503 L36.795774,54.4995144 L24.4839372,54.4995144 C24.1044954,54.4995144 23.806055,54.2049224 23.806055,53.821907 L23.806055,49.7118222 C23.806055,49.3361373 24.1045871,49.0341231 24.4839372,49.0341231 L36.7956824,49.0341231 L36.7956824,44.9608738 L24.4839372,44.9608738 C24.1044954,44.9608738 23.806055,44.6589514 23.806055,44.2832665 L23.806055,40.1805121 C23.806055,39.7974967 24.1045871,39.502813 24.4839372,39.502813 L35.705463,39.502813 L21.7582971,14.7095314 C21.6369784,14.5033628 21.6369784,14.2455146 21.7658108,14.0319241 C21.883556,13.8255722 22.1118992,13.7003134 22.3514212,13.7003134 L28.2107318,13.7003134 C28.4576759,13.7003134 28.6821705,13.8329027 28.8002822,14.0465849 L40.0479228,34.0963403 L51.3911339,14.0465849 C51.508879,13.8255722 51.7372222,13.7003134 51.9803178,13.7003134 L57.7884986,13.7003134 C58.0275625,13.7003134 58.2524236,13.8255723 58.3812561,14.0319241 C58.4989096,14.2455146 58.4989096,14.5033628 58.3811645,14.7168619 Z" id="形状"></path>
            </g>
        </g>
    </g>
</svg>