<?xml version="1.0" encoding="UTF-8"?>
<svg width="40px" height="40px" viewBox="0 0 40 40" version="1.1" xmlns="http://www.w3.org/2000/svg" xmlns:xlink="http://www.w3.org/1999/xlink">
    <title>china</title>
    <g id="icon" stroke="none" stroke-width="1" fill="none" fill-rule="evenodd">
        <g id="icon-48" transform="translate(-190, -698)" fill-rule="nonzero">
            <g id="china" transform="translate(190, 698)">
                <circle id="椭圆形" fill="#F42F4C" cx="20" cy="20" r="20"></circle>
                <g id="编组" transform="translate(4.6667, 4.6667)" fill="#FFE62E">
                    <polygon id="路径" points="8.66666667 12.9333333 14 16.6666667 12 10.5333333 17.3333333 6.66666667 10.7333333 6.66666667 8.66666667 0.666666667 6.66666667 6.66666667 0 6.66666667 5.33333333 10.5333333 3.33333333 16.6666667"></polygon>
                    <polygon id="路径" points="17.5333333 17.5333333 16 17.8666667 17.4666667 18.4666667 17.4666667 20 18.4666667 18.8666667 19.9333333 19.4 19.0666667 18.1333333 20 16.9333333 18.4666667 17.2666667 17.5333333 16"></polygon>
                    <polygon id="路径" points="19.8 13 18.6666667 14 20.2 13.8666667 20.8666667 15.3333333 21.1333333 13.8 22.6666667 13.6666667 21.3333333 12.8666667 21.6666667 11.3333333 20.5333333 12.3333333 19.2 11.5333333"></polygon>
                    <polygon id="路径" points="20.2 7.8 20.6666667 9.33333333 21.1333333 7.86666667 22.6666667 7.86666667 21.4666667 6.93333333 21.9333333 5.4 20.6666667 6.33333333 19.4666667 5.33333333 19.9333333 6.86666667 18.6666667 7.73333333"></polygon>
                    <polygon id="路径" points="17.5333333 2.46666667 17.5333333 4 18.4666667 2.73333333 20 3.06666667 19.0666667 1.86666667 19.9333333 0.6 18.4666667 1.2 17.4666667 0 17.4666667 1.53333333 16 2.13333333"></polygon>
                </g>
            </g>
        </g>
    </g>
</svg>