<?xml version="1.0" encoding="UTF-8"?>
<svg width="24px" height="28px" viewBox="0 0 24 28" version="1.1" xmlns="http://www.w3.org/2000/svg" xmlns:xlink="http://www.w3.org/1999/xlink">
    <title>复制- icon@2x</title>
    <g id="复制--icon" stroke="none" stroke-width="1" fill="none" fill-rule="evenodd">
        <path d="M19.2053706,0 C21.7953566,0 23.863049,2.26239999 23.9932867,5.0568 L24,5.33680002 L24,18.4618 C24,21.2898 22.0155525,23.6432 19.4618182,23.793 L19.2053706,23.8 L18.628028,23.8 C18.0148145,26.2724417 15.8757552,27.9996604 13.4265734,28 L5.37062938,28 C2.40451268,28 0,25.4927946 0,22.4 L0,11.2 C0,8.17536437 2.30346445,5.69731987 5.20279719,5.6028 L5.20279719,5.33680002 C5.20279719,2.51020002 7.18724473,0.156800011 9.74097903,0.00700002187 L9.99742657,0 L19.2053706,0 L19.2053706,0 Z M13.4265734,8.39999985 L5.37062938,8.39999985 C3.96537095,8.39953628 2.79742228,9.52885215 2.69202798,10.99 L2.68531454,11.2 L2.68531454,22.3999999 C2.68486996,23.8652747 3.76793013,25.0831045 5.16923078,25.193 L5.37062938,25.2000001 L13.4265734,25.2000001 C14.8318319,25.2004637 15.9997805,24.0711478 16.1051748,22.61 L16.1118882,22.3999999 L16.1118882,11.2 C16.1123328,9.73472535 15.0292727,8.51689555 13.627972,8.40700002 L13.4265734,8.39999985 Z M19.2053706,2.80000002 L9.99742657,2.80000002 C8.92061537,2.80000002 7.9914965,3.79540002 7.89616784,5.11420002 L7.8881119,5.3382 L7.8881119,5.60000001 L13.4265734,5.60000001 C16.3926901,5.60000002 18.7972028,8.10720542 18.7972028,11.2 L18.7972028,21 L19.2053706,21 C20.2821818,21 21.2113007,20.0046 21.3066294,18.6858 L21.3146853,18.4618 L21.3146853,5.3382 C21.3146853,3.98439999 20.441958,2.91759999 19.3826014,2.8098 L19.2053706,2.80000002 Z" id="形状" fill="#96A5AA" fill-rule="nonzero" transform="translate(12.000000, 14.000000) scale(-1, 1) translate(-12.000000, -14.000000) "></path>
    </g>
</svg>