<?xml version="1.0" encoding="UTF-8"?>
<svg id="_图层_1" data-name="图层 1" xmlns="http://www.w3.org/2000/svg" viewBox="0 0 1024 1024">
  <defs>
    <style>
      .cls-1 {
        opacity: .2;
      }

      .cls-1, .cls-2, .cls-3 {
        fill: #8a96a3;
        stroke-width: 0px;
      }

      .cls-2 {
        opacity: .4;
      }
    </style>
  </defs>
  <g>
    <path class="cls-3" d="m621.77,694.3h-51.69c-5.98,0-10.82,4.84-10.82,10.82s4.84,10.82,10.82,10.82h51.69c5.98,0,10.82-4.84,10.82-10.82s-4.84-10.82-10.82-10.82Z"/>
    <path class="cls-3" d="m553.33,610.02c-4.23-4.23-11.08-4.23-15.3,0l-10.63,10.63-10.63-10.63c-4.23-4.23-11.08-4.23-15.3,0-4.23,4.23-4.23,11.08,0,15.3l10.63,10.63-10.63,10.63c-4.23,4.23-4.23,11.08,0,15.3,4.23,4.23,11.08,4.23,15.3,0l10.63-10.63,10.63,10.63c4.23,4.23,11.08,4.23,15.3,0,4.23-4.23,4.23-11.08,0-15.3l-10.63-10.63,10.63-10.63c4.23-4.23,4.23-11.08,0-15.3Z"/>
    <path class="cls-3" d="m676.78,635.94l10.63-10.63c4.23-4.23,4.23-11.08,0-15.3h0c-4.23-4.23-11.08-4.23-15.3,0l-10.63,10.63-10.63-10.63c-4.23-4.23-11.08-4.23-15.3,0h0c-4.23,4.23-4.23,11.08,0,15.3l10.63,10.63-10.63,10.63c-4.23,4.23-4.23,11.08,0,15.3h0c4.23,4.23,11.08,4.23,15.3,0l10.63-10.63,10.63,10.63c4.23,4.23,11.08,4.23,15.3,0h0c4.23-4.23,4.23-11.08,0-15.3l-10.63-10.63Z"/>
  </g>
  <path class="cls-3" d="m421.25,869.19h-114.36c-52.01,0-94.32-42.31-94.32-94.32V247.16c0-52.01,42.31-94.32,94.32-94.32h308.03c4.15,0,8.13,1.65,11.07,4.58l175.4,175.4c2.93,2.93,4.58,6.92,4.58,11.07v119.28c0,8.64-7.01,15.65-15.65,15.65s-15.65-7.01-15.65-15.65v-112.8l-166.23-166.23h-301.55c-34.75,0-63.02,28.27-63.02,63.02v527.71c0,34.75,28.27,63.02,63.02,63.02h114.36c8.64,0,15.65,7.01,15.65,15.65s-7.01,15.65-15.65,15.65Z"/>
  <rect class="cls-3" x="751.75" y="754.85" width="45.23" height="154.23" rx="22.61" ry="22.61" transform="translate(-361.48 791.24) rotate(-45)"/>
  <path class="cls-3" d="m590.73,863.54h-.03c-118.18,0-214.33-96.15-214.33-214.33s96.15-214.33,214.33-214.33,214.33,96.15,214.33,214.33c-.13,118.06-96.27,214.2-214.3,214.33Zm-.03-393.45c-98.77,0-179.12,80.35-179.12,179.12s80.35,179.12,179.12,179.12h.01c98.64-.11,179-80.47,179.11-179.14,0-98.75-80.35-179.1-179.12-179.1Z"/>
  <rect class="cls-1" x="304.13" y="243.63" width="239.01" height="53.34" rx="26.67" ry="26.67"/>
  <rect class="cls-1" x="304.13" y="347.82" width="239.01" height="53.34" rx="26.67" ry="26.67"/>
  <path class="cls-2" d="m608.8,184.5v120.8c0,24.69,20.01,44.7,44.7,44.7h120.8l-165.5-165.5Z"/>
</svg>