<?xml version="1.0" encoding="UTF-8"?>
<svg width="24px" height="24px" viewBox="0 0 24 24" version="1.1" xmlns="http://www.w3.org/2000/svg" xmlns:xlink="http://www.w3.org/1999/xlink">
    <title>删除- icon@2x</title>
    <g id="删除--icon" stroke="none" stroke-width="1" fill="none" fill-rule="evenodd">
        <rect id="矩形" fill-opacity="0" fill="#D8D8D8" x="0" y="0" width="24" height="24"></rect>
        <g id="删除" transform="translate(1.000000, 0.000000)" fill="#96A5AA" fill-rule="nonzero">
            <path d="M1.57142858,4.5 L20.4285714,4.5 L20.4285714,24 L1.57142858,24 L1.57142858,4.5 Z M4.71428571,7.5 L4.71428571,21 L17.2857143,21 L17.2857143,7.5 L4.71428571,7.5 Z M6.28571429,10.5 L9.42857142,10.5 L9.42857142,18 L6.28571429,18 L6.28571429,10.5 Z M12.5714286,10.5 L15.7142857,10.5 L15.7142857,18 L12.5714286,18 L12.5714286,10.5 Z M0,4.5 L22,4.5 L22,7.5 L0,7.5 L0,4.5 Z M6.28571429,0 L15.7142857,0 L15.7142857,3 L6.28571429,3 L6.28571429,0 L6.28571429,0 Z" id="形状"></path>
        </g>
    </g>
</svg>