<?xml version="1.0" encoding="UTF-8"?>
<svg width="46px" height="46px" viewBox="0 0 46 46" version="1.1" xmlns="http://www.w3.org/2000/svg" xmlns:xlink="http://www.w3.org/1999/xlink">
    <title>设置-icon@2x</title>
    <g id="设置-icon" stroke="none" stroke-width="1" fill="none" fill-rule="evenodd">
        <path d="M42,26.1062061 C40.7540984,26.4176815 39.5081967,26.7291569 37.9508197,26.7291569 C37.6393443,28.286534 37.0163934,29.5324356 36.3934426,30.7783372 C37.3278689,32.0242389 37.9508197,32.9586651 38.8852459,34.2045667 L34.2131148,38.5652225 C33.2786885,37.9422717 32.0327869,37.0078454 30.7868852,36.0734192 C29.5409836,36.69637 28.295082,37.3193208 26.7377049,37.6307963 C26.4262295,39.1881733 26.4262295,40.4340749 26.1147541,41.6799766 L19.8852459,41.6799766 C19.5737705,40.4340749 19.2622951,39.1881733 19.2622951,37.6307963 C17.704918,37.3193208 16.4590164,36.69637 15.2131148,36.0734192 C13.9672131,37.0078454 13.0327869,37.6307963 11.7868852,38.5652225 L7.42622951,34.2045667 C8.04918033,33.2701405 8.98360656,32.0242389 9.91803279,30.7783372 C9.29508197,29.5324356 8.67213115,28.286534 8.36065574,26.7291569 C6.49180328,26.7291569 5.24590164,26.4176815 4,26.1062061 L4,19.8766979 C5.24590164,19.5652225 6.49180328,19.2537471 8.04918033,19.2537471 C8.36065574,17.69637 8.98360656,16.4504684 9.60655738,15.2045667 C8.67213115,13.9586651 8.04918033,12.7127635 7.42622951,11.7783372 L11.7868852,7.4176815 C12.7213115,8.04063232 13.9672131,8.97505855 15.2131148,9.90948478 C16.4590164,9.28653396 17.704918,8.66358314 19.2622951,8.35210773 C19.2622951,6.48325527 19.5737705,5.23735363 19.8852459,3.99145199 L26.1147541,3.99145199 C26.4262295,5.23735363 26.7377049,6.48325527 26.7377049,8.04063232 C28.295082,8.35210773 29.5409836,8.97505855 30.7868852,9.59800937 C32.0327869,8.66358314 32.9672131,8.04063232 34.2131148,7.10620609 L38.5737705,11.7783372 C37.9508197,12.7127635 37.0163934,13.9586651 36.0819672,15.2045667 C36.704918,16.4504684 37.3278689,17.69637 37.6393443,19.2537471 C39.1967213,19.5652225 40.442623,19.5652225 41.6885246,19.8766979 L41.6885246,26.1062061 L42,26.1062061 Z M43.7,16.7571429 C42.7142857,16.7571429 42.0571429,16.4285714 41.0714286,16.4285714 C40.7428571,16.1 40.7428571,15.4428571 40.4142857,15.1142857 C41.0714286,14.4571429 41.4,13.4714286 42.0571429,12.8142857 C42.7142857,11.5 42.7142857,10.1857143 41.7285714,9.2 L37.1285714,4.6 C36.4714286,3.94285714 35.8142857,3.61428571 35.1571429,3.61428571 C34.5,3.61428571 34.1714286,3.61428571 33.5142857,3.94285714 C32.8571429,4.27142857 32.2,4.92857143 31.2142857,5.58571429 C30.8857143,5.25714286 30.2285714,5.25714286 29.9,4.92857143 C29.9,3.94285714 29.5714286,2.95714286 29.2428571,2.3 C28.9142857,0.985714286 27.6,0 26.2857143,0 L19.7142857,0 C18.4,0 17.0857143,0.985714286 16.7571429,2.3 C16.7571429,2.95714286 16.4285714,3.94285714 16.4285714,4.92857143 C15.7714286,5.25714286 15.4428571,5.25714286 14.7857143,5.58571429 C14.1285714,4.92857143 13.4714286,4.6 12.8142857,3.94285714 C12.1571429,3.61428571 11.5,3.61428571 11.1714286,3.61428571 C10.5142857,3.61428571 9.52857143,3.94285714 9.2,4.6 L4.27142857,9.2 C3.28571429,10.1857143 3.28571429,11.5 3.94285714,12.8142857 C4.27142857,13.4714286 4.92857143,14.1285714 5.58571429,15.1142857 C5.25714286,15.4428571 5.25714286,15.7714286 4.92857143,16.4285714 C3.94285714,16.4285714 2.95714286,16.7571429 2.3,16.7571429 C0.985714286,17.0857143 0,18.4 0,19.7142857 L0,26.2857143 C0,27.6 0.985714286,28.9142857 2.3,29.2428571 C2.95714286,29.2428571 3.94285714,29.5714286 4.92857143,29.5714286 C5.25714286,29.9 5.25714286,30.5571429 5.58571429,30.8857143 C4.92857143,31.5428571 4.6,32.5285714 3.94285714,33.1857143 C3.28571429,34.5 3.28571429,35.8142857 4.27142857,36.8 L8.87142857,41.4 C9.52857143,42.0571429 10.1857143,42.3857143 10.8428571,42.3857143 C11.5,42.3857143 11.8285714,42.3857143 12.4857143,42.0571429 C13.1428571,41.7285714 13.8,41.0714286 14.7857143,40.4142857 C15.1142857,40.7428571 15.7714286,40.7428571 16.1,41.0714286 C16.1,42.0571429 16.4285714,43.0428571 16.7571429,43.7 C17.0857143,45.0142857 18.4,46 19.7142857,46 L26.2857143,46 C27.6,46 28.9142857,45.0142857 29.2428571,43.7 C29.5714286,42.7142857 29.5714286,42.0571429 29.9,41.0714286 C30.2285714,40.7428571 30.8857143,40.7428571 31.2142857,40.4142857 C31.8714286,41.0714286 32.8571429,41.4 33.5142857,42.0571429 C33.8428571,42.3857143 34.5,42.3857143 35.1571429,42.3857143 C35.8142857,42.3857143 36.8,42.0571429 37.1285714,41.4 L41.7285714,36.8 C42.7142857,35.8142857 42.7142857,34.1714286 42.0571429,33.1857143 C41.7285714,32.5285714 41.0714286,31.8714286 40.4142857,30.8857143 C40.7428571,30.5571429 40.7428571,29.9 41.0714286,29.5714286 C42.0571429,29.5714286 43.0428571,29.2428571 43.7,29.2428571 C45.0142857,28.9142857 46,27.6 46,26.2857143 L46,19.7142857 C46,18.4 45.0142857,17.0857143 43.7,16.7571429 Z M22.95,27.1642857 C20.6642857,27.1642857 18.8357143,25.3357143 18.8357143,23.05 C18.8357143,20.7642857 20.6642857,19.1642857 22.95,19.1642857 C25.2357143,19.1642857 26.8357143,20.7642857 26.8357143,23.05 C26.8357143,25.3357143 25.2357143,27.1642857 22.95,27.1642857 Z M23,15 C18.6923077,15 15,18.6923077 15,23 C15,27.3076923 18.6923077,31 23,31 C27.3076923,31 31,27.3076923 31,23 C31,18.6923077 27.3076923,15 23,15 Z" id="形状" fill="#1F2630" fill-rule="nonzero"></path>
    </g>
</svg>