<?xml version="1.0" encoding="UTF-8"?>
<svg width="42px" height="46px" viewBox="0 0 42 46" version="1.1" xmlns="http://www.w3.org/2000/svg" xmlns:xlink="http://www.w3.org/1999/xlink">
    <title>客服 icon2@2x</title>
    <g id="客服-icon2" stroke="none" stroke-width="1" fill="none" fill-rule="evenodd">
        <path d="M38.4262015,16.8486804 C38.2523272,7.52997067 30.6874614,0 21.4079283,0 C12.2460947,0 4.75612852,7.33571848 4.39768014,16.4898534 C1.84039169,17.3990616 4.01012556e-13,19.8595894 4.01012556e-13,22.7490909 L4.01012556e-13,28.8869208 C4.01012556e-13,32.5453372 2.95051168,35.521173 6.57779529,35.521173 L7.54614092,35.521173 C9.35175777,35.521173 10.8203261,34.04 10.8203261,32.2188856 L10.8203261,19.4171261 C10.8203261,17.6256891 9.39990755,16.1687977 7.63441552,16.1202346 C8.17208809,8.92750733 14.1399861,3.23753666 21.4079283,3.23753666 C28.6731955,3.23753666 34.6410936,8.92480938 35.1814411,16.1148387 L34.4591944,16.1148387 C32.6535775,16.1148387 31.1850092,17.5960117 31.1850092,19.4171261 L31.1850092,32.2188856 C31.1850092,33.6434018 32.0864801,34.857478 33.3437244,35.318827 C32.3486289,37.2721408 29.9491647,40.4692082 24.7436383,41.2057478 C24.1771815,40.3279544 23.2087289,39.7989581 22.1702999,39.8001173 C20.4743575,39.8001173 19.0967388,41.1868622 19.0967388,42.9000587 C19.0967388,44.6105572 20.4716825,46 22.1702999,46 C23.3018198,46 24.2888903,45.3794721 24.8238879,44.4594721 C32.1506798,43.5664516 35.7164387,38.5779472 36.8372586,35.3646921 C39.7877703,34.7090909 42,32.0543109 42,28.8869208 L42,22.7490909 C42.0053353,20.1806452 40.5474669,17.9521408 38.4262015,16.8486804 Z M8,30.9399124 C8,30.9724598 7.96656535,31 7.92705167,31 L6.82674772,31 C4.71732523,31 3,29.5854371 3,27.8479032 L3,22.1520968 C3,20.4145629 4.71732523,19 6.82674772,19 L7.92705167,19 C7.96656535,19 8,19.0275402 8,19.0600876 L8,30.9399124 Z M39,27.8479032 C39,29.5854371 37.2826748,31 35.1732523,31 L34.0729483,31 C34.0334347,31 34,30.9724598 34,30.9399124 L34,19.0600876 C34,19.0275402 34.0334347,19 34.0729483,19 L35.1732523,19 C37.2826748,19 39,20.4145629 39,22.1520968 L39,27.8479032 L39,27.8479032 Z" id="形状" fill="#1F2630" fill-rule="nonzero"></path>
    </g>
</svg>