<?xml version="1.0" encoding="UTF-8"?>
<svg width="38px" height="38px" viewBox="0 0 38 38" version="1.1" xmlns="http://www.w3.org/2000/svg" xmlns:xlink="http://www.w3.org/1999/xlink">
    <title>selection-on-svgrepo-com备份 25</title>
    <defs>
        <circle id="path-1" cx="19" cy="19" r="19"></circle>
    </defs>
    <g id="页面-1" stroke="none" stroke-width="1" fill="none" fill-rule="evenodd">
        <g id="首页4-篮球" transform="translate(-364, -379)">
            <g id="selection-on-svgrepo-com备份-25" transform="translate(364, 379)">
                <mask id="mask-2" fill="white">
                    <use xlink:href="#path-1"></use>
                </mask>
                <use id="椭圆形" fill="#D4D4D4" xlink:href="#path-1"></use>
                <g id="trophy-cup-svgrepo-com" mask="url(#mask-2)" fill-rule="nonzero">
                    <g transform="translate(5, 7)" id="形状">
                        <path d="M21.5126978,13.4594305 L22.3167332,13.4594305 C25.4505067,13.4594305 28,10.8404193 28,7.62126199 C28,7.01320187 27.5201082,6.52015876 26.928124,6.52015876 L24.220764,6.52015876 C24.2216628,6.46192481 24.2228826,6.40382275 24.2228826,6.34532499 L24.2228826,4.70468382 C24.2228826,4.0966237 23.7429908,3.60358059 23.1510066,3.60358059 L19.6918054,3.60358059 L19.6918054,1.10110323 C19.6918054,0.493043108 19.2119136,0 18.6199294,0 L9.37987802,0 C8.787958,0 8.30800202,0.492977158 8.30800202,1.10110323 L8.30800202,3.60364654 L4.84880084,3.60364654 C4.25688082,3.60364654 3.77692484,4.0966237 3.77692484,4.70474977 L3.77692484,6.34552284 C3.77692484,6.40395465 3.77814463,6.46218861 3.77904343,6.52035661 L1.071876,6.52035661 C0.479955977,6.52035661 0,7.01333377 0,7.62145984 C0,10.8405512 2.54949328,13.4596284 5.68326684,13.4596284 L6.48730224,13.4596284 C8.12850002,15.2873041 10.3916632,16.5168782 12.928124,16.7895819 L12.928124,20.6430475 L11.0907323,20.6430475 C10.5949833,20.6430475 10.1638832,20.9923853 10.0483881,21.4876707 L8.83173011,26.8768085 C11.1341112,27.6256028 12.8568678,28 14,28 C15.1431322,28 16.8560104,27.6256028 19.1386346,26.8768085 L17.9516761,21.4876048 C17.836181,20.9923194 17.4050809,20.6429816 16.9093319,20.6429816 L15.0718118,20.6429816 L15.0718118,16.789516 C17.6083368,16.5167463 19.8715,15.2871063 21.5126978,13.4594305 Z M27.0398347,7.6070308 C26.5015657,10.1507552 24.7975978,12.3432693 22.1561137,12.3432693 C22.9858563,10.8747975 23.7790762,9.28704396 24.1448681,7.6070308 L27.0398347,7.6070308 Z M3.834026,7.6070308 C4.19981789,9.28704396 4.99303785,10.8747975 5.82278039,12.3432693 C3.18129631,12.3432693 1.47732845,10.1507552 0.939059459,7.6070308 Z M9.62570116,1.09616023 L18.5791895,1.09616023 L18.5791895,3.60358059 L9.62570116,3.60358059 L9.62570116,1.09616023 Z" fill="#FFFFFF"></path>
                        <path d="M14,6 C12.3457863,6 11,7.34578627 11,9 C11,10.6542137 12.3457863,12 14,12 C15.6542137,12 17,10.6542137 17,9 C17,7.34578627 15.6542137,6 14,6 Z" fill="#D4D4D4"></path>
                    </g>
                </g>
            </g>
        </g>
    </g>
</svg>