<?xml version="1.0" encoding="UTF-8"?>
<svg width="48px" height="38px" viewBox="0 0 48 38" version="1.1" xmlns="http://www.w3.org/2000/svg" xmlns:xlink="http://www.w3.org/1999/xlink">
    <title>赛事未加载默認</title>
    <g id="icon" stroke="none" stroke-width="1" fill="none" fill-rule="evenodd">
        <g id="icon-48" transform="translate(-57, -523)" fill="#010002" fill-rule="nonzero">
            <g id="赛事未加载默認" transform="translate(57, 523)">
                <path d="M13.9785972,5.52619693 C17.1457465,3.66426182 20.4651386,2.72128979 23.8660596,2.719634 C28.5223597,2.719634 32.2668669,4.49795175 34.0214028,5.51212272 L34.0214028,16.1828571 L36.7542857,16.1828571 L36.7542857,4.03019126 C36.7542857,4.03019126 31.4232921,0 23.8643958,0 C20.0857795,0.00165578934 15.7497716,1.00837571 11.2457143,4.03019126 L11.2457143,16.1828571 L13.9785972,16.1828571 L13.9785972,5.52619693 L13.9785972,5.52619693 Z" id="路径"></path>
                <polygon id="路径" points="23.8632766 33.877544 17.4839828 27.1542857 13.7142857 27.1542857 23.8632766 37.8514286 34.0114286 27.1542857 30.2425703 27.1542857"></polygon>
                <path d="M48,27.4285714 L45.6208499,24.0224577 L47.994986,20.5944883 L38.5301973,20.5944883 L38.5301973,17.28 L9.61938752,17.28 L9.61938752,20.5944883 L0.00501401487,20.5944883 L2.37915005,24.0224577 L0,27.4285714 L10.7717753,27.4285714 L10.7717753,26.2618178 L37.2290604,26.2618178 L37.2290604,27.4285714 L48,27.4285714 Z M9.73053152,26.3820236 L2.00393461,26.3820236 L3.65020282,24.0275013 L1.99892059,21.6435579 L9.61938752,21.6435579 L9.61938752,26.2618178 L9.73053152,26.2618178 L9.73053152,26.3820236 L9.73053152,26.3820236 Z M38.2694685,26.2626584 L38.5310329,26.2626584 L38.5310329,21.6443985 L46.0002437,21.6443985 L44.3506328,24.0300231 L45.9952297,26.3837048 L38.2686328,26.3837048 L38.2694685,26.2626584 L38.2694685,26.2626584 Z" id="形状"></path>
            </g>
        </g>
    </g>
</svg>