<?xml version="1.0" encoding="UTF-8"?>
<svg width="108px" height="100px" viewBox="0 0 108 100" version="1.1" xmlns="http://www.w3.org/2000/svg" xmlns:xlink="http://www.w3.org/1999/xlink">
    <title>加载失败</title>
    <g id="1.3直播调整" stroke="none" stroke-width="1" fill="none" fill-rule="evenodd">
        <g id="1.0直播新增视频" transform="translate(-146.000000, -2109.000000)" fill="#E0E1E6" fill-rule="nonzero">
            <path d="M159.376151,2204.39576 L199.905331,2204.04768 L197.498542,2191.38849 L162.439557,2191.69025 C160.5373,2191.70715 159.257863,2190.44944 159.243379,2188.54718 L159.231309,2187.27981 L175.497055,2161.77798 C176.115047,2159.87089 178.017305,2159.854 179.92439,2160.47199 C180.564108,2161.09964 181.198999,2161.09481 181.203827,2161.7297 L187.629979,2171.81794 L195.330741,2182.53141 C195.335569,2183.1663 195.342811,2183.79878 195.975288,2183.79395 C196.00667,2183.82533 196.040466,2183.84947 196.071849,2183.87844 L194.031992,2173.15772 L197.368184,2149.3095 L197.194374,2146.05298 L190.838228,2123.69663 L193.971641,2109 L158.560208,2109.30417 C151.769536,2109.3621 146.229333,2114.82023 146,2121.54572 L146.608336,2192.37583 C146.953543,2199.08926 152.585479,2204.45323 159.376151,2204.39576 L159.376151,2204.39576 Z M202.362816,2111.17021 L202.360402,2111.10986 L201.136488,2111.10986 L201.122004,2111.17021 L202.362816,2111.17021 Z M243.058565,2113.77496 L210.452237,2109.25347 L210.457065,2109.21002 L209.228323,2109.03862 L203.985045,2123.12209 L206.910852,2145.4036 L206.838431,2146.18575 L207.038796,2147.71624 L206.534263,2149.43262 L206.309758,2151.83458 L200.289163,2172.36592 L200.743001,2183.2701 C201.402031,2184.05708 202.35316,2184.23572 203.31153,2184.02328 L203.309116,2184.04259 C203.342913,2184.03052 203.376709,2184.01363 203.41292,2183.99914 C203.555348,2183.96293 203.70019,2183.91948 203.842617,2183.86637 L203.84986,2183.80119 C204.115403,2183.66601 204.37129,2183.50909 204.612694,2183.32563 L215.321339,2170.72921 L216.750446,2169.64772 L217.464999,2169.10698 C218.807201,2168.65314 220.69256,2168.91386 221.146398,2170.25847 L232.263015,2191.64197 C232.890663,2191.72887 232.803758,2192.35652 232.716853,2192.98417 C232.543042,2194.23947 231.111521,2195.32095 229.856225,2195.14714 L202.628359,2191.3716 L201.450312,2204.00905 L229.998653,2207.96806 C236.907612,2208.92643 243.343421,2204.05733 244.299377,2197.15079 L253.88067,2128.07327 C254.834213,2121.16913 249.967524,2114.73333 243.058565,2113.77496 Z M232.85928,2141.16456 C232.161625,2146.18816 227.157337,2149.97336 222.133737,2149.27812 C217.110137,2148.58047 213.322521,2143.57618 214.020176,2138.55258 C214.717831,2133.52898 219.722119,2129.74136 224.745719,2130.43902 C229.771734,2131.13426 233.556936,2136.14096 232.85928,2141.16456 Z" id="加载失败"></path>
        </g>
    </g>
</svg>