<?xml version="1.0" encoding="UTF-8"?>
<svg width="39px" height="35px" viewBox="0 0 39 35" version="1.1" xmlns="http://www.w3.org/2000/svg" xmlns:xlink="http://www.w3.org/1999/xlink">
    <title>live-icon-1备份 4</title>
    <g id="icon" stroke="none" stroke-width="1" fill="none" fill-rule="evenodd">
        <g id="icon-48" transform="translate(-334, -607)" fill="#000000" fill-rule="nonzero">
            <g id="live-icon-1备份-4" transform="translate(336.3864, 607.1291)">
                <path d="M3.41092633,29.1660693 C3.88529199,30.8457434 5.42928831,32.0766491 7.26077805,32.0766491 L26.2355843,32.0766491 C28.067074,32.0766491 29.6110704,30.8457434 30.085436,29.1660693 L33.4019596,29.1660314 C33.2480986,32.3426547 30.6238475,34.8709087 27.4090909,34.8709087 L6.08727143,34.8709087 C2.87251489,34.8709087 0.24826372,32.3426547 0.0944027308,29.1660314 L3.41092633,29.1660693 Z M3.10638715,14.1423589 L3.10638715,23.1372356 L7.95454545,23.1372356 L7.95454545,26.0758333 L0,26.0758333 L0,14.1423589 L3.10638715,14.1423589 Z M12.7272727,14.1423589 L12.7272727,26.0758333 L9.54545455,26.0758333 L9.54545455,14.1423589 L12.7272727,14.1423589 Z M16.6074289,14.1423589 L18.755006,22.7302276 L20.8700441,14.1423589 L23.8636364,14.1423589 L20.3233881,26.0758333 L17.1280537,26.0758333 L13.5227273,14.1423589 L16.6074289,14.1423589 Z M33.2675051,14.1423589 L33.2675051,16.6902289 L28.3763607,16.6902289 L28.3763607,18.5868862 L32.9135407,18.5868862 L32.9135407,21.020794 L28.3763607,21.020794 L28.3763607,23.3733002 L33.4090909,23.3733002 L33.4090909,26.0758333 L25.4545455,26.0758333 L25.4545455,14.1423589 L33.2675051,14.1423589 Z M23.6852906,0.374989014 C24.559346,1.02392661 24.7564304,2.24598222 24.1332986,3.13308852 L22.4482714,5.53090872 L27.4090909,5.5311826 C30.6235097,5.5311826 33.2475472,8.05890548 33.401911,11.2350588 L30.0851532,11.2350211 C29.6104569,9.55585892 28.0667102,8.32544223 26.2355843,8.32544223 L7.26077805,8.32544223 C5.42965213,8.32544223 3.88590543,9.55585892 3.41120915,11.2350211 L0.0944513033,11.2350588 C0.248815098,8.05890548 2.87285261,5.5311826 6.08727143,5.5311826 L11.1862714,5.53090872 L9.50235726,3.13308852 C8.87922551,2.24598222 9.07630986,1.02392661 9.94672824,0.377689334 C10.7937489,-0.251176461 11.9850539,-0.0750863536 12.6112193,0.768297276 L12.640497,0.808834121 L15.4059103,4.7457473 C15.5765347,4.9886525 15.6856625,5.25667084 15.7363093,5.53110453 L17.8993466,5.53110453 C17.9499934,5.25667084 18.0591212,4.9886525 18.2297456,4.7457473 L20.9951589,0.808834121 L21.0244365,0.768297276 C21.650602,-0.0750863536 22.8419069,-0.251176461 23.6852906,0.374989014 Z" id="形状结合"></path>
            </g>
        </g>
    </g>
</svg>