<?xml version="1.0" encoding="UTF-8"?>
<svg width="24px" height="24px" viewBox="0 0 24 24" version="1.1" xmlns="http://www.w3.org/2000/svg" xmlns:xlink="http://www.w3.org/1999/xlink">
    <title>音量无</title>
    <g id="音量无" stroke="none" stroke-width="1" fill="none" fill-rule="evenodd">
        <path d="M1.84127406,8.4 L3.32166787,8.4 C3.55489353,8.4 3.78078396,8.31848061 3.96026141,8.16954421 L9.32281292,3.71951951 C10.172828,3.01414856 11.4337175,3.13140579 12.1390884,3.98142085 C12.4369612,4.34037576 12.6,4.79215662 12.6,5.25860793 L12.6,18.7679136 C12.6,19.8724831 11.7045695,20.7679136 10.6,20.7679136 C10.1368577,20.7679136 9.68807073,20.6071759 9.33024166,20.3131365 L3.87134437,15.8273886 C3.69242983,15.6803688 3.46803637,15.6 3.2364652,15.6 L1.79731279,15.6 C0.804684343,15.6 -4.73959835e-14,14.7953157 -5.15143483e-14,13.8026872 L-5.15143483e-14,10.2412741 C-5.23050174e-14,9.22436647 0.824366475,8.4 1.84127406,8.4 Z" id="矩形" fill="#FEFEFE"></path>
        <path d="M17.3191455,8.27433003 L19.5666601,10.5214368 L21.815301,8.27433003 C22.1757849,7.91384607 22.743016,7.88611653 23.1353072,8.19114142 L23.2295145,8.27433003 L23.2928932,8.33770872 C23.6834175,8.72823301 23.6834175,9.36139799 23.2928932,9.75192228 L23.2928932,9.75192228 L21.0446601,11.9994368 L23.2928932,14.2480777 C23.6834175,14.638602 23.6834175,15.271767 23.2928932,15.6622913 L23.2295145,15.72567 C22.8389902,16.1161943 22.2058253,16.1161943 21.815301,15.72567 L19.5666601,13.4774368 L17.3191455,15.72567 C16.9586616,16.0861539 16.3914305,16.1138835 15.9991393,15.8088586 L15.904932,15.72567 L15.8415533,15.6622913 C15.451029,15.271767 15.451029,14.638602 15.8415533,14.2480777 L15.8415533,14.2480777 L18.0886601,11.9994368 L15.8415533,9.75192228 C15.451029,9.36139799 15.451029,8.72823301 15.8415533,8.33770872 L15.904932,8.27433003 C16.2954563,7.88380574 16.9286212,7.88380574 17.3191455,8.27433003 Z" id="形状结合" fill="#FEFEFE"></path>
    </g>
</svg>