<?xml version="1.0" encoding="UTF-8"?>
<svg width="24px" height="24px" viewBox="0 0 24 24" version="1.1" xmlns="http://www.w3.org/2000/svg" xmlns:xlink="http://www.w3.org/1999/xlink">
    <title>音量有</title>
    <g id="音量有" stroke="none" stroke-width="1" fill="none" fill-rule="evenodd">
        <g transform="translate(0.000000, 1.000000)">
            <path d="M1.84127406,7.4 L3.32166787,7.4 C3.55489353,7.4 3.78078396,7.31848061 3.96026141,7.16954421 L9.32281292,2.71951951 C10.172828,2.01414856 11.4337175,2.13140579 12.1390884,2.98142085 C12.4369612,3.34037576 12.6,3.79215662 12.6,4.25860793 L12.6,17.7679136 C12.6,18.8724831 11.7045695,19.7679136 10.6,19.7679136 C10.1368577,19.7679136 9.68807073,19.6071759 9.33024166,19.3131365 L3.87134437,14.8273886 C3.69242983,14.6803688 3.46803637,14.6 3.2364652,14.6 L1.79731279,14.6 C0.804684343,14.6 4.11836481e-15,13.7953157 0,12.8026872 L0,9.24127406 C-7.90669076e-16,8.22436647 0.824366475,7.4 1.84127406,7.4 Z" id="矩形" fill="#FEFEFE"></path>
            <path d="M16.1393562,13.1965879 C16.8949117,12.7515715 17.4019201,11.9296759 17.4019201,10.989362 C17.4019201,10.0382881 16.8832418,9.20835799 16.1133213,8.76700751" id="路径" stroke="#FEFEFE" stroke-width="2" stroke-linecap="round"></path>
            <path d="M20.2067384,15.9041522 C21.8833744,14.9166266 23.008465,13.0927767 23.008465,11.0061478 C23.008465,8.8956415 21.8574781,7.05396256 20.148965,6.07457183" id="路径" stroke="#FEFEFE" stroke-width="2" stroke-linecap="round"></path>
        </g>
    </g>
</svg>