<?xml version="1.0" encoding="UTF-8"?>
<svg width="46px" height="46px" viewBox="0 0 46 46" version="1.1" xmlns="http://www.w3.org/2000/svg" xmlns:xlink="http://www.w3.org/1999/xlink">
    <title>结果- icon@2x</title>
    <g id="结果--icon" stroke="none" stroke-width="1" fill="none" fill-rule="evenodd">
        <path d="M15.9635155,44.689533 L7.39206064,44.689533 C3.86340153,44.6857537 1.00380791,41.8476608 1,38.345533 L1,6.34399998 C1.00380791,2.84187214 3.86340153,0.00377924842 7.39206064,3.55271368e-15 L37.5310572,3.55271368e-15 C40.8128754,3.55271368e-15 42.7716026,2.37142859 42.7716026,6.34399998 L42.7716026,16.4680851 C42.7716026,17.414859 41.9982763,18.1823708 41.0443299,18.1823708 C40.0903835,18.1823708 39.3170572,17.414859 39.3170572,16.4680851 L39.3170572,6.34399998 C39.3170572,3.42857143 38.0653602,3.42857143 37.5310572,3.42857143 L7.39206064,3.42857143 C5.77050497,3.43046069 4.45644906,4.73463645 4.45454545,6.34399998 L4.45454545,38.345533 C4.45644906,39.9548965 5.77050497,41.2590723 7.39206064,41.2609615 L15.9635155,41.2609615 C16.9174619,41.2609615 17.6907883,42.0284734 17.6907883,42.9752472 C17.6907883,43.9220211 16.9174619,44.689533 15.9635155,44.689533 Z" id="路径" fill="#1F2630" fill-rule="nonzero"></path>
        <path d="M32.5,46 C25.6071429,46 20,40.3928571 20,33.5 C20,26.6071429 25.6071429,21 32.5,21 C39.3928571,21 45,26.6071429 45,33.5 C45,40.3928571 39.3928571,46 32.5,46 Z M32.5,24.5714286 C27.5761905,24.5714286 23.5714286,28.5761905 23.5714286,33.5 C23.5714286,38.4238095 27.5761905,42.4285714 32.5,42.4285714 C37.4238095,42.4285714 41.4285714,38.4238095 41.4285714,33.5 C41.4285714,28.5761905 37.4238095,24.5714286 32.5,24.5714286 Z" id="形状" fill="#1F2630" fill-rule="nonzero"></path>
        <path d="M35.2341549,36 L30.5252345,36 C29.5499852,36 28.7593894,35.2284056 28.7593894,34.2765957 L28.7593894,29.680851 C28.7593894,28.7290411 29.5499852,27.9574468 30.5252345,27.9574468 C31.5004838,27.9574468 32.2910796,28.7290411 32.2910796,29.680851 L32.2910796,32.5531915 L35.2341549,32.5531915 C36.2094042,32.5531915 37,33.3247859 37,34.2765957 C37,35.2284056 36.2094042,36 35.2341549,36 Z M31.9559868,13.4468085 L10.7658451,13.4468085 C9.7905958,13.4468085 9,12.6752141 9,11.7234043 C9,10.7715944 9.7905958,10 10.7658451,10 L31.9559868,10 C32.9312362,10 33.721832,10.7715944 33.721832,11.7234043 C33.721832,12.6752141 32.9312362,13.4468085 31.9559868,13.4468085 Z M19.0064558,21.9148936 L10.7658451,21.9148936 C9.7905958,21.9148936 9,21.1432993 9,20.1914894 C9,19.2396795 9.7905958,18.4680851 10.7658451,18.4680851 L19.0064558,18.4680851 C19.9817051,18.4680851 20.7723009,19.2396795 20.7723009,20.1914894 C20.7723009,21.1432993 19.9817051,21.9148936 19.0064558,21.9148936 L19.0064558,21.9148936 Z" id="形状" fill="#1F2630" fill-rule="nonzero"></path>
    </g>
</svg>