<?xml version="1.0" encoding="UTF-8"?>
<svg width="35.4748737px" height="35.4748737px" viewBox="0 0 35.4748737 35.4748737" version="1.1" xmlns="http://www.w3.org/2000/svg" xmlns:xlink="http://www.w3.org/1999/xlink">
    <title>搜索-icon@2x</title>
    <g id="搜索-icon" stroke="none" stroke-width="1" fill="none" fill-rule="evenodd">
        <path d="M17,0 C26.3888407,0 34,7.61115925 34,17 C34,20.6108564 32.8742362,23.9587765 30.9545436,26.7119254 L34.5961941,30.3535534 C35.767767,31.5251263 35.767767,33.4246212 34.5961941,34.5961941 C33.4246212,35.767767 31.5251263,35.767767 30.3535534,34.5961941 L26.7119254,30.9545436 C23.9587765,32.8742362 20.6108564,34 17,34 C7.61115925,34 5.68434189e-14,26.3888407 5.68434189e-14,17 C5.68434189e-14,7.61115925 7.61115925,0 17,0 Z M17,5.5 C10.6487254,5.5 5.5,10.6487254 5.5,17 C5.5,23.3512746 10.6487254,28.5 17,28.5 C23.3512746,28.5 28.5,23.3512746 28.5,17 C28.5,10.6487254 23.3512746,5.5 17,5.5 Z" id="形状结合" fill="#8F88A6"></path>
    </g>
</svg>