<?xml version="1.0" encoding="UTF-8"?>
<svg width="48px" height="48px" viewBox="0 0 48 48" version="1.1" xmlns="http://www.w3.org/2000/svg" xmlns:xlink="http://www.w3.org/1999/xlink">
    <title>星星</title>
    <defs>
        <linearGradient x1="13.9113386%" y1="20.8862578%" x2="106.500019%" y2="83.6385035%" id="linearGradient-1">
            <stop stop-color="#7D9BB2" offset="0%"></stop>
            <stop stop-color="#577894" offset="42.4825175%"></stop>
            <stop stop-color="#375775" offset="100%"></stop>
        </linearGradient>
        <linearGradient x1="5.64804837%" y1="22.4602365%" x2="98.613381%" y2="81.3662782%" id="linearGradient-2">
            <stop stop-color="#B6BCEB" offset="0%"></stop>
            <stop stop-color="#979797" offset="32.145979%"></stop>
            <stop stop-color="#1B457B" offset="100%"></stop>
        </linearGradient>
    </defs>
    <g id="icon" stroke="none" stroke-width="1" fill="none" fill-rule="evenodd">
        <g id="icon-48" transform="translate(-117, -601)">
            <g id="星星" transform="translate(117, 601)">
                <path d="M28.2844765,8.85556283 C28.7874065,8.62735257 29.3352246,8.6245996 29.8143627,8.80463167 C30.2850693,8.98149566 30.6894919,9.33476824 30.919953,9.82399053 L32.1109264,12.9749702 C32.5166262,14.0547015 33.3686708,14.9067461 34.4484021,15.3124459 L37.4500028,16.4402717 C37.966997,16.6345279 38.3563095,17.0199471 38.5678094,17.4860508 C38.7755876,17.9439524 38.8117561,18.4797238 38.6287843,18.9886168 L37.2428505,22.0588413 C36.7662383,23.1091996 36.7662383,24.3141727 37.2428505,25.364531 L38.5678094,28.2844765 C38.7960197,28.7874065 38.7987727,29.3352246 38.6187406,29.8143627 C38.4418766,30.2850693 38.088604,30.6894919 37.5993817,30.919953 L34.4484021,32.1109264 C33.3686708,32.5166262 32.5166262,33.3686708 32.1109264,34.4484021 L30.9831006,37.4500028 C30.7888444,37.966997 30.4034252,38.3563095 29.9373214,38.5678094 C29.4794199,38.7755876 28.9436485,38.8117561 28.4347555,38.6287843 L25.364531,37.2428505 C24.3141727,36.7662383 23.1091996,36.7662383 22.0588413,37.2428505 L19.1388957,38.5678094 C18.6359658,38.7960197 18.0881477,38.7987727 17.6090095,38.6187406 C17.1383029,38.4418766 16.7338803,38.088604 16.5034192,37.5993817 L15.3124459,34.4484021 C14.9067461,33.3686708 14.0547015,32.5166262 12.9749702,32.1109264 L9.9733695,30.9831006 C9.45637531,30.7888444 9.06706278,30.4034252 8.85556283,29.9373214 C8.64778472,29.4794199 8.6116162,28.9436485 8.79458799,28.4347555 L10.1805218,25.364531 C10.657134,24.3141727 10.657134,23.1091996 10.1805218,22.0588413 L8.85556283,19.1388957 C8.62735257,18.6359658 8.6245996,18.0881477 8.80463167,17.6090095 C8.98149566,17.1383029 9.33476824,16.7338803 9.82399053,16.5034192 L12.9749702,15.3124459 C14.0547015,14.9067461 14.9067461,14.0547015 15.3124459,12.9749702 L16.4402717,9.9733695 C16.6345279,9.45637531 17.0199471,9.06706278 17.4860508,8.85556283 C17.9439524,8.64778472 18.4797238,8.6116162 18.9886168,8.79458799 L22.0588413,10.1805218 C23.1091996,10.657134 24.3141727,10.657134 25.364531,10.1805218 Z" id="星形备份-2" stroke="url(#linearGradient-2)" stroke-width="2" fill="url(#linearGradient-1)" transform="translate(23.7117, 23.7117) rotate(20) translate(-23.7117, -23.7117)"></path>
                <g id="2" transform="translate(11.6528, 13.5527)" fill="#FFFFFF" font-family="Arial-BoldMT, Arial" font-size="20" font-weight="bold">
                    <text id="1">
                        <tspan x="6.43847656" y="18">1</tspan>
                    </text>
                </g>
            </g>
        </g>
    </g>
</svg>