<?xml version="1.0" encoding="UTF-8"?>
<svg width="80px" height="80px" viewBox="0 0 80 80" version="1.1" xmlns="http://www.w3.org/2000/svg" xmlns:xlink="http://www.w3.org/1999/xlink">
    <title>泰铢80pt@2x</title>
    <g id="页面-1" stroke="none" stroke-width="1" fill="none" fill-rule="evenodd">
        <g id="泰铢80pt">
            <path d="M40,0 C62.05,0 80,17.95 80,40 C80,62.05 62.05,80 40,80 C17.95,80 0,62.05 0,40 C0,17.95 17.95,0 40,0 Z M43.6962891,12.7255859 L39.2402344,12.7255859 L39.2402344,20.2666016 L27.9814453,20.2666016 L27.9814453,59 L39.2402344,59 L39.2402344,65.3544922 L43.6962891,65.3544922 L43.6962891,59 L44.3554688,59 C49.453125,59 53.1708984,57.4882812 55.5087891,54.4648438 C57.0732422,52.4433594 57.8554688,50.1845703 57.8554688,47.6884766 C57.8554688,44.7177734 56.9853516,42.3886719 55.2451172,40.7011719 C54.2607422,39.7519531 52.7753906,38.8994141 50.7890625,38.1435547 C52.1425781,37.4580078 53.1796875,36.7021484 53.9003906,35.8759766 C55.2890625,34.3115234 55.9833984,32.3076172 55.9833984,29.8642578 C55.9833984,27.7724609 55.4208984,25.9267578 54.2958984,24.3271484 C52.3798828,21.6201172 49.1542969,20.2666016 44.6191406,20.2666016 L44.6191406,20.2666016 L43.6962891,20.2666016 L43.6962891,12.7255859 Z M43.6962891,40.8857422 C45.8232422,40.9033203 47.5371094,41.1757812 48.8378906,41.703125 C51.3515625,42.7226562 52.6083984,44.6386719 52.6083984,47.4511719 C52.6083984,49.1210938 52.1777344,50.5449219 51.3164062,51.7226562 C49.9453125,53.5859375 47.6513672,54.5175781 44.4345703,54.5175781 L44.4345703,54.5175781 L43.6962891,54.5175781 Z M39.2402344,40.8857422 L39.2402344,54.5175781 L33.1230469,54.5175781 L33.1230469,40.8857422 L39.2402344,40.8857422 Z M39.2402344,24.6435547 L39.2402344,36.640625 L33.1230469,36.640625 L33.1230469,24.6435547 L39.2402344,24.6435547 Z M43.6962891,24.6699219 C45.3837891,24.7402344 46.7021484,24.9775391 47.6513672,25.3818359 C49.7080078,26.2607422 50.7363281,27.9658203 50.7363281,30.4970703 C50.7363281,33.0107422 49.7695312,34.7509766 47.8359375,35.7177734 C46.7988281,36.2451172 45.4189453,36.5439453 43.6962891,36.6142578 L43.6962891,36.6142578 Z" id="形状结合" fill="#9A4EB6" fill-rule="nonzero"></path>
            <g id="฿" transform="translate(27.981445, 12.725586)"></g>
        </g>
    </g>
</svg>