<?xml version="1.0" encoding="UTF-8"?>
<svg width="18px" height="12px" viewBox="0 0 18 12" version="1.1" xmlns="http://www.w3.org/2000/svg" xmlns:xlink="http://www.w3.org/1999/xlink">
    <title>视频2</title>
    <g id="切图" stroke="none" stroke-width="1" fill="none" fill-rule="evenodd" opacity="0.5">
        <g id="视频2" fill="#7981A4">
            <g id="icon/视频">
                <path d="M12.4,0 C13.5045695,-2.02906125e-16 14.4,0.8954305 14.4,2 L14.4,2 L14.4,10 C14.4,11.1045695 13.5045695,12 12.4,12 L12.4,12 L2,12 C0.8954305,12 1.3527075e-16,11.1045695 0,10 L0,10 L0,2 C-1.3527075e-16,0.8954305 0.8954305,2.02906125e-16 2,0 L2,0 Z M6.19438,3.61756386 C5.64209525,3.61756386 5.19438,4.06527911 5.19438,4.61756386 L5.19438,4.61756386 L5.19438,7.38113941 C5.19438,7.54151183 5.23295112,7.69953197 5.30683944,7.841869 C5.56129337,8.33204411 6.16493447,8.52313389 6.65510959,8.26867997 L6.65510959,8.26867997 L9.31619825,6.88728699 C9.49896391,6.79241183 9.64798365,6.64342692 9.74290152,6.46068343 C9.99746999,5.9705678 9.80652129,5.36688205 9.31640566,5.11231357 L9.31640566,5.11231357 L6.655317,3.73013101 C6.51292711,3.656173 6.35483145,3.61756386 6.19438,3.61756386 Z" id="形状结合"></path>
            </g>
            <path d="M13.2,4.8 L16.4,2.4 C16.8418278,2.06862915 17.4686292,2.1581722 17.8,2.6 C17.9298221,2.77309617 18,2.98362979 18,3.2 L18,8.8 C18,9.35228475 17.5522847,9.8 17,9.8 C16.7836298,9.8 16.5730962,9.72982213 16.4,9.6 L13.2,7.2 L13.2,7.2 L13.2,4.8 Z" id="矩形"></path>
        </g>
    </g>
</svg>