<?xml version="1.0" encoding="UTF-8"?>
<svg width="13px" height="20px" viewBox="0 0 13 20" version="1.1" xmlns="http://www.w3.org/2000/svg" xmlns:xlink="http://www.w3.org/1999/xlink">
    <title>vietnamese-dong</title>
    <g id="icon" stroke="none" stroke-width="1" fill="none" fill-rule="evenodd">
        <g id="icon-48" transform="translate(-78, -782)" fill="#000000" fill-rule="nonzero">
            <g id="vietnamese-dong" transform="translate(78, 782)">
                <rect id="矩形" x="7.85714286" y="0" width="2.14285714" height="2.14285714"></rect>
                <path d="M4.8147805,17.1428571 C5.93091563,17.1428571 6.95884217,16.7567747 7.7762541,16.1114975 L7.7762541,17.0555868 L10,17.0555868 L10,4.28571429 L7.7762541,4.28571429 L7.7762541,8.46366436 C6.95884217,7.81838719 5.93091563,7.43230476 4.8147805,7.43230476 C2.15981321,7.43230476 0,9.61032543 0,12.2874875 C0,14.9648365 2.15981321,17.1428571 4.8147805,17.1428571 Z M4.8147805,9.30086149 C6.44775124,9.30086149 7.7762541,10.6405638 7.7762541,12.2873006 C7.7762541,13.9342244 6.44775124,15.2739267 4.8147805,15.2739267 C3.18162445,15.2739267 1.85312158,13.9342244 1.85312158,12.2873006 C1.85312158,10.6407507 3.18162445,9.30086149 4.8147805,9.30086149 Z" id="形状"></path>
                <rect id="矩形" x="1.42857143" y="17.8571429" width="8.57142857" height="2.14285714"></rect>
                <rect id="矩形" x="5.71428571" y="2.14285714" width="7.14285714" height="2.14285714"></rect>
            </g>
        </g>
    </g>
</svg>