<?xml version="1.0" encoding="UTF-8"?>
<svg width="35px" height="35px" viewBox="0 0 35 35" version="1.1" xmlns="http://www.w3.org/2000/svg" xmlns:xlink="http://www.w3.org/1999/xlink">
    <title>提前結算icon</title>
    <g id="导航" stroke="none" stroke-width="1" fill="none" fill-rule="evenodd">
        <g id="结果new1" transform="translate(-600, -1350)" fill="#000000" fill-rule="nonzero">
            <g id="编组-4" transform="translate(36, 1188)">
                <g id="提前結算icon" transform="translate(564, 162)">
                    <path d="M26.5180699,9.7488396 L8.48075568,9.7488396 C6.48887621,9.7488396 4.87399752,11.3704521 4.87399752,13.3706374 L4.87399752,21.628478 C4.87399752,23.6286634 6.48887621,25.2502759 8.48075568,25.2502759 L26.5168954,25.2502759 C28.5087749,25.2502759 30.1236548,23.6286634 30.1236548,21.628478 L30.1236548,13.3706374 C30.124828,11.3704521 28.5099493,9.7488396 26.5180699,9.7488396 Z M9.15724305,22.1827747 L8.81899936,22.1827747 C8.23529412,22.1827747 7.76198785,21.7074948 7.76198785,21.1213556 C7.76198785,20.5352164 8.23529412,20.0599365 8.81899936,20.0599365 L9.15724305,20.0599365 C9.74094829,20.0599365 10.2142546,20.5352164 10.2142546,21.1213556 C10.2142546,21.7074948 9.74212275,22.1827747 9.15724305,22.1827747 Z M18.5529009,21.1767852 L18.5529009,21.3678407 C18.5529009,21.9539799 18.0795946,22.4292598 17.4958894,22.4292598 C16.9403711,22.4292598 16.4964263,21.994078 16.4541458,21.4468574 C16.0818429,21.385531 15.7295057,21.2168833 15.4570316,20.9515285 C15.0917754,20.5977222 14.8909433,20.1224423 14.8909433,19.6141405 C14.8909433,19.0280012 15.3642495,18.5527214 15.9479548,18.5527214 C16.4377034,18.5527214 16.8499379,18.8876581 16.9697326,19.3405302 C17.7660146,19.2827418 18.2592866,19.0763548 18.2839502,18.8970929 C18.2569377,18.9277561 18.054931,18.7190104 17.2598235,18.5362104 C15.4124023,18.1140015 14.5186403,17.2530726 14.6055501,15.9793697 C14.6501795,15.3189312 14.980202,14.310583 16.4388779,13.8164335 L16.4388779,13.6324542 C16.4388779,13.0463149 16.9121842,12.5710351 17.4958894,12.5710351 C18.0525821,12.5710351 18.496527,13.0073962 18.537633,13.5546168 C18.9005403,13.6159432 19.2552263,13.7786941 19.5288749,14.0452282 C19.8894332,14.3943172 20.0961377,14.8837493 20.0961377,15.3873337 C20.0961377,15.9734729 19.6228314,16.4487528 19.0391262,16.4487528 C18.5493775,16.4487528 18.137143,16.1149955 18.0173484,15.6621233 C17.2633469,15.717553 16.7289688,15.9027117 16.7137009,16.123251 C16.7313177,16.0973052 16.8863461,16.273029 17.7284319,16.4664432 C19.9751686,16.9794624 20.4202879,18.0951318 20.3967988,18.940729 C20.3838797,19.5009224 20.1325459,20.6366409 18.5529009,21.1767852 Z M26.1798262,14.939179 L25.8415825,14.939179 C25.2578773,14.939179 24.784571,14.4638991 24.784571,13.8777599 C24.784571,13.2916207 25.2578773,12.8163408 25.8415825,12.8163408 L26.1798262,12.8163408 C26.7635314,12.8163408 27.2368377,13.2916207 27.2368377,13.8777599 C27.2368377,14.4638991 26.7635314,14.939179 26.1798262,14.939179 Z" id="形状"></path>
                    <path d="M33.941814,24.3480696 C33.3581088,24.3480696 32.8848025,24.8233495 32.8848025,25.4094887 L32.8848025,27.6762082 C32.8848025,29.2070104 31.6457501,30.4524088 30.1213047,30.4524088 L25.5056877,30.4524088 L26.1175799,29.8379651 C26.5309889,29.4240117 26.5309889,28.7517796 26.1175799,28.3378261 C25.704171,27.9226933 25.0347304,27.9226933 24.6224959,28.3378261 L22.6223952,30.3462669 C21.9811416,30.9901945 21.9811416,32.0374614 22.6223952,32.6813889 L24.6224959,34.6898298 C24.8292004,34.8962168 25.0993255,35 25.3706251,35 C25.6419248,35 25.9120499,34.8962168 26.1187544,34.6886504 C26.5321634,34.2735176 26.5321634,33.6024649 26.1187544,33.187332 L25.5080366,32.5740677 L30.1224791,32.5740677 C32.8119862,32.5740677 35,30.3769301 35,27.6762082 L35,25.4094887 C34.9988255,24.8221702 34.5255193,24.3480696 33.941814,24.3480696 Z" id="路径"></path>
                    <path d="M9.49313781,4.54788601 L8.8812456,5.16232973 C8.46783665,5.57628318 8.46783665,6.24851528 8.8812456,6.66246873 C9.08795007,6.87003513 9.35807523,6.97381833 9.62937485,6.97381833 C9.90067447,6.97381833 10.1707996,6.87003513 10.3775041,6.66246873 L12.3776048,4.65402792 C13.0188584,4.01010033 13.0188584,2.96283348 12.3776048,2.3189059 L10.3775041,0.310465087 C9.96409516,-0.103488362 9.29465454,-0.103488362 8.88242005,0.310465087 C8.47018556,0.724418536 8.46901111,1.39665063 8.88242005,1.81178344 L9.49313781,2.42504781 L4.87752089,2.42504781 C2.18801383,2.42504781 0,4.62218534 0,7.32290728 L0,9.58962673 C0,10.1757659 0.473306265,10.6510458 1.05701151,10.6510458 C1.64071675,10.6510458 2.11402302,10.1757659 2.11402302,9.58962673 L2.11402302,7.32408663 C2.11402302,5.79328442 3.3530754,4.54788601 4.87752089,4.54788601 L9.49313781,4.54788601 Z" id="路径"></path>
                </g>
            </g>
        </g>
    </g>
</svg>