<svg width="48" height="52" viewBox="0 0 48 52" xmlns="http://www.w3.org/2000/svg">
    <g fill="#000" fill-rule="nonzero">
        <path d="M24 .954C10.745.954 0 12.188 0 26.045c0 13.858 10.745 25.091 24 25.091s24-11.233 24-25.09C48 12.187 37.255.953 24 .953zm14.625 34.648c0 1.979-1.535 3.583-3.428 3.583H12.803c-1.893 0-3.428-1.604-3.428-3.583V16.489c0-1.979 1.535-3.583 3.428-3.583h22.394c1.893 0 3.428 1.604 3.428 3.583v19.113z"/>
        <path d="M31.304 17.324 24 21.75l-7.304-4.426c-.814-.493-1.855-.2-2.325.654-.47.854-.19 1.946.623 2.44l8.155 4.94c.259.157.553.239.851.24.298-.001.592-.083.85-.24l8.156-4.94c.814-.494 1.093-1.586.623-2.44-.47-.855-1.51-1.147-2.325-.654z"/>
    </g>
</svg>
