<?xml version="1.0" encoding="UTF-8"?>
<svg width="40px" height="30px" viewBox="0 0 40 30" version="1.1" xmlns="http://www.w3.org/2000/svg" xmlns:xlink="http://www.w3.org/1999/xlink">
    <title>取消/延期- icon</title>
    <g id="导航" stroke="none" stroke-width="1" fill="none" fill-rule="evenodd">
        <g id="结果new1" transform="translate(-655, -1804)">
            <g id="编组-4备份" transform="translate(36, 1640)">
                <g id="取消/延期--icon" transform="translate(619, 164)">
                    <rect id="矩形备份-12" fill="#A5A5A5" x="0" y="0" width="40" height="30" rx="4"></rect>
                    <g id="说明" transform="translate(15, 7)" fill="#FFFFFF" fill-rule="nonzero">
                        <path d="M4.846875,13.4738077 C5.3275,13.4738077 5.7425,13.6372692 6.07,13.9641923 C6.37562501,14.2911154 6.55000001,14.7115384 6.55000001,15.2254615 C6.55000001,15.7387308 6.375,16.1826923 6.04812501,16.5096154 C5.72062501,16.8365385 5.3275,17 4.846875,17 C4.36687499,17 3.97375,16.813 3.64687499,16.4860769 C3.31874998,16.1591538 3.16562499,15.7387308 3.16562499,15.2254615 C3.16562499,14.7115384 3.31874998,14.2911154 3.64687499,13.9641923 C3.97374998,13.6372692 4.36687499,13.4738077 4.846875,13.4738077 Z M5.240625,0 C6.659375,0 7.81687501,0.396884602 8.69000001,1.23773078 C9.5625,2.05503846 10,3.17573078 10,4.60046156 C10,5.76757693 9.71625,6.72546156 9.19187501,7.47280768 C8.99562502,7.70623077 8.36250001,8.33653846 7.314375,9.31730769 C6.94917227,9.63910836 6.65184972,10.0367652 6.44125,10.4850769 C6.22249999,10.9519231 6.15624999,10.9813462 6.01437499,11.6593846 C5.92937499,12.3635769 5.47499998,12.6728461 4.65124999,12.5871923 C3.82749998,12.5008846 3.48874999,11.9137308 3.636875,10.8237692 C3.70125001,10.5040385 3.835625,10.1346154 4.03937499,9.71419232 C4.32312499,9.08388463 5.174375,8.1031154 6.59375001,6.74834617 L6.85625,6.42142308 C7.24875001,5.90815385 7.44562501,5.3478077 7.44562501,4.76392307 C7.44562501,3.99303847 7.22687499,3.38626924 6.83375001,2.9423077 C6.41937501,2.49834615 5.83000001,2.28846155 5.0875,2.28846155 C4.126875,2.28846155 3.45000002,2.59184615 3.03499999,3.24569233 C2.66374999,3.78315387 2.48937498,4.55338464 2.48937501,5.53415385 C2.34812502,6.34361538 1.92562501,6.74834617 1.22249999,6.74834617 C0.519374964,6.74834617 0.111874995,6.3436154 0,5.53415385 C0,3.80603847 0.458750005,2.45192309 1.41875,1.47115386 C2.35875001,0.49038463 3.625,0 5.240625,0 Z" id="形状"></path>
                    </g>
                </g>
            </g>
        </g>
    </g>
</svg>