<svg width="48" height="48" viewBox="0 0 48 48" xmlns="http://www.w3.org/2000/svg">
    <g fill="none" fill-rule="evenodd">
        <circle fill="#000" cx="24" cy="24" r="24"/>
        <path d="M38.137 27.185c.217-.978.33-1.99.33-3.03 0-7.79-6.404-14.106-14.308-14.106-.833 0-1.65.07-2.447.206A8.338 8.338 0 0 0 17.3 9C12.715 9 9 12.662 9 17.183a8.07 8.07 0 0 0 1.14 4.138c-.19.915-.29 1.864-.29 2.835 0 7.793 6.407 14.108 14.309 14.108.896 0 1.77-.081 2.62-.236a8.357 8.357 0 0 0 3.924.972C35.285 39 39 35.336 39 30.819c0-1.306-.31-2.539-.863-3.634zm-6.152 3.807c-.67.943-1.661 1.687-2.948 2.216-1.271.524-2.794.792-4.53.792-2.082 0-3.829-.363-5.193-1.081a6.744 6.744 0 0 1-2.386-2.103c-.617-.879-.928-1.753-.928-2.598 0-.525.204-.982.604-1.356.397-.372.907-.559 1.514-.559.497 0 .928.148 1.277.44.334.282.62.698.85 1.232.258.585.537 1.078.832 1.462.286.376.695.69 1.217.936.526.245 1.235.373 2.106.373 1.2 0 2.183-.256 2.92-.756.725-.487 1.075-1.076 1.075-1.795 0-.566-.184-1.012-.56-1.363-.396-.365-.916-.65-1.547-.848-.66-.202-1.554-.423-2.66-.654-1.507-.319-2.785-.696-3.8-1.127-1.041-.438-1.88-1.046-2.493-1.806-.622-.775-.938-1.745-.938-2.884 0-1.085.33-2.065.985-2.91.647-.838 1.594-1.493 2.815-1.938C21.4 14.223 22.83 14 24.452 14c1.294 0 2.433.149 3.384.443.956.294 1.76.691 2.393 1.182.638.497 1.114 1.023 1.41 1.573.301.555.455 1.106.455 1.64 0 .513-.2.981-.596 1.387-.396.412-.899.619-1.489.619-.536 0-.958-.131-1.247-.386-.272-.24-.555-.612-.867-1.144-.361-.68-.8-1.218-1.302-1.597-.488-.369-1.301-.553-2.422-.553-1.037 0-1.884.206-2.511.615-.605.392-.9.844-.9 1.38 0 .325.095.6.292.834.204.252.495.468.863.652.38.19.774.343 1.167.449.403.112 1.078.276 2.006.49 1.175.247 2.252.53 3.205.832.967.305 1.8.68 2.483 1.122a4.932 4.932 0 0 1 1.634 1.71c.392.694.59 1.545.59 2.536a5.428 5.428 0 0 1-1.015 3.208z" fill="#FFF" fill-rule="nonzero"/>
    </g>
</svg>
