<svg width="48" height="48" viewBox="0 0 48 48" xmlns="http://www.w3.org/2000/svg">
    <path d="M24 0c13.255 0 24 10.745 24 24S37.255 48 24 48 0 37.255 0 24 10.745 0 24 0zm10.66 14.4c-.915.016-2.317.498-9.068 3.27-2.365.97-7.09 2.98-14.177 6.029-1.15.452-1.754.894-1.809 1.326-.105.83 1.105 1.088 2.627 1.576 1.242.399 2.911.865 3.78.883.786.017 1.665-.304 2.635-.961 6.622-4.413 10.04-6.643 10.254-6.691.152-.034.361-.077.504.048.142.125.128.36.113.424-.12.507-6.34 6.092-6.699 6.46l-.171.172c-1.32 1.303-2.652 2.153-.352 3.65 2.077 1.35 3.285 2.213 5.425 3.597 1.367.885 2.44 1.935 3.85 1.806.65-.059 1.321-.662 1.662-2.46.805-4.25 2.388-13.46 2.754-17.255a4.18 4.18 0 0 0-.04-.945c-.033-.186-.1-.453-.346-.65-.292-.233-.741-.282-.942-.28z" fill="#000" fill-rule="nonzero"/>
</svg>
