<svg width="40" height="40" viewBox="0 0 40 40" xmlns="http://www.w3.org/2000/svg">
    <g fill-rule="nonzero" fill="none">
        <path d="M40 20c0 11.046-8.954 20-20 20S0 31.046 0 20 8.954 0 20 0s20 8.954 20 20" fill="#88A6BB"/>
        <path fill="#FFF" d="M29 10H10v4.454h7.207V21h4.586v-6.546H29z"/>
        <path d="M20 22.455c-5.902 0-10.687-.94-10.687-2.099 0-1.159 4.785-2.098 10.687-2.098 5.902 0 10.687.94 10.687 2.098 0 1.16-4.785 2.099-10.687 2.099m12-1.749C32 19.212 26.628 18 20 18c-6.627 0-12 1.212-12 2.706 0 1.316 4.166 2.413 9.687 2.656V33h4.54v-9.634C27.79 23.13 32 22.029 32 20.706" fill="#FFF"/>
    </g>
</svg>
