<?xml version="1.0" encoding="UTF-8"?>
<svg width="34px" height="34px" viewBox="0 0 34 34" version="1.1" xmlns="http://www.w3.org/2000/svg" xmlns:xlink="http://www.w3.org/1999/xlink">
    <title>消息- icon@2x</title>
    <g id="消息--icon" stroke="none" stroke-width="1" fill="none" fill-rule="evenodd">
        <path d="M18.4,0 C25.5538747,0.772628928 31,7.24290237 31,14.9691916 L31,27 L24.8397559,27.0009932 C24.0981141,30.4238588 20.8699584,33 17,33 C13.1300416,33 9.90188594,30.4238588 9.1602441,27.0009932 L3,27 L3,14.9691916 C3,7.24290237 8.44612533,0.772628928 15.6,0 L18.4,0 Z M19.9399479,27.0001691 L14.0600521,27.0001691 C14.3380927,28.141205 15.548697,29 17,29 C18.451303,29 19.6619073,28.141205 19.9399479,27.0001691 Z M17,4 C10.9750755,4 7,9.31776182 7,15.8775535 L7,23 L9.45485185,23.000964 L24.5447747,22.9999733 L24.544,23 L27,23 L27,15.8775535 C27,9.31776182 23.0249246,4 17,4 Z" id="形状结合" fill="#1F2630"></path>
    </g>
</svg>