<?xml version="1.0" encoding="UTF-8"?>
<svg width="80px" height="80px" viewBox="0 0 80 80" version="1.1" xmlns="http://www.w3.org/2000/svg" xmlns:xlink="http://www.w3.org/1999/xlink">
    <title>80*80_vndk</title>
    <g id="Page-1" stroke="none" stroke-width="1" fill="none" fill-rule="evenodd">
        <g id="不用管" transform="translate(-338.000000, -1250.000000)">
            <g id="80*80_vndk" transform="translate(337.999817, 1250.000000)">
                <circle id="椭圆形" fill="#FFA027" cx="40" cy="40" r="40"></circle>
                <path d="M53.5769403,9.33602977 L53.5767996,14.2340298 L58.5422004,14.2344273 L58.5422004,18.2344273 L53.5767996,18.2340298 L53.5769403,61.8750923 L47.9656121,61.8750923 L47.9656121,57.1641548 C45.5984246,60.8672798 42.1179559,62.7188423 37.5242059,62.7188423 C34.5476434,62.7188423 31.8113153,61.8985298 29.3152215,60.2579048 C26.8191278,58.6172798 24.885534,56.3262641 23.5144403,53.3848579 C22.1433465,50.4434516 21.4577996,47.0625923 21.4577996,43.2422798 C21.4577996,39.5157173 22.0788934,36.1348579 23.3210809,33.0997016 C24.5632684,30.0645454 26.4265496,27.7383735 28.9109246,26.121186 C31.3952996,24.5039985 34.1726434,23.6954048 37.2429559,23.6954048 C39.4929559,23.6954048 41.4968621,24.1700141 43.2546746,25.1192329 C45.0124871,26.0684516 46.4421746,27.3047798 47.5437371,28.8282173 L47.5427996,18.2340298 L42.5998246,18.2344273 L42.5998246,14.2344273 L47.5427996,14.2340298 L47.5437371,9.33602977 L53.5769403,9.33602977 Z M37.8406121,28.933686 C35.0281121,28.933686 32.6785028,30.0821235 30.791784,32.3789985 C28.9050653,34.6758735 27.9617059,38.2969673 27.9617059,43.2422798 C27.9617059,48.0235298 28.9695184,51.5977485 30.9851434,53.964936 C33.0007684,56.3321235 35.3796746,57.5157173 38.1218621,57.5157173 C40.8874871,57.5157173 43.2370965,56.3848579 45.1706903,54.1231391 C47.104284,51.8614204 48.0710809,48.4102485 48.0710809,43.7696235 C48.0710809,38.6602485 47.0867059,34.9102485 45.1179559,32.5196235 C43.1492059,30.1289985 40.7234246,28.933686 37.8406121,28.933686 Z M21.4577996,66.5821778 L58.5422004,66.5821778 L58.5422004,70.6639702 L21.4577996,70.6639702 L21.4577996,66.5821778 Z" id="形状结合" fill="#FFFFFF" fill-rule="nonzero"></path>
            </g>
        </g>
    </g>
</svg>