<?xml version="1.0" encoding="UTF-8"?>
<svg width="38px" height="38px" viewBox="0 0 38 38" version="1.1" xmlns="http://www.w3.org/2000/svg" xmlns:xlink="http://www.w3.org/1999/xlink">
    <title>网球-w-icon-2@2x</title>
    <g id="网球-w-icon-2" stroke="none" stroke-width="1" fill="none" fill-rule="evenodd">
        <path d="M36.064,17.2215163 C36.7108,17.2264878 37.356945,17.2640897 38,17.3341804 C37.2213251,8.40393151 30.3985977,1.2066099 21.568,0 L21.568,1.12664129 C21.5680889,12.1087045 12.741238,21.0238732 1.824,21.0681915 C1.21442582,21.063732 0.605537152,21.0261224 0,20.9555273 C0.897793607,29.7296194 7.62264135,36.759887 16.304,38 L16.304,37.1469717 C16.3039679,26.1612753 25.1430935,17.2481376 36.064,17.2215163 L36.064,17.2215163 Z" id="路径" fill="#96A5AA" fill-rule="nonzero"></path>
        <path d="M19,1.11483658 L19,0 C8.70601174,0.00468579334 0.284744655,8.1930092 0,18.4744342 C0.51006713,18.4744342 1.02013421,18.5540654 1.59395972,18.5540654 C11.1966483,18.4843823 18.9566035,10.709631 19,1.11483658 Z M38,19.6529757 C37.4233828,19.5836047 36.8433453,19.5463858 36.2625839,19.541492 C26.5174454,19.541492 18.6174497,27.4348657 18.6174497,37.1718357 L18.6174497,38 L19,38 C29.2460204,37.9974662 37.6478739,29.8843605 38,19.6529757 L38,19.6529757 Z" id="形状" fill="#96A5AA" fill-rule="nonzero"></path>
    </g>
</svg>